<?xml version="1.0" encoding="UTF-8" standalone="no"?>
<svg width="209px" height="52px" viewBox="0 0 209 52" version="1.1" xmlns="http://www.w3.org/2000/svg" xmlns:xlink="http://www.w3.org/1999/xlink">
    <!-- Generator: Sketch 42 (36781) - http://www.bohemiancoding.com/sketch -->
    <title>logo</title>
    <desc>Created with Sketch.</desc>
    <defs></defs>
    <g id="Page-1" stroke="none" stroke-width="1" fill="none" fill-rule="evenodd">
        <g id="logo" fill="#000105">
            <path d="M5.5,36.11 C10.347,22.317 13.593,13.053 15.24,8.32 C15.49,7.683 15.608,7.003 15.59,6.32 C15.51,5.447 14.89,5.063 13.73,5.17 C12.275,5.27 10.915,5.925 9.93,7 C8.93,8.11 8.219,9.449 7.86,10.9 C7.465,12.385 7.336,13.929 7.48,15.46 C7.586,16.405 7.76,17.341 8,18.26 C6.736,18.408 5.49,17.87 4.73,16.85 C3.877,15.832 3.352,14.581 3.22,13.26 C3.1,11.482 3.595,9.717 4.62,8.26 C5.748,6.531 7.243,5.073 9,3.99 C10.672,2.892 12.581,2.207 14.57,1.99 C15.971,1.799 17.394,2.126 18.57,2.91 C19.903,4.026 20.863,5.523 21.32,7.2 C22.225,10.108 22.789,13.112 23,16.15 C23.26,18.937 23.447,23.27 23.56,29.15 C23.646,33.484 23.747,36.246 23.86,37.44 C24.891,33.195 26.21,29.026 27.81,24.96 C29.584,20.333 31.38,16.037 33.2,12.07 C35.02,8.103 36.46,5.147 37.52,3.2 C37.879,2.41 38.34,1.671 38.89,1 C39.32,0.561 39.897,0.298 40.51,0.26 C41.423,0.26 42.331,0.401 43.2,0.68 C42.205,4.2 41.497,7.796 41.08,11.43 C40.3,16.81 39.717,22.44 39.33,28.32 C38.942,33.025 38.916,37.751 39.25,42.46 C39.314,43.381 39.461,44.295 39.69,45.19 C39.865,45.778 40.089,46.35 40.36,46.9 C40.633,47.453 40.843,47.866 40.99,48.14 C39.646,48.353 38.27,48.222 36.99,47.76 C36.052,47.319 35.332,46.519 34.99,45.54 C34.483,44.061 34.177,42.521 34.08,40.96 C33.706,36.706 33.736,32.428 34.17,28.18 C34.604,23.64 35.354,18.067 36.42,11.46 C33.685,16.583 31.406,21.937 29.61,27.46 C27.257,34.307 25.56,39.906 24.52,44.26 L24.11,44.42 C23.857,44.562 23.578,44.651 23.29,44.68 C21.956,44.807 21.02,44.14 20.48,42.68 C19.753,40.352 19.313,37.945 19.17,35.51 C18.977,33.51 18.737,30.097 18.45,25.27 C18.137,20.237 17.873,16.57 17.66,14.27 L17.27,10.75 L12.48,25.75 C10.16,33.036 8.437,38.33 7.31,41.63 C6.459,44.276 5.301,46.814 3.86,49.19 C2.72,50.923 1.433,51.86 0,52 C0.34,50.52 2.173,45.223 5.5,36.11" id="Fill-1"></path>
            <path d="M55.79,38.26 C57.799,35.549 59.655,32.728 61.35,29.81 L62.35,28.08 C62.424,27.891 62.598,27.76 62.8,27.74 L63.05,27.74 C63.193,27.002 63.223,26.247 63.14,25.5 C62.947,23.426 62.013,22.47 60.34,22.63 C58.667,22.79 56.923,23.897 55.11,25.95 C53.353,28.085 51.964,30.498 51,33.09 C50.051,35.231 49.6,37.56 49.68,39.9 C49.688,40.413 49.852,40.912 50.15,41.33 C50.433,41.62 50.841,41.751 51.24,41.68 C52.606,41.553 54.124,40.413 55.79,38.26 Z M46.61,43.81 C45.526,42.859 44.886,41.501 44.84,40.06 C44.724,37.28 45.349,34.519 46.65,32.06 C48.042,29.071 50.01,26.387 52.44,24.16 C54.479,22.116 57.137,20.805 60,20.43 C61.568,20.225 63.16,20.552 64.52,21.36 C65.71,22.041 66.488,23.264 66.6,24.63 C66.773,26.463 65.73,27.527 63.47,27.82 C64.943,28.126 65.717,28.656 65.79,29.41 C65.78,29.856 65.678,30.295 65.49,30.7 C65.263,31.286 65,31.894 64.7,32.52 C64.231,33.448 63.817,34.404 63.46,35.38 C63.19,36.091 63.077,36.852 63.13,37.61 C63.164,38.154 63.371,38.672 63.72,39.09 C64.071,39.485 64.599,39.672 65.12,39.59 C66.233,39.484 67.584,38.573 69.17,36.86 C71.055,34.647 72.54,32.122 73.56,29.4 L74.8,30.4 C73.815,33.526 72.198,36.415 70.05,38.89 C68.476,40.869 66.204,42.171 63.7,42.529 C62.302,42.742 60.886,42.282 59.88,41.29 C58.944,40.355 58.37,39.118 58.26,37.8 C57.049,39.652 55.656,41.377 54.1,42.95 C53.046,44.006 51.663,44.669 50.18,44.83 C48.901,44.982 47.616,44.615 46.61,43.81 L46.61,43.81 Z" id="Fill-3"></path>
            <path d="M80.44,13.21 C79.846,12.868 79.468,12.245 79.44,11.56 C79.41,10.541 79.9,9.577 80.74,9 C81.629,8.235 82.732,7.763 83.9,7.65 C85.613,7.49 86.54,8.156 86.68,9.65 C86.699,10.63 86.277,11.566 85.53,12.2 C84.779,13.019 83.755,13.534 82.65,13.65 C81.881,13.739 81.104,13.582 80.43,13.2 L80.44,13.21 Z M74.08,40.08 C73.048,39.12 72.428,37.797 72.35,36.39 C72.262,34.162 72.508,31.935 73.08,29.78 C73.646,27.163 74.561,24.634 75.8,22.26 C76.98,20.06 78.267,18.893 79.66,18.76 C80.129,18.699 80.604,18.817 80.99,19.09 C81.374,19.388 81.606,19.843 81.62,20.33 C81.621,20.852 81.504,21.368 81.28,21.84 C81.02,22.507 80.587,23.44 79.98,24.64 C79.04,26.549 78.21,28.508 77.49,30.51 C76.934,32 76.705,33.593 76.82,35.18 C76.799,36.079 77.117,36.953 77.71,37.63 C78.316,38.06 79.068,38.229 79.8,38.1 C82.947,37.807 85.787,34.473 88.32,28.1 L89.32,28.97 C88.485,32.172 86.928,35.141 84.77,37.65 C83.093,39.651 80.713,40.932 78.12,41.23 C76.67,41.458 75.192,41.038 74.08,40.08 L74.08,40.08 Z" id="Fill-4"></path>
            <path d="M102.54,37.79 C101.818,36.456 101.373,34.99 101.23,33.48 L101.15,32.04 C101.077,31.246 101.033,30.366 101.02,29.4 C99.953,31.983 98.612,34.444 97.02,36.74 C95.633,38.66 94.123,39.696 92.49,39.85 C91.146,39.967 89.835,39.4 89,38.34 C87.964,37.151 87.346,35.654 87.24,34.08 C87.127,32.225 87.275,30.363 87.68,28.55 C88.05,26.554 88.623,24.6 89.39,22.72 C90.097,21.047 90.763,20.18 91.39,20.12 C91.936,20.129 92.473,20.262 92.96,20.51 C93.522,20.696 93.998,21.08 94.3,21.59 C93.396,23.335 92.701,25.181 92.23,27.09 C91.62,29.063 91.366,31.128 91.48,33.19 C91.555,33.991 91.751,34.777 92.06,35.52 C92.281,36.196 92.955,36.618 93.66,36.52 C95.66,36.326 98.173,32.493 101.2,25.02 C101.297,23.772 101.461,22.53 101.69,21.3 C101.764,20.752 101.962,20.229 102.27,19.77 C102.537,19.507 102.895,19.356 103.27,19.35 C103.884,19.255 104.514,19.352 105.07,19.63 C105.515,19.884 105.798,20.348 105.82,20.86 C105.789,21.232 105.723,21.601 105.62,21.96 C105.305,23.609 105.138,25.282 105.12,26.96 C105.065,28.962 105.132,30.966 105.32,32.96 C105.364,33.745 105.509,34.522 105.75,35.27 C105.857,35.686 106.254,35.958 106.68,35.91 C107.713,35.81 108.967,34.517 110.44,32.029 C111.995,29.363 113.313,26.566 114.38,23.67 C114.113,20.843 114.217,18.843 114.69,17.67 C114.993,16.64 115.883,15.891 116.95,15.77 C117.703,15.647 118.47,15.901 119,16.45 C119.447,16.891 119.735,17.467 119.82,18.09 C119.854,18.512 119.777,18.936 119.6,19.32 C119.42,19.74 119.297,20.033 119.23,20.2 C118.577,21.931 118.341,23.791 118.54,25.63 C118.82,28.576 119.82,29.967 121.54,29.8 C122.384,29.678 123.149,29.238 123.68,28.57 C124.555,27.443 125.231,26.175 125.68,24.82 L126.9,25.61 C126.471,27.267 125.627,28.787 124.45,30.029 C123.58,30.917 122.434,31.482 121.2,31.63 C119.985,31.761 118.769,31.401 117.82,30.63 C116.712,29.709 115.829,28.545 115.24,27.23 C113.938,30.168 112.321,32.958 110.42,35.55 C108.707,37.823 106.974,39.04 105.22,39.2 C104.123,39.32 103.063,38.762 102.54,37.79" id="Fill-5"></path>
            <path d="M134.61,30.8 C136.619,28.089 138.475,25.268 140.17,22.35 L141.17,20.62 C141.244,20.431 141.418,20.3 141.62,20.28 L141.87,20.28 C142.013,19.542 142.043,18.787 141.96,18.04 C141.767,15.966 140.833,15.01 139.16,15.17 C137.486,15.33 135.767,16.45 134,18.53 C132.218,20.66 130.805,23.073 129.82,25.67 C128.871,27.811 128.42,30.14 128.5,32.48 C128.508,32.993 128.672,33.492 128.97,33.91 C129.239,34.182 129.621,34.312 130,34.26 C131.406,34.133 132.943,32.98 134.61,30.8 Z M125.43,36.39 C124.347,35.439 123.706,34.081 123.66,32.64 C123.544,29.86 124.168,27.099 125.47,24.64 C126.862,21.652 128.829,18.967 131.26,16.74 C133.31,14.689 135.983,13.376 138.86,13.01 C140.429,12.805 142.021,13.133 143.38,13.94 C144.573,14.618 145.355,15.842 145.47,17.21 C145.644,19.043 144.597,20.107 142.33,20.4 C143.804,20.707 144.577,21.237 144.65,21.99 C144.641,22.436 144.538,22.875 144.35,23.28 C144.123,23.866 143.86,24.473 143.56,25.1 C143.092,26.029 142.678,26.983 142.32,27.96 C142.05,28.67 141.937,29.432 141.99,30.19 C142.024,30.734 142.23,31.252 142.58,31.67 C142.931,32.064 143.459,32.252 143.98,32.17 C145.094,32.064 146.443,31.154 148.03,29.44 C149.915,27.227 151.4,24.702 152.42,21.98 L153.66,22.98 C152.676,26.106 151.059,28.995 148.91,31.47 C147.335,33.449 145.063,34.751 142.56,35.11 C141.162,35.323 139.746,34.862 138.74,33.87 C137.804,32.935 137.23,31.698 137.12,30.38 C135.924,32.24 134.543,33.976 133,35.56 C131.946,36.616 130.563,37.279 129.08,37.44 C127.771,37.606 126.451,37.226 125.43,36.39 L125.43,36.39 Z" id="Fill-6"></path>
            <path d="M168.14,30.9 C167.325,30.158 166.843,29.12 166.8,28.02 C166.757,27.352 166.79,26.68 166.9,26.02 C167.014,25.253 167.137,24.493 167.27,23.74 C167.403,22.987 167.54,22.15 167.68,21.23 C167.782,20.454 167.806,19.67 167.75,18.89 C167.563,16.79 166.674,15.82 165.08,15.98 C163.486,16.14 161.98,17.16 160.56,19.04 C159.035,20.968 157.722,23.053 156.64,25.26 C155.526,27.493 154.283,30.16 152.91,33.26 C152.278,33.33 151.639,33.273 151.03,33.09 C150.478,32.928 149.986,32.604 149.62,32.16 C149.732,31.344 149.924,30.54 150.19,29.76 C150.943,26.913 151.54,24.33 151.98,22.01 C152.396,19.998 152.562,17.943 152.47,15.89 C152.77,15.472 153.146,15.115 153.58,14.84 C154.03,14.523 154.553,14.324 155.1,14.26 C155.875,14.081 156.648,14.564 156.827,15.339 C156.859,15.48 156.871,15.626 156.86,15.77 C156.886,16.918 156.806,18.067 156.62,19.2 C156.4,20.846 156.09,22.6 155.69,24.46 C157.147,21.375 158.956,18.469 161.08,15.8 C163.04,13.393 165.04,12.083 167.08,11.87 C168.424,11.637 169.785,12.174 170.61,13.26 C171.483,14.419 171.991,15.811 172.07,17.26 C172.157,18.159 172.134,19.066 172,19.96 C171.819,20.994 171.575,22.016 171.27,23.02 C170.997,24 170.79,24.843 170.65,25.55 C170.511,26.238 170.471,26.941 170.53,27.64 C170.67,29.274 171.337,30.027 172.53,29.9 C173.863,29.76 175.196,28.654 176.53,26.58 C177.943,24.186 179.106,21.653 180,19.02 L180.73,19.79 C178.497,27.337 175.37,31.314 171.35,31.72 C170.212,31.914 169.045,31.616 168.14,30.9" id="Fill-7"></path>
            <path d="M196,28.08 C195.186,27.338 194.703,26.301 194.66,25.2 C194.616,24.531 194.649,23.861 194.76,23.2 C194.87,22.43 195,21.67 195.13,20.92 C195.26,20.17 195.44,19.29 195.54,18.41 C195.643,17.634 195.666,16.85 195.61,16.07 C195.424,13.97 194.533,13 192.94,13.16 C191.347,13.32 189.837,14.353 188.41,16.26 C186.888,18.175 185.574,20.247 184.49,22.44 C183.377,24.674 182.134,27.34 180.76,30.44 C180.128,30.511 179.489,30.453 178.88,30.27 C178.327,30.108 177.837,29.784 177.47,29.34 C177.583,28.524 177.773,27.72 178.04,26.94 C178.793,24.093 179.39,21.51 179.83,19.19 C180.247,17.179 180.412,15.122 180.32,13.07 C180.619,12.652 180.996,12.296 181.43,12.02 C181.88,11.702 182.402,11.503 182.95,11.44 C183.725,11.261 184.498,11.744 184.677,12.519 C184.71,12.66 184.721,12.805 184.71,12.95 C184.736,14.098 184.655,15.246 184.47,16.38 C184.25,18.027 183.94,19.78 183.54,21.64 C184.997,18.555 186.806,15.65 188.93,12.98 C190.89,10.574 192.89,9.267 194.93,9.06 C196.247,8.85 197.573,9.376 198.39,10.43 C199.264,11.589 199.771,12.981 199.85,14.43 C199.935,15.343 199.904,16.264 199.76,17.17 C199.579,18.204 199.335,19.226 199.03,20.23 C198.757,21.21 198.55,22.054 198.41,22.76 C198.271,23.447 198.231,24.151 198.29,24.85 C198.43,26.483 199.097,27.237 200.29,27.11 C201.623,26.97 202.957,25.863 204.29,23.79 C205.725,21.395 206.907,18.858 207.82,16.22 L208.55,16.99 C206.33,24.503 203.21,28.47 199.19,28.89 C198.061,29.081 196.902,28.787 196,28.08" id="Fill-8"></path>
        </g>
    </g>
</svg>