<svg xmlns="http://www.w3.org/2000/svg" viewBox="0 0 208.57 51.74"><title>Plan de travail 22</title><g id="Calque_2" data-name="Calque 2"><path d="M5.5,35.85q7.27-20.69,9.74-27.79a5.1,5.1,0,0,0,.35-2q-.12-1.31-1.86-1.15a5.68,5.68,0,0,0-3.8,1.83,9.09,9.09,0,0,0-2.07,3.9,13,13,0,0,0-.38,4.56A19.78,19.78,0,0,0,8,18a3.56,3.56,0,0,1-3.27-1.41A6.61,6.61,0,0,1,3.22,13a7.78,7.78,0,0,1,1.4-5A14,14,0,0,1,9,3.73a12.65,12.65,0,0,1,5.57-2,5.8,5.8,0,0,1,4,.92,8.51,8.51,0,0,1,2.75,4.29A39.26,39.26,0,0,1,23,15.89q.39,4.18.56,13,.13,6.5.3,8.29a95.88,95.88,0,0,1,3.95-12.48q2.66-6.94,5.39-12.89t4.32-8.87A10,10,0,0,1,38.89.74,2.48,2.48,0,0,1,40.51,0,8.78,8.78,0,0,1,43.2.42a68,68,0,0,0-2.12,10.75q-1.17,8.07-1.75,16.89a92.48,92.48,0,0,0-.08,14.14,15.3,15.3,0,0,0,.44,2.73,11,11,0,0,0,.67,1.71q.41.83.63,1.24a8.06,8.06,0,0,1-4-.38,3.86,3.86,0,0,1-2-2.22,17.47,17.47,0,0,1-.91-4.58,67.55,67.55,0,0,1,.09-12.78q.65-6.81,2.25-16.72a99,99,0,0,0-6.81,16Q26.08,37.47,24.52,44l-.41.16a2.11,2.11,0,0,1-.82.26q-2,.19-2.81-2a30,30,0,0,1-1.31-7.17q-.29-3-.72-10.24-.47-7.55-.79-11l-.39-3.52-4.79,15Q9,36.42,7.31,41.37a35.61,35.61,0,0,1-3.45,7.56Q2.15,51.53,0,51.74.51,49.52,5.5,35.85Z"/><path d="M46.61,43.55a5.21,5.21,0,0,1-1.77-3.75,15.7,15.7,0,0,1,1.81-8,25.08,25.08,0,0,1,5.79-7.9A13.08,13.08,0,0,1,60,20.17a7.06,7.06,0,0,1,4.52.93,4.16,4.16,0,0,1,2.08,3.27q.26,2.75-3.13,3.19,2.21.46,2.32,1.59a3.23,3.23,0,0,1-.3,1.29q-.34.88-.79,1.82a26.72,26.72,0,0,0-1.24,2.86,5.24,5.24,0,0,0-.33,2.23,2.56,2.56,0,0,0,.59,1.48,1.55,1.55,0,0,0,1.4.5q1.67-.16,4.05-2.73a25.06,25.06,0,0,0,4.39-7.46l1.24,1a23.91,23.91,0,0,1-4.75,8.49,9.91,9.91,0,0,1-6.35,3.64,4.48,4.48,0,0,1-3.82-1.24,5.59,5.59,0,0,1-1.62-3.49,33,33,0,0,1-4.16,5.15,6.53,6.53,0,0,1-3.92,1.88A4.81,4.81,0,0,1,46.61,43.55ZM55.79,38a90.69,90.69,0,0,0,5.56-8.45l1-1.73a.54.54,0,0,1,.45-.34l.25,0a7.46,7.46,0,0,0,.09-2.24q-.29-3.11-2.8-2.87t-5.23,3.32A24.88,24.88,0,0,0,51,32.83a15.5,15.5,0,0,0-1.32,6.81,2.53,2.53,0,0,0,.47,1.43,1.22,1.22,0,0,0,1.09.35Q53.29,41.23,55.79,38Z"/><path d="M74.08,39.82a5.45,5.45,0,0,1-1.73-3.69,22.32,22.32,0,0,1,.73-6.61A29.91,29.91,0,0,1,75.8,22q1.77-3.3,3.86-3.5a1.88,1.88,0,0,1,1.33.33,1.63,1.63,0,0,1,.63,1.24,3.51,3.51,0,0,1-.34,1.51q-.39,1-1.3,2.8a56.75,56.75,0,0,0-2.49,5.87,11.06,11.06,0,0,0-.67,4.67,3.59,3.59,0,0,0,.89,2.45,2.78,2.78,0,0,0,2.09.47q4.72-.44,8.52-10l1,.87a21.71,21.71,0,0,1-4.55,8.68,10.2,10.2,0,0,1-6.65,3.58A5,5,0,0,1,74.08,39.82Zm6.36-26.87a2,2,0,0,1-1-1.65,3,3,0,0,1,1.3-2.56,5.68,5.68,0,0,1,3.16-1.35q2.57-.24,2.78,2a3.26,3.26,0,0,1-1.15,2.55,4.55,4.55,0,0,1-2.88,1.45A3.65,3.65,0,0,1,80.43,12.94Z"/><path d="M102.54,37.53a11.29,11.29,0,0,1-1.31-4.31l-.08-1.44q-.11-1.19-.13-2.64a39.1,39.1,0,0,1-4,7.34q-2.08,2.88-4.53,3.11A4,4,0,0,1,89,38.08a7.22,7.22,0,0,1-1.76-4.26,19.86,19.86,0,0,1,.44-5.53,29.76,29.76,0,0,1,1.71-5.83q1.06-2.51,2-2.6a3.58,3.58,0,0,1,1.57.39,2.45,2.45,0,0,1,1.34,1.08,24.92,24.92,0,0,0-2.07,5.5,17.39,17.39,0,0,0-.75,6.1,8,8,0,0,0,.58,2.33,1.47,1.47,0,0,0,1.6,1q3-.29,7.54-11.5a35.47,35.47,0,0,1,.49-3.72,3.62,3.62,0,0,1,.58-1.53,1.46,1.46,0,0,1,1-.42,3,3,0,0,1,1.8.28,1.49,1.49,0,0,1,.75,1.23,5.73,5.73,0,0,1-.2,1.1,28.18,28.18,0,0,0-.5,5,49.49,49.49,0,0,0,.2,6,9.2,9.2,0,0,0,.43,2.31.86.86,0,0,0,.93.64q1.55-.15,3.76-3.88a52.84,52.84,0,0,0,3.94-8.36q-.4-4.24.31-6a2.67,2.67,0,0,1,2.26-1.9,2.33,2.33,0,0,1,2.05.68,2.84,2.84,0,0,1,.82,1.64,2.47,2.47,0,0,1-.22,1.23q-.27.63-.37.88a11.78,11.78,0,0,0-.69,5.43q.42,4.42,3,4.17a3.34,3.34,0,0,0,2.14-1.23,12.56,12.56,0,0,0,2-3.75l1.22.79a10.12,10.12,0,0,1-2.45,4.42,5.46,5.46,0,0,1-3.25,1.6,4.58,4.58,0,0,1-3.38-1,9.43,9.43,0,0,1-2.58-3.4,44.71,44.71,0,0,1-4.82,8.32q-2.57,3.41-5.2,3.65A2.71,2.71,0,0,1,102.54,37.53Z"/><path d="M125.43,36.13a5.21,5.21,0,0,1-1.77-3.75,15.7,15.7,0,0,1,1.81-8,25.08,25.08,0,0,1,5.79-7.9,13.08,13.08,0,0,1,7.6-3.73,7.06,7.06,0,0,1,4.52.93,4.16,4.16,0,0,1,2.09,3.27q.26,2.75-3.14,3.19,2.21.46,2.32,1.59a3.23,3.23,0,0,1-.3,1.29q-.34.88-.79,1.82a26.72,26.72,0,0,0-1.24,2.86,5.24,5.24,0,0,0-.33,2.23,2.56,2.56,0,0,0,.59,1.48,1.55,1.55,0,0,0,1.4.5q1.67-.16,4.05-2.73a25.06,25.06,0,0,0,4.39-7.46l1.24,1a23.9,23.9,0,0,1-4.75,8.49,9.91,9.91,0,0,1-6.35,3.64,4.48,4.48,0,0,1-3.82-1.24,5.59,5.59,0,0,1-1.62-3.49A33,33,0,0,1,133,35.3a6.53,6.53,0,0,1-3.92,1.88A4.81,4.81,0,0,1,125.43,36.13Zm9.18-5.59a90.86,90.86,0,0,0,5.56-8.45l1-1.73a.54.54,0,0,1,.45-.34l.25,0a7.46,7.46,0,0,0,.09-2.24q-.29-3.11-2.8-2.87T134,18.27a24.88,24.88,0,0,0-4.18,7.14,15.5,15.5,0,0,0-1.32,6.81,2.53,2.53,0,0,0,.47,1.43A1.22,1.22,0,0,0,130,34Q132.11,33.81,134.61,30.54Z"/><path d="M168.14,30.64a4.11,4.11,0,0,1-1.34-2.88,8.76,8.76,0,0,1,.1-2q.17-1.15.37-2.28t.41-2.51a11.54,11.54,0,0,0,.07-2.34q-.28-3.15-2.67-2.91t-4.52,3.06A34.49,34.49,0,0,0,156.64,25q-1.67,3.35-3.73,8a4.71,4.71,0,0,1-1.88-.17,2.88,2.88,0,0,1-1.41-.93,12.89,12.89,0,0,1,.57-2.4q1.13-4.27,1.79-7.75a24.76,24.76,0,0,0,.49-6.12,4,4,0,0,1,1.11-1.05,3.3,3.3,0,0,1,1.52-.58,1.44,1.44,0,0,1,1.76,1.51,18.61,18.61,0,0,1-.24,3.43q-.33,2.47-.93,5.26a44.3,44.3,0,0,1,5.39-8.66q2.94-3.61,6-3.93A3.65,3.65,0,0,1,170.61,13a7.3,7.3,0,0,1,1.46,4A11,11,0,0,1,172,19.7a25.7,25.7,0,0,1-.73,3.06q-.41,1.47-.62,2.53a7.39,7.39,0,0,0-.12,2.09q.21,2.45,2,2.26,2-.21,4-3.32A40.48,40.48,0,0,0,180,18.76l.73.77q-3.35,11.32-9.38,11.93A4.07,4.07,0,0,1,168.14,30.64Z"/><path d="M196,27.82a4.11,4.11,0,0,1-1.34-2.88,8.7,8.7,0,0,1,.1-2c.11-.77.24-1.53.37-2.28s.31-1.63.41-2.51a11.54,11.54,0,0,0,.07-2.34q-.28-3.15-2.67-2.91T188.41,16a34.53,34.53,0,0,0-3.92,6.18q-1.67,3.35-3.73,8a4.71,4.71,0,0,1-1.88-.17,2.88,2.88,0,0,1-1.41-.93,12.89,12.89,0,0,1,.57-2.4q1.13-4.27,1.79-7.75a24.71,24.71,0,0,0,.49-6.12,4,4,0,0,1,1.11-1.05,3.29,3.29,0,0,1,1.52-.58,1.44,1.44,0,0,1,1.76,1.51,18.61,18.61,0,0,1-.24,3.43q-.33,2.47-.93,5.26a44.3,44.3,0,0,1,5.39-8.66q2.94-3.61,6-3.92a3.65,3.65,0,0,1,3.46,1.37,7.3,7.3,0,0,1,1.46,4,11,11,0,0,1-.09,2.74,26,26,0,0,1-.73,3.06q-.41,1.47-.62,2.53a7.43,7.43,0,0,0-.12,2.09q.21,2.45,2,2.26,2-.21,4-3.32a40.47,40.47,0,0,0,3.53-7.57l.73.77Q205.22,28,199.19,28.63A4.07,4.07,0,0,1,196,27.82Z"/></g></svg>