<?xml version="1.0" encoding="UTF-8" standalone="no"?>
<svg width="100px" height="100px" viewBox="0 0 100 100" version="1.1" xmlns="http://www.w3.org/2000/svg" xmlns:xlink="http://www.w3.org/1999/xlink">
    <!-- Generator: Sketch 43.2 (39069) - http://www.bohemiancoding.com/sketch -->
    <title>devopensud</title>
    <desc>Created with Sketch.</desc>
    <defs></defs>
    <g id="Page-1" stroke="none" stroke-width="1" fill="none" fill-rule="evenodd">
        <g id="devopensud">
            <path d="M0,0 L6.66666667,0 L6.66666667,26.6666667 L0,26.6666667 L0,0 Z M6.66666667,0 L13.3333333,0 L13.3333333,6.66666667 L6.66666667,6.66666667 L6.66666667,0 Z M6.66666667,20 L13.3333333,20 L13.3333333,26.6666667 L6.66666667,26.6666667 L6.66666667,20 Z M13.3333333,6.66666667 L20,6.66666667 L20,20 L13.3333333,20 L13.3333333,6.66666667 Z" id="Combined-Shape" fill="#000000" fill-rule="nonzero"></path>
            <path d="M33.3333333,6.66666667 L46.6666667,6.66666667 L46.6666667,13.3333333 L33.3333333,13.3333333 L33.3333333,6.66666667 Z M26.6666667,13.3333333 L40,13.3333333 L40,20 L26.6666667,20 L26.6666667,13.3333333 Z M33.3333333,20 L46.6666667,20 L46.6666667,26.6666667 L33.3333333,26.6666667 L33.3333333,20 Z" id="Combined-Shape" fill="#000000" fill-rule="nonzero"></path>
            <path d="M60,40 L73.3333333,40 L73.3333333,46.6666667 L60,46.6666667 L60,40 Z M53.3333333,46.6666667 L66.6666667,46.6666667 L66.6666667,53.3333333 L53.3333333,53.3333333 L53.3333333,46.6666667 Z M60,53.3333333 L73.3333333,53.3333333 L73.3333333,60 L60,60 L60,53.3333333 Z" id="Combined-Shape" fill="#4A4A4A" fill-rule="nonzero"></path>
            <path d="M66.6666667,6.66666667 L73.3333333,6.66666667 L73.3333333,20 L66.6666667,20 L66.6666667,6.66666667 Z M53.3333333,6.66666667 L60,6.66666667 L60,20 L53.3333333,20 L53.3333333,6.66666667 Z M60,20 L66.6666667,20 L66.6666667,26.6666667 L60,26.6666667 L60,20 Z" id="Combined-Shape" fill="#000000" fill-rule="nonzero"></path>
            <path d="M40,80 L46.6666667,80 L46.6666667,93.3333333 L40,93.3333333 L40,80 Z M26.6666667,80 L33.3333333,80 L33.3333333,93.3333333 L26.6666667,93.3333333 L26.6666667,80 Z M33.3333333,93.3333333 L46.6666667,93.3333333 L46.6666667,100 L33.3333333,100 L33.3333333,93.3333333 Z" id="Combined-Shape" fill="#9B9B9B" fill-rule="nonzero"></path>
            <g id="Rectangle-19" transform="translate(0.000000, 33.333333)" fill="#4A4A4A">
                <g id="path-1-link">
                    <rect id="path-1" x="0" y="0" width="20" height="6.66666667"></rect>
                </g>
            </g>
            <polygon id="Combined-Shape" fill="#4A4A4A" fill-rule="nonzero" points="6.66666667 53.3333333 13.3333333 53.3333333 13.3333333 40 0 40 0 33.3333333 20 33.3333333 20 36.6666667 20 60 16.6666667 60 3.33333333 60 0 60 0 40 6.66666667 40"></polygon>
            <path d="M26.6666667,46.6666667 L33.3333333,46.6666667 L33.3333333,66.6666667 L26.6666667,66.6666667 L26.6666667,46.6666667 Z M33.3333333,53.3333333 L40,53.3333333 L40,60 L33.3333333,60 L33.3333333,53.3333333 Z M40,46.6666667 L46.6666667,46.6666667 L46.6666667,53.3333333 L40,53.3333333 L40,46.6666667 Z M26.6666667,40 L40,40 L40,46.6666667 L26.6666667,46.6666667 L26.6666667,40 Z" id="Combined-Shape" fill="#4A4A4A" fill-rule="nonzero"></path>
            <path d="M80,40 L86.6666667,40 L86.6666667,60 L80,60 L80,40 Z M86.6666667,40 L93.3333333,40 L93.3333333,46.6666667 L86.6666667,46.6666667 L86.6666667,40 Z M93.3333333,46.6666667 L100,46.6666667 L100,60 L93.3333333,60 L93.3333333,46.6666667 Z" id="Combined-Shape" fill="#4A4A4A" fill-rule="nonzero"></path>
            <path d="M0,66.6666667 L20,66.6666667 L20,73.3333333 L0,73.3333333 L0,66.6666667 Z M0,80 L20,80 L20,86.6666667 L0,86.6666667 L0,80 Z M0,93.3333333 L20,93.3333333 L20,100 L0,100 L0,93.3333333 Z M0,73.3333333 L6.66666667,73.3333333 L6.66666667,80 L0,80 L0,73.3333333 Z M13.3333333,86.6666667 L20,86.6666667 L20,93.3333333 L13.3333333,93.3333333 L13.3333333,86.6666667 Z" id="Combined-Shape" fill="#9B9B9B" fill-rule="nonzero"></path>
            <path d="M60,80 L66.6666667,80 L66.6666667,86.6666667 L60,86.6666667 L60,80 Z M53.3333333,93.3333333 L66.6666667,93.3333333 L66.6666667,100 L53.3333333,100 L53.3333333,93.3333333 Z M53.3333333,86.6666667 L60,86.6666667 L60,93.3333333 L53.3333333,93.3333333 L53.3333333,86.6666667 Z M66.6666667,73.3333333 L73.3333333,73.3333333 L73.3333333,93.3333333 L66.6666667,93.3333333 L66.6666667,73.3333333 Z" id="Combined-Shape" fill="#9B9B9B" fill-rule="nonzero"></path>
        </g>
    </g>
</svg>