<?xml version="1.0" encoding="UTF-8" standalone="no"?>
<svg width="198px" height="49px" viewBox="0 0 198 49" version="1.1" xmlns="http://www.w3.org/2000/svg" xmlns:xlink="http://www.w3.org/1999/xlink">
    <!-- Generator: Sketch 43.2 (39069) - http://www.bohemiancoding.com/sketch -->
    <title>competition_remuneration</title>
    <desc>Created with Sketch.</desc>
    <defs></defs>
    <g id="Symbols" stroke="none" stroke-width="1" fill="none" fill-rule="evenodd">
        <g id="footer/mobile" transform="translate(-62.000000, -881.000000)" fill="#FFFFFF">
            <g id="footer/logoCR" transform="translate(41.000000, 858.000000)">
                <g id="logoBlancCompetitionRemuneration" transform="translate(21.000000, 23.000000)">
                    <g id="Group" fill-rule="nonzero">
                        <g transform="translate(15.590551, 16.333333)" id="Shape">
                            <polygon points="24.2043307 16.4888889 0.233858268 16.4888889 1.79291339 10.6555556 25.7633858 10.6555556"></polygon>
                            <polygon points="26.9716535 6.14444444 3.0011811 6.14444444 4.56023622 0.311111111 28.5307087 0.311111111"></polygon>
                        </g>
                        <path d="M0.272834646,24.5 C0.272834646,37.9166667 11.1862205,48.8055556 24.6330709,48.8055556 C29.2712598,48.8055556 33.7925197,47.4833333 37.7291339,44.9944444 L33.1299213,37.8388889 C30.5964567,39.4722222 27.634252,40.3277778 24.6330709,40.3277778 C15.9023622,40.3277778 8.76968504,33.2111111 8.76968504,24.5 C8.76968504,15.7888889 15.8633858,8.67222222 24.6330709,8.67222222 C27.6732283,8.67222222 30.5964567,9.52777778 33.1299213,11.1611111 L37.6901575,4.00555556 C33.7925197,1.51666667 29.2712598,0.194444444 24.5940945,0.194444444 C11.1862205,0.194444444 0.272834646,11.0833333 0.272834646,24.5 Z" id="Shape"></path>
                    </g>
                    <path d="M80.6031496,12.0944444 C79.1220472,12.0944444 77.8358268,12.6 76.8224409,13.6111111 C75.8090551,14.6222222 75.3023622,15.8666667 75.3023622,17.3444444 C75.3023622,18.8222222 75.8090551,20.0666667 76.8224409,21.0777778 C77.8358268,22.0888889 79.1220472,22.5555556 80.6031496,22.5555556 C82.084252,22.5555556 83.3704724,22.05 84.3838583,21.0777778 C85.3972441,20.0666667 85.903937,18.8222222 85.903937,17.3444444 C85.903937,15.8666667 85.3972441,14.6222222 84.3838583,13.6111111 C83.3704724,12.6 82.1232283,12.0944444 80.6031496,12.0944444 Z M82.7468504,19.6 C82.1622047,20.2222222 81.4606299,20.5333333 80.6031496,20.5333333 C79.7456693,20.5333333 79.0440945,20.2222222 78.4594488,19.6 C77.8748031,18.9777778 77.6019685,18.2 77.6019685,17.3055556 C77.6019685,16.4111111 77.8748031,15.6333333 78.4594488,15.0111111 C79.0440945,14.3888889 79.7456693,14.0388889 80.6031496,14.0388889 C81.4606299,14.0388889 82.1622047,14.35 82.7468504,15.0111111 C83.3314961,15.6333333 83.6043307,16.4111111 83.6043307,17.3055556 C83.6433071,18.2 83.3314961,18.9777778 82.7468504,19.6 Z M90.1133858,16.0611111 L92.8417323,21.5833333 L94.2059055,21.5833333 L96.934252,16.0611111 L96.934252,22.4388889 L99.1948819,22.4388889 L99.1948819,12.3277778 L96.1547244,12.3277778 L93.5433071,17.8888889 L90.9318898,12.3277778 L87.8917323,12.3277778 L87.8917323,22.4388889 L90.1523622,22.4388889 L90.1523622,16.0611111 L90.1133858,16.0611111 Z M108.666142,13.2222222 C107.964567,12.6388889 106.834252,12.3277778 105.275197,12.3277778 L101.68937,12.3277778 L101.68937,22.4388889 L103.95,22.4388889 L103.95,19.6 L105.314173,19.6 C106.795276,19.6 107.925591,19.3277778 108.666142,18.7444444 C109.406693,18.1611111 109.75748,17.2666667 109.75748,15.9833333 C109.718504,14.7388889 109.367717,13.8444444 108.666142,13.2222222 Z M106.990157,17.1888889 C106.717323,17.5 106.21063,17.6555556 105.470079,17.6555556 L103.95,17.6555556 L103.95,14.2722222 L105.23622,14.2722222 C105.976772,14.2722222 106.522441,14.3888889 106.873228,14.6222222 C107.224016,14.8555556 107.418898,15.2833333 107.418898,15.8666667 C107.418898,16.45 107.262992,16.8777778 106.990157,17.1888889 Z M123.009449,22.4388889 L125.270079,22.4388889 L125.270079,14.2722222 L128.154331,14.2722222 L128.154331,12.3277778 L120.164173,12.3277778 L120.164173,14.2722222 L123.048425,14.2722222 L123.048425,22.4388889 L123.009449,22.4388889 Z M129.791339,22.4388889 L132.051969,22.4388889 L132.051969,12.3277778 L129.791339,12.3277778 L129.791339,22.4388889 Z M133.727953,14.2722222 L136.612205,14.2722222 L136.612205,22.4388889 L138.872835,22.4388889 L138.872835,14.2722222 L141.757087,14.2722222 L141.757087,12.3277778 L133.766929,12.3277778 L133.766929,14.2722222 L133.727953,14.2722222 Z M145.615748,12.3277778 L143.355118,12.3277778 L143.355118,22.4388889 L145.615748,22.4388889 L145.615748,12.3277778 Z M152.865354,22.5166667 C154.346457,22.5166667 155.632677,22.0111111 156.646063,21.0388889 C157.659449,20.0277778 158.166142,18.7833333 158.166142,17.3055556 C158.166142,15.8277778 157.659449,14.5833333 156.646063,13.5722222 C155.632677,12.5611111 154.346457,12.0555556 152.865354,12.0555556 C151.384252,12.0555556 150.098031,12.5611111 149.084646,13.5722222 C148.07126,14.5833333 147.564567,15.8277778 147.564567,17.3055556 C147.564567,18.7833333 148.07126,20.0277778 149.084646,21.0388889 C150.098031,22.05 151.384252,22.5166667 152.865354,22.5166667 Z M150.721654,15.0111111 C151.306299,14.3888889 152.007874,14.0388889 152.865354,14.0388889 C153.722835,14.0388889 154.424409,14.35 155.009055,15.0111111 C155.593701,15.6333333 155.866535,16.4111111 155.866535,17.3055556 C155.866535,18.2 155.593701,18.9777778 155.009055,19.6 C154.424409,20.2222222 153.722835,20.5333333 152.865354,20.5333333 C152.007874,20.5333333 151.306299,20.2222222 150.721654,19.6 C150.137008,18.9777778 149.864173,18.2 149.864173,17.3055556 C149.864173,16.4111111 150.137008,15.6333333 150.721654,15.0111111 Z M162.375591,16.1 L167.208661,22.4388889 L169.469291,22.4388889 L169.469291,12.3277778 L167.208661,12.3277778 L167.208661,18.8222222 L162.219685,12.3277778 L160.114961,12.3277778 L160.114961,22.4388889 L162.375591,22.4388889 L162.375591,16.1 Z M71.7165354,14.2722222 C72.3011811,14.2722222 72.8858268,14.4277778 73.3535433,14.7388889 L74.5228346,12.9111111 C73.6653543,12.3666667 72.6909449,12.0944444 71.6775591,12.0944444 C68.7933071,12.0944444 66.415748,14.4666667 66.415748,17.3444444 C66.415748,20.2222222 68.7933071,22.5944444 71.6775591,22.5944444 C72.6909449,22.5944444 73.6653543,22.3222222 74.5228346,21.7777778 L73.3535433,19.95 C72.8468504,20.2611111 72.3011811,20.4166667 71.7165354,20.4166667 C70.0015748,20.4166667 68.6374016,19.0555556 68.6374016,17.3444444 C68.6374016,15.6722222 70.0405512,14.2722222 71.7165354,14.2722222 Z M113.772047,18.3555556 L118.293307,18.3555556 L118.293307,16.45 L113.772047,16.45 L113.772047,14.35 L118.8,14.35 L118.8,12.3277778 L116.071654,12.3277778 L117.474803,11.3944444 L116.461417,9.91666667 L113.460236,11.9388889 L113.733071,12.3666667 L111.472441,12.3666667 L111.472441,22.4777778 L118.955906,22.4777778 L118.955906,20.4944444 L113.733071,20.4944444 L113.733071,18.3555556 L113.772047,18.3555556 Z M64.3110236,31.3055556 L72.4570866,31.3055556 L73.0027559,29.3222222 L64.8566929,29.3222222 L64.3110236,31.3055556 Z M63.3366142,34.8444444 L71.4826772,34.8444444 L72.0283465,32.8611111 L63.8822835,32.8611111 L63.3366142,34.8444444 Z M156.217323,26.9888889 L151.851969,37.1 L154.268504,37.1 L155.203937,34.9222222 L159.413386,34.9222222 L160.348819,37.1 L162.765354,37.1 L158.4,26.9888889 L156.217323,26.9888889 Z M156.022441,32.9388889 L157.308661,29.9833333 L158.555906,32.9388889 L156.022441,32.9388889 Z M195.466535,26.9888889 L195.466535,33.4833333 L190.477559,26.9888889 L188.372835,26.9888889 L188.372835,37.1 L190.633465,37.1 L190.633465,30.7611111 L195.466535,37.1 L197.727165,37.1 L197.727165,26.9888889 L195.466535,26.9888889 Z M171.651969,37.1 L173.912598,37.1 L173.912598,26.9888889 L171.651969,26.9888889 L171.651969,37.1 L171.651969,37.1 Z M161.985827,28.9333333 L164.870079,28.9333333 L164.870079,37.1 L167.130709,37.1 L167.130709,28.9333333 L170.014961,28.9333333 L170.014961,26.9888889 L162.024803,26.9888889 L162.024803,28.9333333 L161.985827,28.9333333 Z M116.656299,32.5888889 C116.656299,33.4055556 116.461417,34.0277778 116.11063,34.4944444 C115.720866,34.9611111 115.214173,35.1944444 114.590551,35.1944444 C113.966929,35.1944444 113.460236,34.9611111 113.070472,34.4944444 C112.680709,34.0277778 112.485827,33.4055556 112.485827,32.5888889 L112.485827,26.9888889 L110.225197,26.9888889 L110.225197,32.6666667 C110.225197,34.1055556 110.614961,35.2333333 111.433465,36.05 C112.251969,36.8277778 113.304331,37.2555556 114.551575,37.2555556 C115.798819,37.2555556 116.851181,36.8666667 117.669685,36.0888889 C118.488189,35.3111111 118.877953,34.1833333 118.877953,32.7055556 L118.877953,27.0666667 L116.617323,27.0666667 L116.617323,32.5888889 L116.656299,32.5888889 Z M181.162205,26.7555556 C179.681102,26.7555556 178.394882,27.2611111 177.381496,28.2722222 C176.36811,29.2833333 175.861417,30.5277778 175.861417,32.0055556 C175.861417,33.4833333 176.36811,34.7277778 177.381496,35.7388889 C178.394882,36.75 179.681102,37.2166667 181.162205,37.2166667 C182.643307,37.2166667 183.929528,36.7111111 184.942913,35.7388889 C185.956299,34.7277778 186.462992,33.4833333 186.462992,32.0055556 C186.462992,30.5277778 185.956299,29.2833333 184.942913,28.2722222 C183.929528,27.2611111 182.643307,26.7555556 181.162205,26.7555556 Z M183.305906,34.3 C182.72126,34.9222222 182.019685,35.2333333 181.162205,35.2333333 C180.304724,35.2333333 179.60315,34.9222222 179.018504,34.3 C178.433858,33.6777778 178.161024,32.9 178.161024,32.0055556 C178.161024,31.1111111 178.433858,30.3333333 179.018504,29.7111111 C179.60315,29.0888889 180.304724,28.7388889 181.162205,28.7388889 C182.019685,28.7388889 182.72126,29.05 183.305906,29.7111111 C183.890551,30.3333333 184.163386,31.1111111 184.163386,32.0055556 C184.163386,32.9 183.890551,33.6777778 183.305906,34.3 Z M128.349213,33.4833333 L123.360236,26.9888889 L121.255512,26.9888889 L121.255512,37.1 L123.516142,37.1 L123.516142,30.7611111 L128.349213,37.1 L130.609843,37.1 L130.609843,26.9888889 L128.349213,26.9888889 L128.349213,33.4833333 Z M89.3338583,32.9777778 L93.8551181,32.9777778 L93.8551181,31.0722222 L89.3338583,31.0722222 L89.3338583,28.9722222 L94.361811,28.9722222 L94.361811,26.95 L91.6334646,26.95 L93.0366142,26.0166667 L92.0232283,24.5388889 L89.0220472,26.5611111 L89.2948819,26.9888889 L87.034252,26.9888889 L87.034252,37.1 L94.5177165,37.1 L94.5177165,35.1166667 L89.2948819,35.1166667 L89.2948819,32.9777778 L89.3338583,32.9777778 Z M150.838583,30.3333333 C150.838583,29.1666667 150.487795,28.3111111 149.825197,27.7666667 C149.162598,27.2222222 148.032283,26.9888889 146.473228,26.9888889 L142.614567,26.9888889 L142.614567,37.1 L144.875197,37.1 L144.875197,33.8722222 L146.434252,33.8722222 L148.694882,37.1 L151.462205,37.1 L148.889764,33.4833333 C150.175984,33.0166667 150.838583,31.9666667 150.838583,30.3333333 Z M148.110236,31.5388889 C147.837402,31.7722222 147.291732,31.9277778 146.512205,31.9277778 L144.875197,31.9277778 L144.875197,28.9333333 L146.590157,28.9333333 C147.330709,28.9333333 147.837402,29.05 148.110236,29.2444444 C148.383071,29.4388889 148.538976,29.8277778 148.538976,30.3722222 C148.5,30.9166667 148.383071,31.3055556 148.110236,31.5388889 Z M102.235039,32.55 L99.623622,26.9888889 L96.5834646,26.9888889 L96.5834646,37.1 L98.8440945,37.1 L98.8440945,30.7222222 L101.572441,36.2444444 L102.936614,36.2444444 L105.664961,30.7222222 L105.664961,37.1 L107.925591,37.1 L107.925591,26.9888889 L104.846457,26.9888889 L102.235039,32.55 Z M135.403937,32.9777778 L139.925197,32.9777778 L139.925197,31.0722222 L135.403937,31.0722222 L135.403937,28.9722222 L140.43189,28.9722222 L140.43189,26.95 L137.703543,26.95 L139.106693,26.0166667 L138.093307,24.5388889 L135.092126,26.5611111 L135.364961,26.9888889 L133.104331,26.9888889 L133.104331,37.1 L140.587795,37.1 L140.587795,35.1166667 L135.364961,35.1166667 L135.364961,32.9777778 L135.403937,32.9777778 Z M84.7346457,30.3333333 C84.7346457,29.1666667 84.3838583,28.3111111 83.7212598,27.7666667 C83.0586614,27.2222222 81.9283465,26.9888889 80.3692913,26.9888889 L76.5106299,26.9888889 L76.5106299,37.1 L78.7712598,37.1 L78.7712598,33.8722222 L80.330315,33.8722222 L82.5909449,37.1 L85.3582677,37.1 L82.7858268,33.4833333 C84.1110236,33.0166667 84.7346457,31.9666667 84.7346457,30.3333333 Z M82.0062992,31.5388889 C81.7334646,31.7722222 81.1877953,31.9277778 80.4082677,31.9277778 L78.7712598,31.9277778 L78.7712598,28.9333333 L80.4862205,28.9333333 C81.2267717,28.9333333 81.7334646,29.05 82.0062992,29.2444444 C82.2791339,29.4388889 82.4350394,29.8277778 82.4350394,30.3722222 C82.4350394,30.9166667 82.2791339,31.3055556 82.0062992,31.5388889 Z" id="Shape" fill-rule="nonzero"></path>
                </g>
            </g>
        </g>
    </g>
</svg>