<?xml version="1.0" encoding="UTF-8" standalone="no"?>
<svg width="70px" height="70px" viewBox="0 0 70 70" version="1.1" xmlns="http://www.w3.org/2000/svg" xmlns:xlink="http://www.w3.org/1999/xlink">
    <!-- Generator: Sketch 43.2 (39069) - http://www.bohemiancoding.com/sketch -->
    <title>favicon</title>
    <desc>Created with Sketch.</desc>
    <defs></defs>
    <g id="Favicon" stroke="none" stroke-width="1" fill="none" fill-rule="evenodd">
        <g id="favicon" stroke="#FFAB1D" fill="#FFAB1D">
            <path d="M27.0682294,11.5929648 C27.3974327,10.7557789 27.5528166,9.86207963 27.529114,8.96443757 C27.4237689,7.81708543 26.6073449,7.31240819 25.0798419,7.4530344 C23.163879,7.58446077 21.3730134,8.44530344 20.0759526,9.85813684 C18.7591397,11.3169695 17.8228857,13.0767685 17.3501498,14.983765 C16.8300087,16.9354465 16.6601398,18.9646695 16.8497609,20.9768071 C16.9893431,22.2187862 17.2184685,23.448937 17.5345036,24.6567453 C15.8700521,24.8512563 14.2293031,24.1441825 13.2285253,22.8036336 C12.1052838,21.4657132 11.413957,19.8215694 11.2401377,18.0854271 C11.0821202,15.7486664 11.7339426,13.4289911 13.0836758,11.514109 C14.5690409,9.2417472 16.5376762,7.32555083 18.8513166,5.90220332 C21.0530278,4.45914186 23.5668238,3.55887128 26.1859647,3.27367607 C28.0308197,3.02265172 29.9046445,3.45241593 31.4532166,4.48279861 C33.2085282,5.94951681 34.4726687,7.91696946 35.0744522,10.1209896 C36.2661679,13.9428682 37.0088504,17.8909161 37.2866979,21.883649 C37.6290693,25.5465017 37.8753133,31.241206 38.0241132,38.9690761 C38.1373591,44.6650947 38.2703572,48.2950908 38.4191571,49.8643216 C39.7767912,44.2852725 41.5136675,38.8061075 43.6205682,33.4623116 C45.9565944,27.3812138 48.3215905,21.7351372 50.7181901,16.5214534 C53.1147896,11.3077696 55.0110003,7.42280634 56.406822,4.86393506 C56.8795579,3.8256668 57.4866087,2.85442598 58.2108558,1.97255508 C58.7770853,1.39559335 59.5368864,1.04994202 60.3440928,1 C61.546343,1 62.7420092,1.18531117 63.8863196,1.55199072 C62.5760907,6.17819869 61.6437871,10.9042907 61.0946761,15.6803247 C60.067562,22.751063 59.2998601,30.1503672 58.7902535,37.8782373 C58.2793301,44.0618477 58.2450929,50.2730576 58.6849084,56.461925 C58.7691845,57.6723618 58.962756,58.8735988 59.2643061,60.0498647 C59.4947484,60.8226517 59.7897145,61.5744105 60.1465708,62.2972555 C60.5060608,63.0240433 60.7825915,63.5668342 60.976163,63.9269424 C59.2063664,64.2068806 57.3944317,64.034712 55.7089112,63.4275222 C54.4737406,62.847932 53.5256353,61.7965211 53.0752853,60.509857 C52.4076611,58.5660611 52.0047163,56.5420951 51.8769855,54.4905296 C51.3844974,48.8996521 51.4240018,43.2772323 51.9954986,37.6942404 C52.5669955,31.7274836 53.5546052,24.4030924 54.9583278,15.7197526 C51.3568444,22.4527252 48.3558276,29.4892926 45.9908316,36.7479706 C42.8923707,45.7467337 40.6577391,53.1052957 39.2882536,58.8275995 L38.7483603,59.0378817 C38.4152066,59.2245072 38.0478158,59.3414766 37.6685737,59.3795903 C35.9119452,59.5465017 34.6794083,58.6698879 33.9683293,56.751063 C33.0110063,53.6914573 32.4316086,50.5280247 32.2433043,47.3277928 C31.9891594,44.6992656 31.6731243,40.2136838 31.295199,33.8697333 C30.8830365,27.2550445 30.5353979,22.4356397 30.2549168,19.4128334 L29.7413597,14.7866254 L23.4338257,34.5005798 C20.3788196,44.0763046 18.1099509,51.0340162 16.6259027,55.3710862 C15.5052949,58.8486278 13.9804255,62.1842288 12.082898,65.3069192 C10.5817312,67.5845381 8.88699296,68.8160031 7,69 C7.4477164,67.0548898 9.86143455,60.0932354 14.2424712,48.116351 C20.6250636,29.9887128 24.8994385,17.8133746 27.0682294,11.5929648 Z" id="Fill-1"></path>
        </g>
    </g>
</svg>