<?xml version="1.0" encoding="UTF-8" standalone="no"?>
<svg width="45px" height="37px" viewBox="0 0 45 37" version="1.1" xmlns="http://www.w3.org/2000/svg" xmlns:xlink="http://www.w3.org/1999/xlink">
    <!-- Generator: Sketch 43.2 (39069) - http://www.bohemiancoding.com/sketch -->
    <title>Shape</title>
    <desc>Created with Sketch.</desc>
    <defs></defs>
    <g id="Symbols" stroke="none" stroke-width="1" fill="none" fill-rule="evenodd">
        <g id="contact/reseauxSociaux/twitter" transform="translate(-17.000000, -15.000000)" fill-rule="nonzero" fill="#000000">
            <path d="M62,19.3291452 C60.3442885,20.0634259 58.5649621,20.5596949 56.6974102,20.7828926 C58.6036431,19.6402392 60.0674311,17.8309558 60.756776,15.6751893 C58.9730056,16.7330736 56.997147,17.5014265 54.894217,17.9155602 C53.2100296,16.1212553 50.8106551,15 48.1553276,15 C43.0565126,15 38.9227477,19.1336003 38.9227477,24.232086 C38.9227477,24.9556677 39.0045539,25.6603204 39.1619115,26.3360035 C31.4889169,25.9510041 24.6861626,22.2754856 20.1326676,16.6899484 C19.3379787,18.053495 18.8826951,19.6394162 18.8826951,21.3313398 C18.8826951,24.5342917 20.5127291,27.3601448 22.9899594,29.0156919 C21.4764622,28.9677933 20.0530012,28.5525074 18.8081312,27.8610227 C18.8074728,27.8995391 18.8074728,27.9382201 18.8074728,27.9770657 C18.8074728,32.4502359 21.9898497,36.1817185 26.2133216,37.0297377 C25.4385493,37.240755 24.6229562,37.353506 23.7808625,37.353506 C23.185998,37.353506 22.6075935,37.2957313 22.0440031,37.1879183 C23.2187534,40.8558653 26.6282783,43.5250192 30.6682212,43.599583 C27.5085592,46.0756611 23.5277077,47.5516296 19.2023483,47.5516296 C18.457204,47.5516296 17.7222649,47.5080105 17,47.4227477 C21.0857018,50.0421924 25.9386042,51.5705037 31.1523099,51.5705037 C48.1337649,51.5705037 57.4198397,37.5026336 57.4198397,25.3026446 C57.4198397,24.9023373 57.4109513,24.5041699 57.3931746,24.1083068 C59.1968616,22.8066498 60.7622079,21.1805662 62,19.3291452" id="Shape"></path>
        </g>
    </g>
</svg>