<?xml version="1.0" encoding="UTF-8" standalone="no"?>
<svg width="261px" height="67px" viewBox="0 0 261 67" version="1.1" xmlns="http://www.w3.org/2000/svg" xmlns:xlink="http://www.w3.org/1999/xlink">
    <!-- Generator: Sketch 43.2 (39069) - http://www.bohemiancoding.com/sketch -->
    <title>logo_entete</title>
    <desc>Created with Sketch.</desc>
    <defs></defs>
    <g id="Symbols" stroke="none" stroke-width="1" fill="none" fill-rule="evenodd">
        <g id="maiwannUXWebdesign" transform="translate(0.929688, -27.000000)" stroke="#000000">
            <g id="logo_entete" transform="translate(0.000000, 28.000000)">
                <g id="logo">
                    <path d="M18.9588517,10.4 C19.2698565,9.60375 19.4166507,8.75375 19.3942584,7.9 C19.2947368,6.80875 18.523445,6.32875 17.0803828,6.4625 C15.2703349,6.5875 13.5784689,7.40625 12.35311,8.75 C11.1090909,10.1375 10.2245933,11.81125 9.77799043,13.625 C9.28660287,15.48125 9.1261244,17.41125 9.30526316,19.325 C9.43712919,20.50625 9.65358852,21.67625 9.95215311,22.825 C8.37971292,23.01 6.82966507,22.3375 5.88421053,21.0625 C4.8230622,19.79 4.16995215,18.22625 4.00574163,16.575 C3.85645933,14.3525 4.4722488,12.14625 5.74736842,10.325 C7.15062201,8.16375 9.01043062,6.34125 11.1961722,4.9875 C13.2761722,3.615 15.6510048,2.75875 18.1253589,2.4875 C19.8682297,2.24875 21.6384689,2.6575 23.1014354,3.6375 C24.7597129,5.0325 25.9539713,6.90375 26.522488,9 C27.6483254,12.635 28.3499522,16.39 28.6124402,20.1875 C28.9358852,23.67125 29.1685167,29.0875 29.3090909,36.4375 C29.4160766,41.855 29.5417225,45.3075 29.6822967,46.8 C30.9648804,41.49375 32.6057416,36.2825 34.5961722,31.2 C36.8030622,25.41625 39.0373206,20.04625 41.3014354,15.0875 C43.5655502,10.12875 45.3569378,6.43375 46.6755981,4 C47.122201,3.0125 47.6956938,2.08875 48.3799043,1.25 C48.9148325,0.70125 49.6326316,0.3725 50.3952153,0.325 C51.5310048,0.325 52.6605742,0.50125 53.7416268,0.85 C52.5038278,5.25 51.6230622,9.745 51.1043062,14.2875 C50.1339713,21.0125 49.4087081,28.05 48.9272727,35.4 C48.4445933,41.28125 48.4122488,47.18875 48.8277512,53.075 C48.9073684,54.22625 49.0902392,55.36875 49.3751196,56.4875 C49.592823,57.2225 49.8714833,57.9375 50.2086124,58.625 C50.5482297,59.31625 50.8094737,59.8325 50.9923445,60.175 C49.3203828,60.44125 47.6086124,60.2775 46.0162679,59.7 C44.849378,59.14875 43.9536842,58.14875 43.5282297,56.925 C42.897512,55.07625 42.5168421,53.15125 42.3961722,51.2 C41.9309091,45.8825 41.9682297,40.535 42.508134,35.225 C43.0480383,29.55 43.9810526,22.58375 45.307177,14.325 C41.9047847,20.72875 39.0696651,27.42125 36.8354067,34.325 C33.9082297,42.88375 31.7971292,49.8825 30.5033493,55.325 L29.9933014,55.525 C29.6785646,55.7025 29.3314833,55.81375 28.9732057,55.85 C27.3136842,56.00875 26.1492823,55.175 25.477512,53.35 C24.57311,50.44 24.0257416,47.43125 23.8478469,44.3875 C23.6077512,41.8875 23.3091866,37.62125 22.9521531,31.5875 C22.5627751,25.29625 22.2343541,20.7125 21.969378,17.8375 L21.4842105,13.4375 L15.5253589,32.1875 C12.6392344,41.295 10.4957895,47.9125 9.0937799,52.0375 C8.03511962,55.345 6.59454545,58.5175 4.80191388,61.4875 C3.38373206,63.65375 1.78267943,64.825 0,65 C0.422966507,63.15 2.70325359,56.52875 6.84210526,45.1375 C12.871866,27.89625 16.9099522,16.31625 18.9588517,10.4 Z" id="Fill-1" fill="#000000"></path>
                    <path d="M69.4038278,47.825 C71.9030622,44.43625 74.2119617,40.91 76.3205742,37.2625 L77.5645933,35.1 C77.6566507,34.86375 77.87311,34.7 78.1244019,34.675 L78.4354067,34.675 C78.6133014,33.7525 78.650622,32.80875 78.5473684,31.875 C78.3072727,29.2825 77.1453589,28.0875 75.0641148,28.2875 C72.9828708,28.4875 70.8133014,29.87125 68.5578947,32.4375 C66.3721531,35.10625 64.6442105,38.1225 63.4449761,41.3625 C62.2644019,44.03875 61.7033493,46.95 61.8028708,49.875 C61.812823,50.51625 62.0168421,51.14 62.3875598,51.6625 C62.7396172,52.025 63.247177,52.18875 63.7435407,52.1 C65.4428708,51.94125 67.3312919,50.51625 69.4038278,47.825 Z M57.9837321,54.7625 C56.6352153,53.57375 55.8390431,51.87625 55.7818182,50.075 C55.637512,46.6 56.4150239,43.14875 58.0334928,40.075 C59.7651675,36.33875 62.2133971,32.98375 65.2363636,30.2 C67.7729187,27.645 71.0795215,26.00625 74.6411483,25.5375 C76.5917703,25.28125 78.5722488,25.69 80.2641148,26.7 C81.7444976,27.55125 82.7123445,29.08 82.8516746,30.7875 C83.06689,33.07875 81.769378,34.40875 78.9578947,34.775 C80.7903349,35.1575 81.7532057,35.82 81.8440191,36.7625 C81.8315789,37.32 81.704689,37.86875 81.4708134,38.375 C81.1884211,39.1075 80.861244,39.8675 80.4880383,40.65 C79.9045933,41.81 79.3895694,43.005 78.9454545,44.225 C78.6095694,45.11375 78.4689952,46.065 78.5349282,47.0125 C78.5772249,47.6925 78.8347368,48.34 79.2688995,48.8625 C79.7055502,49.35625 80.3623923,49.59 81.0105263,49.4875 C82.3951196,49.355 84.0757895,48.21625 86.0488038,46.075 C88.3937799,43.30875 90.2411483,40.1525 91.5100478,36.75 L93.0526316,38 C91.8272727,41.9075 89.8156938,45.51875 87.1435407,48.6125 C85.1854545,51.08625 82.3590431,52.71375 79.2440191,53.16125 C77.5048804,53.4275 75.7433493,52.8525 74.491866,51.6125 C73.3274641,50.44375 72.6133971,48.8975 72.476555,47.25 C70.9700478,49.565 69.2371292,51.72125 67.3014354,53.6875 C65.9902392,55.0075 64.2697608,55.83625 62.4248804,56.0375 C60.8337799,56.2275 59.2352153,55.76875 57.9837321,54.7625 L57.9837321,54.7625 Z" id="Fill-3" fill="#000000"></path>
                    <path d="M98.8248804,14.45 C98.7875598,13.17625 99.3971292,11.97125 100.442105,11.25 C101.548038,10.29375 102.920191,9.70375 104.373206,9.5625 C106.504211,9.3625 107.657416,10.195 107.831579,12.0625 C107.855215,13.2875 107.330239,14.4575 106.400957,15.25 C105.466699,16.27375 104.192823,16.9175 102.818182,17.0625 C101.861531,17.17375 100.894928,16.9775 100.056459,16.5 C99.3299522,16.085 98.8597129,15.30625 98.8248804,14.45 Z M92.1569378,50.1 C90.87311,48.9 90.1018182,47.24625 90.0047847,45.4875 C89.895311,42.7025 90.2013397,39.91875 90.9129187,37.225 C91.6170335,33.95375 92.755311,30.7925 94.2966507,27.825 C95.7645933,25.075 97.3656459,23.61625 99.0985646,23.45 C99.6820096,23.37375 100.272919,23.52125 100.75311,23.8625 C101.230813,24.235 101.519426,24.80375 101.536842,25.4125 C101.538086,26.065 101.392536,26.71 101.113876,27.3 C100.790431,28.13375 100.25177,29.3 99.4966507,30.8 C98.3272727,33.18625 97.2947368,35.635 96.3990431,38.1375 C95.7073684,40 95.422488,41.99125 95.5655502,43.975 C95.5394258,45.09875 95.9350239,46.19125 96.6727273,47.0375 C97.4266029,47.575 98.3621053,47.78625 99.2727273,47.625 C103.187656,47.25875 106.72067,43.09125 109.87177,35.125 L111.115789,36.2125 C110.077033,40.215 108.140096,43.92625 105.455502,47.0625 C103.369282,49.56375 100.408517,51.165 97.1827751,51.5375 C95.3789474,51.8225 93.5402871,51.2975 92.1569378,50.1 L92.1569378,50.1 Z" id="Fill-4" fill="#000000"></path>
                    <path d="M127.561722,47.2375 C126.663541,45.57 126.109952,43.7375 125.932057,41.85 L125.832536,40.05 C125.741722,39.0575 125.686986,37.9575 125.670813,36.75 C124.343445,39.97875 122.675215,43.055 120.694737,45.925 C118.969282,48.325 117.090813,49.62 115.05933,49.8125 C113.387368,49.95875 111.756459,49.25 110.717703,47.925 C109.4289,46.43875 108.660096,44.5675 108.52823,42.6 C108.387656,40.28125 108.57177,37.95375 109.075598,35.6875 C109.535885,33.1925 110.248708,30.75 111.202871,28.4 C112.082392,26.30875 112.910909,25.225 113.690909,25.15 C114.370144,25.16125 115.038182,25.3275 115.644019,25.6375 C116.343158,25.87 116.935311,26.35 117.311005,26.9875 C116.186411,29.16875 115.321818,31.47625 114.735885,33.8625 C113.977033,36.32875 113.661053,38.91 113.802871,41.4875 C113.896172,42.48875 114.14,43.47125 114.524402,44.4 C114.79933,45.245 115.637799,45.7725 116.514833,45.65 C119.002871,45.4075 122.129091,40.61625 125.894737,31.275 C126.015407,29.715 126.219426,28.1625 126.504306,26.625 C126.596364,25.94 126.842679,25.28625 127.225837,24.7125 C127.55799,24.38375 128.003349,24.195 128.469856,24.1875 C129.233684,24.06875 130.017416,24.19 130.709091,24.5375 C131.262679,24.855 131.614737,25.435 131.642105,26.075 C131.603541,26.54 131.521435,27.00125 131.393301,27.45 C131.001435,29.51125 130.793684,31.6025 130.771292,33.7 C130.702871,36.2025 130.78622,38.7075 131.020096,41.2 C131.074833,42.18125 131.255215,43.1525 131.555024,44.0875 C131.688134,44.6075 132.18201,44.9475 132.711962,44.8875 C133.997033,44.7625 135.557033,43.14625 137.389474,40.03625 C139.323923,36.70375 140.963541,33.2075 142.290909,29.5875 C141.958756,26.05375 142.088134,23.55375 142.676555,22.0875 C143.053493,20.8 144.16067,19.86375 145.488038,19.7125 C146.424785,19.55875 147.378947,19.87625 148.038278,20.5625 C148.594354,21.11375 148.952632,21.83375 149.058373,22.6125 C149.10067,23.14 149.00488,23.67 148.784689,24.15 C148.560766,24.675 148.407751,25.04125 148.324402,25.25 C147.512057,27.41375 147.218469,29.73875 147.466029,32.0375 C147.814354,35.72 149.058373,37.45875 151.198086,37.25 C152.248038,37.0975 153.199713,36.5475 153.860287,35.7125 C154.948804,34.30375 155.789761,32.71875 156.348325,31.025 L157.866029,32.0125 C157.332344,34.08375 156.282392,35.98375 154.818182,37.53625 C153.735885,38.64625 152.310239,39.3525 150.77512,39.5375 C149.263636,39.70125 147.750909,39.25125 146.570335,38.2875 C145.191962,37.13625 144.093493,35.68125 143.360766,34.0375 C141.741053,37.71 139.729474,41.1975 137.364593,44.4375 C135.233589,47.27875 133.077703,48.8 130.895694,49 C129.531005,49.15 128.212344,48.4525 127.561722,47.2375" id="Fill-5" fill="#000105"></path>
                    <path d="M167.457416,38.5 C169.956651,35.11125 172.26555,31.585 174.374163,27.9375 L175.618182,25.775 C175.710239,25.53875 175.926699,25.375 176.17799,25.35 L176.488995,25.35 C176.66689,24.4275 176.704211,23.48375 176.600957,22.55 C176.360861,19.9575 175.198947,18.7625 173.117703,18.9625 C171.035215,19.1625 168.896746,20.5625 166.698565,23.1625 C164.481722,25.825 162.723923,28.84125 161.498565,32.0875 C160.31799,34.76375 159.756938,37.675 159.856459,40.6 C159.866411,41.24125 160.070431,41.865 160.441148,42.3875 C160.775789,42.7275 161.251005,42.89 161.722488,42.825 C163.471579,42.66625 165.383636,41.225 167.457416,38.5 Z M156.037321,45.4875 C154.690048,44.29875 153.892632,42.60125 153.835407,40.8 C153.6911,37.325 154.467368,33.87375 156.087081,30.8 C157.818756,27.065 160.265742,23.70875 163.289952,20.925 C165.840191,18.36125 169.165455,16.72 172.744498,16.2625 C174.696364,16.00625 176.676842,16.41625 178.367464,17.425 C179.851579,18.2725 180.824402,19.8025 180.967464,21.5125 C181.183923,23.80375 179.881435,25.13375 177.061244,25.5 C178.894928,25.88375 179.856555,26.54625 179.947368,27.4875 C179.936172,28.045 179.808038,28.59375 179.574163,29.1 C179.29177,29.8325 178.964593,30.59125 178.591388,31.375 C178.009187,32.53625 177.494163,33.72875 177.048804,34.95 C176.712919,35.8375 176.572344,36.79 176.638278,37.7375 C176.680574,38.4175 176.936842,39.065 177.372249,39.5875 C177.8089,40.08 178.465742,40.315 179.113876,40.2125 C180.499713,40.08 182.177895,38.9425 184.152153,36.8 C186.497129,34.03375 188.344498,30.8775 189.613397,27.475 L191.155981,28.725 C189.931866,32.6325 187.920287,36.24375 185.24689,39.3375 C183.28756,41.81125 180.461148,43.43875 177.347368,43.8875 C175.60823,44.15375 173.846699,43.5775 172.595215,42.3375 C171.430813,41.16875 170.716746,39.6225 170.579904,37.975 C169.092057,40.3 167.374067,42.47 165.454545,44.45 C164.143349,45.77 162.422871,46.59875 160.57799,46.8 C158.949569,47.0075 157.307464,46.5325 156.037321,45.4875 L156.037321,45.4875 Z" id="Fill-6" fill="#000105"></path>
                    <path d="M209.169378,38.625 C208.155502,37.6975 207.555885,36.4 207.502392,35.025 C207.4489,34.19 207.489952,33.35 207.626794,32.525 C207.768612,31.56625 207.921627,30.61625 208.087081,29.675 C208.252536,28.73375 208.422967,27.6875 208.597129,26.5375 C208.724019,25.5675 208.753876,24.5875 208.684211,23.6125 C208.451579,20.9875 207.345646,19.775 205.362679,19.975 C203.379713,20.175 201.50622,21.45 199.739713,23.8 C197.842584,26.21 196.209187,28.81625 194.863158,31.575 C193.477321,34.36625 191.931005,37.7 190.222967,41.575 C189.436746,41.6625 188.641818,41.59125 187.884211,41.3625 C187.197512,41.16 186.585455,40.755 186.130144,40.2 C186.269474,39.18 186.508325,38.175 186.839234,37.2 C187.775981,33.64125 188.51866,30.4125 189.066029,27.5125 C189.583541,24.9975 189.790048,22.42875 189.675598,19.8625 C190.048804,19.34 190.516555,18.89375 191.056459,18.55 C191.616268,18.15375 192.26689,17.905 192.947368,17.825 C193.911483,17.60125 194.87311,18.205 195.095789,19.17375 C195.135598,19.35 195.150526,19.5325 195.136842,19.7125 C195.169187,21.1475 195.069665,22.58375 194.838278,24 C194.564593,26.0575 194.178947,28.25 193.68134,30.575 C195.493876,26.71875 197.744306,23.08625 200.386603,19.75 C202.82488,16.74125 205.312919,15.10375 207.850718,14.8375 C209.522679,14.54625 211.215789,15.2175 212.242105,16.575 C213.328134,18.02375 213.960096,19.76375 214.058373,21.575 C214.166603,22.69875 214.13799,23.8325 213.971292,24.95 C213.746124,26.2425 213.442584,27.52 213.063158,28.775 C212.723541,30 212.466029,31.05375 212.291866,31.9375 C212.118947,32.7975 212.069187,33.67625 212.142584,34.55 C212.316746,36.5925 213.146507,37.53375 214.630622,37.375 C216.2889,37.2 217.947177,35.8175 219.606699,33.225 C221.364498,30.2325 222.811292,27.06625 223.923445,23.775 L224.831579,24.7375 C222.053684,34.17125 218.163636,39.1425 213.162679,39.65 C211.746986,39.8925 210.295215,39.52 209.169378,38.625" id="Fill-7" fill="#000105"></path>
                    <path d="M243.827751,35.1 C242.81512,34.1725 242.214258,32.87625 242.160766,31.5 C242.106029,30.66375 242.147081,29.82625 242.285167,29 C242.42201,28.0375 242.583732,27.0875 242.745455,26.15 C242.907177,25.2125 243.1311,24.1125 243.255502,23.0125 C243.383636,22.0425 243.412249,21.0625 243.342584,20.0875 C243.111196,17.4625 242.002775,16.25 240.021053,16.45 C238.03933,16.65 236.160861,17.94125 234.385646,20.325 C232.492249,22.71875 230.857608,25.30875 229.509091,28.05 C228.124498,30.8425 226.578182,34.175 224.8689,38.05 C224.082679,38.13875 223.287751,38.06625 222.530144,37.8375 C221.842201,37.635 221.232632,37.23 220.776077,36.675 C220.916651,35.655 221.153014,34.65 221.485167,33.675 C222.421914,30.11625 223.164593,26.8875 223.711962,23.9875 C224.230718,21.47375 224.435981,18.9025 224.321531,16.3375 C224.693493,15.815 225.162488,15.37 225.702392,15.025 C226.262201,14.6275 226.911579,14.37875 227.593301,14.3 C228.557416,14.07625 229.519043,14.68 229.741722,15.64875 C229.782775,15.825 229.796459,16.00625 229.782775,16.1875 C229.81512,17.6225 229.714354,19.0575 229.484211,20.475 C229.210526,22.53375 228.82488,24.725 228.327273,27.05 C230.139809,23.19375 232.390239,19.5625 235.032536,16.225 C237.470813,13.2175 239.958852,11.58375 242.496651,11.325 C244.135024,11.0625 245.784593,11.72 246.800957,13.0375 C247.88823,14.48625 248.518947,16.22625 248.617225,18.0375 C248.722967,19.17875 248.684402,20.33 248.505263,21.4625 C248.280096,22.755 247.976555,24.0325 247.597129,25.2875 C247.257512,26.5125 247,27.5675 246.825837,28.45 C246.652919,29.30875 246.603158,30.18875 246.676555,31.0625 C246.850718,33.10375 247.680478,34.04625 249.164593,33.8875 C250.822871,33.7125 252.482392,32.32875 254.14067,29.7375 C255.925837,26.74375 257.396268,23.5725 258.532057,20.275 L259.440191,21.2375 C256.678469,30.62875 252.797129,35.5875 247.796172,36.1125 C246.391675,36.35125 244.949856,35.98375 243.827751,35.1" id="Fill-8" fill="#000105"></path>
                </g>
            </g>
        </g>
    </g>
</svg>