<?xml version="1.0" encoding="UTF-8" standalone="no"?>
<svg width="34px" height="34px" viewBox="0 0 34 34" version="1.1" xmlns="http://www.w3.org/2000/svg" xmlns:xlink="http://www.w3.org/1999/xlink">
    <!-- Generator: Sketch 43.2 (39069) - http://www.bohemiancoding.com/sketch -->
    <title>icone_mastodon</title>
    <desc>Created with Sketch.</desc>
    <defs></defs>
    <g id="Symbols" stroke="none" stroke-width="1" fill="none" fill-rule="evenodd">
        <g id="footer/logoReseauxSociaux-Copy-3" transform="translate(-3.000000, -3.000000)" fill-rule="nonzero" fill="#FFFFFF">
            <g id="icone_mastodon" transform="translate(3.000000, 3.000000)">
                <path d="M17,0 C7.61115925,-5.74900688e-16 1.14980138e-15,7.61115925 0,17 C-1.14980138e-15,26.3888407 7.61115925,34 17,34 C26.3888407,34 34,26.3888407 34,17 C34,7.61115925 26.3888407,5.74900688e-16 17,0 Z M16.915,9.2174 L20.56116,9.2174 C19.86212,9.709414 19.635,11.157576 19.635,11.900918 L19.635,18.773848 C19.635,20.260532 18.438132,21.4574 16.915,21.4574 C15.391868,21.4574 14.195,20.260532 14.195,18.773848 L14.195,11.900918 C14.195,10.414268 15.391868,9.2174 16.915,9.2174 L16.915,9.2174 Z M7.531,10.88 C9.054132,10.88 10.251,12.076868 10.251,13.563552 L10.251,20.436448 C10.251,21.17979 10.47812,22.627952 11.17716,23.12 L7.531,23.12 C6.007868,23.12 4.811,21.923132 4.811,20.436448 L4.811,13.563552 C4.811,12.076868 6.007868,10.88 7.531,10.88 Z M26.23916,10.88 C27.762326,10.88 28.95916,12.076868 28.95916,13.563552 L28.95916,20.436448 C28.95916,21.923132 27.762326,23.12 26.23916,23.12 L22.593,23.12 C23.29204,22.627952 23.51916,21.17979 23.51916,20.436448 L23.51916,13.563552 C23.51916,12.076868 24.716028,10.88 26.23916,10.88 Z" id="Shape"></path>
                <g id="Group-2" transform="translate(6.000000, 11.000000)">
                    <circle id="Oval" cx="1.531" cy="2.957" r="1"></circle>
                    <circle id="Oval" cx="1.531" cy="6.017" r="1"></circle>
                    <circle id="Oval" cx="1.531" cy="9.077" r="1"></circle>
                    <circle id="Oval" transform="translate(10.915000, 7.377000) scale(-1, 1) rotate(-180.000000) translate(-10.915000, -7.377000) " cx="10.915" cy="7.377" r="1"></circle>
                    <circle id="Oval" transform="translate(10.915000, 4.317000) scale(-1, 1) rotate(-180.000000) translate(-10.915000, -4.317000) " cx="10.915" cy="4.317" r="1"></circle>
                    <circle id="Oval" transform="translate(10.915000, 1.257000) scale(-1, 1) rotate(-180.000000) translate(-10.915000, -1.257000) " cx="10.915" cy="1.257" r="1"></circle>
                    <circle id="Oval" transform="translate(20.231000, 2.957000) scale(-1, 1) translate(-20.231000, -2.957000) " cx="20.231" cy="2.957" r="1"></circle>
                    <circle id="Oval" transform="translate(20.231000, 6.017000) scale(-1, 1) translate(-20.231000, -6.017000) " cx="20.231" cy="6.017" r="1"></circle>
                    <circle id="Oval" transform="translate(20.231000, 9.077000) scale(-1, 1) translate(-20.231000, -9.077000) " cx="20.231" cy="9.077" r="1"></circle>
                </g>
            </g>
        </g>
    </g>
</svg>