<?xml version="1.0" encoding="UTF-8" standalone="no"?>
<svg width="35px" height="29px" viewBox="0 0 35 29" version="1.1" xmlns="http://www.w3.org/2000/svg" xmlns:xlink="http://www.w3.org/1999/xlink">
    <!-- Generator: Sketch 43.2 (39069) - http://www.bohemiancoding.com/sketch -->
    <title>icone_twitter</title>
    <desc>Created with Sketch.</desc>
    <defs></defs>
    <g id="Symbols" stroke="none" stroke-width="1" fill="none" fill-rule="evenodd">
        <g id="footer/logoReseauxSociaux-Copy-2" transform="translate(-3.000000, -6.000000)" fill-rule="nonzero" fill="#FFFFFF">
            <path d="M38,9.36711292 C36.7122244,9.93822012 35.3283038,10.3242072 33.8757635,10.4978053 C35.3583891,9.60907494 36.4968908,8.2018545 37.033048,6.52514723 C35.645671,7.34794615 34.1088921,7.94555397 32.4732799,8.26765793 C31.1633563,6.87208749 29.2971762,6 27.2319215,6 C23.2661765,6 20.051026,9.21502249 20.051026,13.1805114 C20.051026,13.7432971 20.114653,14.2913603 20.2370423,14.8168916 C14.2691576,14.5174476 8.97812649,11.658711 5.43651926,7.31440433 C4.81842788,8.37494056 4.46431838,9.60843484 4.46431838,10.9243754 C4.46431838,13.4155602 5.73212261,15.613446 7.65885731,16.9010937 C6.48169283,16.8638392 5.37455649,16.5408391 4.40632429,16.0030177 C4.40581221,16.0329749 4.40581221,16.0630601 4.40581221,16.0932733 C4.40581221,19.5724057 6.88099418,22.4746699 10.1659168,23.1342404 C9.56331614,23.298365 8.92896594,23.3860602 8.27400418,23.3860602 C7.81133179,23.3860602 7.36146164,23.3411243 6.9231135,23.2572698 C7.83680822,26.1101175 10.4886609,28.1861261 13.6308387,28.2441201 C11.1733238,30.1699586 8.07710596,31.3179341 4.71293756,31.3179341 C4.13338088,31.3179341 3.56176159,31.2840082 3,31.2176926 C6.17776803,33.2550385 9.95224771,34.4437251 14.0073521,34.4437251 C27.2151504,34.4437251 34.4376531,23.5020483 34.4376531,14.013168 C34.4376531,13.7018179 34.4307399,13.3921321 34.4169136,13.0842386 C35.8197812,12.0718388 37.0372728,10.8071071 38,9.36711292" id="icone_twitter"></path>
        </g>
    </g>
</svg>