<?xml version="1.0" encoding="UTF-8" standalone="no"?>
<svg width="140px" height="44px" viewBox="0 0 140 44" version="1.1" xmlns="http://www.w3.org/2000/svg" xmlns:xlink="http://www.w3.org/1999/xlink">
    <!-- Generator: Sketch 43.2 (39069) - http://www.bohemiancoding.com/sketch -->
    <title>logo</title>
    <desc>Created with Sketch.</desc>
    <defs></defs>
    <g id="Page-1" stroke="none" stroke-width="1" fill="none" fill-rule="evenodd">
        <g id="logo" fill-rule="nonzero">
            <g transform="translate(0.000000, 9.000000)">
                <path d="M10.194817,5.55489933 C10.3620548,5.12960235 10.4409911,4.67559615 10.42895,4.219587 C10.3754338,3.63672316 9.96068408,3.38034318 9.18470063,3.45178239 C8.21137657,3.51854801 7.30160287,3.9558628 6.64268589,4.67359318 C5.97373464,5.41469154 5.49811031,6.30868314 5.25795681,7.27745224 C4.99372107,8.26892165 4.90742636,9.29978278 5.00375533,10.3219644 C5.07466416,10.9528995 5.19106168,11.5778257 5.35160998,12.1914017 C4.50605561,12.2902148 3.67254235,11.9310158 3.1641394,11.2500065 C2.59352398,10.5703325 2.24232459,9.7350946 2.15402302,8.85312081 C2.07374887,7.66602814 2.40487974,6.487615 3.09055476,5.51483996 C3.84513178,4.36046244 4.84521389,3.38701975 6.02056123,2.66394812 C7.13904772,1.93086165 8.41607565,1.47351716 9.74661968,1.32863578 C10.6838204,1.20111345 11.635738,1.41943702 12.4224247,1.94287945 C13.3141366,2.68798374 13.9563299,3.68746502 14.2620406,4.80712442 C14.8674415,6.74866855 15.24473,8.75430769 15.3858787,10.7826471 C15.559806,12.6434049 15.6848999,15.536359 15.7604914,19.4621773 C15.8180212,22.3557992 15.8855853,24.1998655 15.9611768,24.997047 C16.6508655,22.1628466 17.5332122,19.379388 18.6035342,16.664698 C19.7902537,13.5754528 20.9916902,10.707202 22.2091814,8.05860997 C23.4266727,5.41001794 24.3899625,3.43642631 25.0990508,2.13649974 C25.3392043,1.60905137 25.6475909,1.11565346 26.015514,0.66765617 C26.3031631,0.374555111 26.689148,0.198961538 27.099215,0.173590604 C27.7099675,0.173590604 28.3173752,0.267730124 28.8986939,0.454006195 C28.2330874,2.80415591 27.7594699,5.2050475 27.4805173,7.63131002 C26.9587352,11.2233002 26.5687367,14.9822045 26.3098526,18.9080228 C26.0502994,22.049345 26.0329068,25.204688 26.2563365,28.3486809 C26.2991493,28.9635923 26.3974852,29.57383 26.5506751,30.1713823 C26.6677416,30.5639642 26.8175866,30.9458635 26.9988724,31.3130743 C27.1814961,31.6822882 27.3219758,31.9580302 27.4203117,32.140968 C26.5212412,32.2831787 25.6007642,32.1957158 24.7445066,31.8872586 C24.1170304,31.5928223 23.6353855,31.0586974 23.4066041,30.405062 C23.0674459,29.4175984 22.8627468,28.3894079 22.7978585,27.3471967 C22.5476708,24.5069873 22.5677393,21.6507542 22.8580642,18.8145509 C23.148389,15.7833919 23.6501024,12.062544 24.3632045,7.6513397 C22.5336228,11.0717423 21.0090829,14.6463734 19.8076465,18.3338384 C18.2336041,22.9052802 17.0983939,26.6434871 16.4026846,29.550462 L16.1284146,29.6572871 C15.9591699,29.7520942 15.7725325,29.8115156 15.5798746,29.8308777 C14.6874936,29.91567 14.0613553,29.4703433 13.7001215,28.4955653 C13.213794,26.9412617 12.9194555,25.3342133 12.8237954,23.7084706 C12.6946879,22.3731583 12.5341396,20.0944477 12.3421505,16.8716714 C12.1327688,13.5113579 11.9561656,11.0630627 11.813679,9.52745353 L11.5527881,7.17730382 L8.34851157,17.1921463 C6.79654467,22.0566892 5.64394168,25.591261 4.89003362,27.7945264 C4.32075611,29.5611446 3.54611056,31.2556559 2.58215182,32.842007 C1.8195474,33.9990551 0.958607138,34.624649 0,34.7181208 C0.227443425,33.7299897 1.45363106,30.193415 3.67923186,24.1090643 C6.92163856,14.9000828 9.09305432,8.71491598 10.194817,5.55489933 Z" id="Fill-1" fill="#000000"></path>
                <path d="M37.3207901,25.544525 C38.6647131,23.7345092 39.9062867,21.8510511 41.040159,19.9028304 L41.7091103,18.7477852 C41.7586127,18.6215982 41.8750102,18.5341353 42.0101384,18.5207821 L42.1773762,18.5207821 C42.2730362,18.0280519 42.2931048,17.5239715 42.2375818,17.0252323 C42.1084742,15.6405134 41.4836737,15.0022341 40.3645183,15.1090591 C39.2453628,15.2158841 38.0787119,15.9549795 36.8659033,17.3256776 C35.690556,18.7511236 34.7613827,20.3621778 34.1165136,22.0927427 C33.4816789,23.5221945 33.1799819,25.0771657 33.233498,26.6394812 C33.2388496,26.9819888 33.3485576,27.3151492 33.5479051,27.5942295 C33.7372182,27.7878498 34.0101504,27.8753127 34.2770619,27.8279092 C35.1908493,27.7431168 36.2063174,26.9819888 37.3207901,25.544525 Z M31.1798176,29.2500168 C30.4546745,28.6150758 30.0265457,27.7083987 29.9957739,26.7463061 C29.9181756,24.890222 30.3362702,23.0468233 31.2065757,21.4050567 C32.1377559,19.4094325 33.4542519,17.6174434 35.0798035,16.130573 C36.443795,14.7658839 38.2218674,13.8905866 40.1370749,13.6402155 C41.1859904,13.5033461 42.2509609,13.7216696 43.1607345,14.2611358 C43.9567865,14.7158096 44.4772305,15.5323532 44.5521531,16.4443715 C44.6678817,17.6681852 43.9701655,18.3785714 42.4583357,18.5741946 C43.4437009,18.7784974 43.9614691,19.1323552 44.0103027,19.6357679 C44.003613,19.9335426 43.9353801,20.2266436 43.8096172,20.4970444 C43.6577653,20.8882909 43.4818311,21.2942259 43.2811458,21.7121786 C42.9674076,22.3317636 42.6904618,22.9700428 42.4516462,23.6216752 C42.2710294,24.0963788 42.1954378,24.6044652 42.2308922,25.1105485 C42.2536366,25.4737535 42.3921095,25.8195994 42.6255735,26.0986797 C42.8603754,26.3624038 43.2135816,26.4872556 43.5621052,26.4325077 C44.306648,26.3617362 45.2104011,25.7535014 46.2713578,24.6098064 C47.5323309,23.1322833 48.5257235,21.4464515 49.2080538,19.6290913 L50.0375533,20.2967475 C49.3786364,22.3838407 48.2969422,24.3126994 46.8600349,25.9651485 C45.8071056,27.28644 44.2872484,28.1557283 42.6121945,28.3947492 C41.6770007,28.5369599 40.7297657,28.2298381 40.0568008,27.5675233 C39.4306624,26.9432647 39.0466844,26.1173741 38.9730997,25.2374032 C38.1629997,26.4739024 37.2311507,27.6256093 36.1902625,28.6758325 C35.4851879,29.3808774 34.5600283,29.8235335 33.5679736,29.9310261 C32.712385,30.0325098 31.8527826,29.78748 31.1798176,29.2500168 L31.1798176,29.2500168 Z" id="Fill-3" fill="#000000"></path>
                <path d="M53.1414872,7.71810531 C53.1214185,7.03776368 53.4492047,6.39414313 54.0111238,6.00890552 C54.6058214,5.49814856 55.3436747,5.18301485 56.1250097,5.1075697 C57.2709231,5.00074471 57.891041,5.44540372 57.9846942,6.44288203 C57.9974042,7.09718508 57.7151068,7.72211125 57.2154002,8.14540526 C56.7130178,8.69221567 56.0280117,9.0360586 55.2888206,9.11350671 C54.7743971,9.17292811 54.2546221,9.0681061 53.8037489,8.81306144 C53.4130813,8.59139959 53.1602178,8.17544979 53.1414872,7.71810531 Z M49.5559084,26.7596593 C48.8655507,26.1187093 48.4508009,25.2354002 48.3986228,24.296008 C48.3397551,22.80847 48.5043171,21.3215998 48.8869572,19.8828008 C49.2655836,18.1355445 49.877674,16.4470421 50.7065046,14.8620264 C51.495867,13.3931828 52.3568073,12.614028 53.2886564,12.5252297 C53.6023945,12.4845027 53.9201464,12.5632861 54.1783616,12.7455563 C54.4352389,12.9445178 54.5904355,13.2483014 54.5998009,13.57345 C54.6004698,13.9219664 54.5222025,14.266477 54.3723574,14.5816108 C54.1984301,15.0269374 53.9087742,15.6498606 53.5027208,16.451048 C52.8739067,17.7256037 52.3186771,19.0335421 51.8370322,20.3701898 C51.4650953,21.3649974 51.3119055,22.4285737 51.3888349,23.488144 C51.3747869,24.088367 51.5875134,24.6718985 51.9842015,25.1239017 C52.3895859,25.4109938 52.8926373,25.5238277 53.3823096,25.4377001 C55.4874992,25.2420768 57.3873207,23.0161111 59.0817742,18.7611384 L59.7507255,19.3419993 C59.1921512,21.4798343 58.150594,23.4621054 56.7069973,25.1372547 C55.585166,26.4732348 53.9930621,27.3285024 52.2584715,27.5274639 C51.2884922,27.6796895 50.2997822,27.3992739 49.5559084,26.7596593 L49.5559084,26.7596593 Z" id="Fill-4" fill="#000000"></path>
                <path d="M68.594261,25.2307266 C68.1112781,24.3400733 67.8135948,23.3612893 67.7179348,22.3531285 L67.6644187,21.3917037 C67.6155853,20.8615846 67.5861515,20.2740473 67.5774551,19.6290913 C66.8636841,21.3536472 65.9666205,22.9967491 64.9016501,24.5296877 C63.9738147,25.8115875 62.9636983,26.5032793 61.8713009,26.6060983 C60.9722304,26.6842142 60.0952354,26.3056531 59.5366611,25.5979375 C58.8436276,24.8040943 58.4302157,23.8046131 58.3593069,22.7537223 C58.2837154,21.51522 58.3827201,20.2720443 58.6536454,19.0615836 C58.9011574,17.7289419 59.2844664,16.4243417 59.7975521,15.1691482 C60.2705006,14.0521594 60.7160221,13.4733015 61.1354545,13.4332422 C61.5007019,13.439251 61.8599288,13.5280493 62.185708,13.693628 C62.5616586,13.8178121 62.8800794,14.074192 63.0821027,14.4146967 C62.4773708,15.5797567 62.0124497,16.81225 61.6973736,18.0868056 C61.2893133,19.4040912 61.1193998,20.7828013 61.1956601,22.1595082 C61.2458315,22.6943009 61.3769459,23.2190786 61.5836519,23.7151471 C61.7314901,24.1664827 62.1823632,24.4482336 62.6539738,24.3828033 C63.9918763,24.253278 65.6729509,21.6941519 67.6978663,16.7047573 C67.7627545,15.8715224 67.8724625,15.0422935 68.0256524,14.2210764 C68.0751548,13.8552008 68.2076071,13.5060167 68.4136442,13.1995625 C68.5922541,13.0239689 68.8317386,12.9231528 69.0825954,12.9191468 C69.4933314,12.8557195 69.9147707,12.9204822 70.2867076,13.1060906 C70.5843909,13.2756752 70.7737041,13.5854678 70.7884211,13.9273077 C70.7676836,14.1756758 70.7235328,14.4220409 70.6546308,14.6617295 C70.4439111,15.7626945 70.3321963,16.8796833 70.3201551,18.0000103 C70.2833628,19.3366579 70.3281826,20.674641 70.4539454,22.0059474 C70.4833793,22.5300575 70.5803772,23.0488263 70.7415944,23.5482331 C70.8131722,23.8259781 71.0787459,24.0075805 71.3637192,23.9755331 C72.0547458,23.9087674 72.8936106,23.045488 73.8789758,21.3843595 C74.919195,19.6043881 75.8008728,17.7369538 76.5146438,15.8034215 C76.3360337,13.9159576 76.4056047,12.5806452 76.7220186,11.7974846 C76.9247108,11.1097987 77.5200774,10.6097242 78.2338484,10.5289378 C78.7375688,10.4468161 79.2506543,10.6164007 79.6051985,10.982944 C79.9042197,11.2773804 80.0968777,11.6619503 80.1537385,12.0779001 C80.1764829,12.359651 80.1249736,12.6427372 80.0065692,12.8991172 C79.8861581,13.1795327 79.803877,13.375156 79.7590573,13.4866547 C79.3222321,14.6423675 79.1643596,15.8842079 79.297481,17.1120276 C79.4847873,19.0789426 80.1537385,20.0076524 81.3043346,19.8961538 C81.8689296,19.8146998 82.3806772,19.5209311 82.7358903,19.0749368 C83.3212227,18.3224883 83.7734338,17.4759002 84.0737928,16.5712261 L84.8899134,17.0986745 C84.6029332,18.2049807 84.0383384,19.2198182 83.2509829,20.0490472 C82.6689953,20.6419258 81.9023771,21.0191516 81.0768913,21.1179647 C80.2641155,21.2054276 79.4506708,20.9650714 78.815836,20.4503085 C78.074638,19.8353971 77.4839541,19.0582454 77.0899419,18.1802775 C76.2189672,20.1418513 75.1372731,22.004612 73.8655968,23.7351768 C72.7196833,25.2527593 71.5603908,26.0652968 70.3870503,26.1721218 C69.6532108,26.2522405 68.9441225,25.8796884 68.594261,25.2307266" id="Fill-5" fill="#000105"></path>
                <path d="M90.0475275,20.56381 C91.3914505,18.7537942 92.633024,16.8703361 93.7668964,14.9221154 L94.4358477,13.7670702 C94.48535,13.6408832 94.6017476,13.5534202 94.7368758,13.5400671 L94.9041136,13.5400671 C94.9997735,13.0473369 95.0198421,12.5432565 94.9643191,12.0445173 C94.8352116,10.6597984 94.2104111,10.0215191 93.0912556,10.1283441 C91.9714312,10.2351691 90.8215041,10.982944 89.6394672,12.3716689 C88.4473961,13.7937765 87.5021679,15.4048308 86.843251,17.1387338 C86.2084162,18.5681857 85.9067193,20.1231569 85.9602354,21.6854724 C85.965587,22.02798 86.075295,22.3611404 86.2746424,22.6402208 C86.4545904,22.8218232 86.7101297,22.9086185 86.9636623,22.8739003 C87.9042077,22.789108 88.9323858,22.0193005 90.0475275,20.56381 Z M83.906555,24.296008 C83.1820808,23.661067 82.7532831,22.7543899 82.7225113,21.7922974 C82.644913,19.9362132 83.0623385,18.0928146 83.9333131,16.451048 C84.8644932,14.4560913 86.1803203,12.6634345 87.8065409,11.1765643 C89.1778909,9.80720147 90.9659976,8.93056892 92.8905703,8.68620676 C93.9401548,8.54933725 95.0051252,8.76832847 95.91423,9.307127 C96.7122888,9.75979788 97.2354087,10.577009 97.312338,11.4903626 C97.4287355,12.7141765 96.7283436,13.4245626 95.2118311,13.6201859 C96.1978653,13.8251563 96.7149645,14.1790141 96.763798,14.6817592 C96.7577774,14.9795338 96.6888755,15.2726349 96.5631126,15.5430356 C96.4112607,15.9342821 96.2353265,16.3395494 96.0346411,16.7581699 C95.721572,17.3784225 95.4446261,18.0153665 95.2051416,18.6676665 C95.0245248,19.1417023 94.9489332,19.6504563 94.9843877,20.1565397 C95.007132,20.5197447 95.1449359,20.8655906 95.3790689,21.1446709 C95.6138708,21.4077274 95.967077,21.5332468 96.3156006,21.478499 C97.0608124,21.4077274 97.9632276,20.8001603 99.0248532,19.6557977 C100.285826,18.1782745 101.279219,16.4924426 101.961549,14.6750826 L102.791049,15.3427388 C102.132801,17.429832 101.051107,19.3586906 99.6135303,21.0111396 C98.5599321,22.3324312 97.0400749,23.2017195 95.3656899,23.4414082 C94.4304961,23.5836188 93.4832611,23.2758294 92.8102962,22.6135144 C92.1841578,21.989256 91.8001798,21.1633652 91.7265951,20.2833945 C90.9265294,21.5252349 90.0027077,22.684286 88.9705159,23.7418534 C88.2654413,24.4468983 87.3402818,24.8895544 86.3482271,24.997047 C85.4725699,25.1078779 84.5895542,24.8541686 83.906555,24.296008 L83.906555,24.296008 Z" id="Fill-6" fill="#000105"></path>
                <path d="M112.477463,20.6305757 C111.932267,20.1351747 111.609833,19.4421477 111.581068,18.7077259 C111.552303,18.2617316 111.574378,17.8130666 111.647963,17.3724135 C111.724224,16.8603213 111.806505,16.3529026 111.895475,15.8501574 C111.984446,15.3474124 112.076092,14.7885841 112.169745,14.1743405 C112.237978,13.6562393 112.254033,13.1327968 112.216571,12.612025 C112.091478,11.2099471 111.49678,10.5623206 110.430472,10.6691456 C109.364164,10.7759706 108.356723,11.4569798 107.406812,12.7121735 C106.386662,13.9994145 105.508329,15.3914777 104.784524,16.8649949 C104.039312,18.3558711 103.207805,20.1365101 102.289335,22.2062442 C101.866558,22.2529801 101.439098,22.2149237 101.031707,22.0927427 C100.662446,21.9845824 100.333322,21.7682617 100.088486,21.4718224 C100.163408,20.9270149 100.291847,20.3902194 100.469788,19.8694476 C100.973508,17.9686305 101.372872,16.2440745 101.667211,14.6951123 C101.945494,13.3517881 102.05654,11.9797546 101.994997,10.6090565 C102.195682,10.3299763 102.447208,10.091623 102.737533,9.90801756 C103.038561,9.69637055 103.388422,9.56350697 103.754338,9.52077698 C104.272776,9.40126653 104.789875,9.72374445 104.909617,10.241178 C104.931024,10.3353175 104.939051,10.4327953 104.931693,10.5289378 C104.949085,11.295407 104.895569,12.062544 104.771144,12.8189985 C104.623975,13.9179605 104.4166,15.0890294 104.14902,16.33087 C105.123682,14.2711506 106.333815,12.3309418 107.754667,10.5489675 C109.065812,8.94191908 110.403713,8.0672895 111.768375,7.92507873 C112.667445,7.76951485 113.577888,8.1280462 114.129772,8.85312081 C114.713767,9.62693431 115.053594,10.5563117 115.106442,11.5237455 C115.16464,12.1239684 115.149254,12.7295325 115.059614,13.3264171 C114.938535,14.0167736 114.77531,14.6991182 114.57128,15.369445 C114.388656,16.023748 114.250183,16.5865822 114.156531,17.0586151 C114.063546,17.5179625 114.036788,17.9873249 114.076256,18.4540165 C114.16991,19.5449667 114.6161,20.0477118 115.414158,19.9629195 C116.30587,19.8694476 117.197582,19.1310199 118.089964,17.746301 C119.035192,16.1479321 119.813182,14.4567591 120.411225,12.6988203 L120.899559,13.2129156 C119.405791,18.2517167 117.31398,20.9069853 114.624796,21.1780536 C113.86353,21.307579 113.082864,21.1086175 112.477463,20.6305757" id="Fill-7" fill="#000105"></path>
                <path d="M131.114444,18.7477852 C130.569918,18.2523844 130.246815,17.5600249 130.21805,16.8249354 C130.188617,16.3782735 130.210691,15.9309439 130.284945,15.4896231 C130.35853,14.9755279 130.445494,14.4681091 130.532457,13.9673671 C130.61942,13.4666249 130.739832,12.8790875 130.806727,12.29155 C130.875629,11.7734489 130.891015,11.2500065 130.853554,10.7292346 C130.729128,9.32715668 130.133093,8.6795302 129.067454,8.78635519 C128.001814,8.89318018 126.991698,9.582869 126.037104,10.8560893 C125.01896,12.1346508 124.139959,13.5180345 123.414815,14.9822045 C122.670273,16.4737484 121.838767,18.2537196 120.919628,20.3234538 C120.496851,20.3708574 120.069391,20.3321333 119.661999,20.2099522 C119.292069,20.1017919 118.964283,19.8854714 118.718778,19.589032 C118.794369,19.0442246 118.92147,18.5074291 119.10008,17.9866572 C119.6038,16.0858401 120.003164,14.3612842 120.297503,12.8123219 C120.576455,11.4696654 120.686833,10.0962966 120.625289,8.72626613 C120.825306,8.44718585 121.0775,8.20950026 121.367825,8.02522715 C121.668853,7.81291249 122.018045,7.68004892 122.384631,7.63798657 C122.903068,7.51847612 123.420167,7.84095406 123.539909,8.35838758 C123.561985,8.4525271 123.569344,8.54933725 123.561985,8.64614739 C123.579377,9.41261667 123.525193,10.179086 123.401437,10.9362081 C123.254268,12.0358377 123.046892,13.206239 122.779312,14.4480795 C123.753973,12.3883602 124.964106,10.4488191 126.384959,8.66617708 C127.696103,7.05979633 129.034006,6.18716972 130.398667,6.0489649 C131.279676,5.90875709 132.166705,6.25994424 132.713238,6.96365385 C133.297902,7.73746735 133.63706,8.66684474 133.689907,9.63427852 C133.746768,10.2438486 133.72603,10.8587599 133.629702,11.4636564 C133.508621,12.1540129 133.345397,12.8363575 133.141366,13.5066843 C132.958743,14.1609873 132.82027,14.7244892 132.726617,15.1958544 C132.633633,15.6545342 132.606875,16.1245641 132.646343,16.5912558 C132.739996,17.6815383 133.186187,18.1849511 133.984246,18.1001588 C134.875958,18.0066869 135.768338,17.2675915 136.66005,15.8835403 C137.619996,14.2845037 138.410696,12.59066 139.021449,10.8293831 L139.509783,11.3434783 C138.024711,16.3595791 135.937583,19.0081711 133.248399,19.2885867 C132.493153,19.416109 131.717839,19.2198182 131.114444,18.7477852" id="Fill-8" fill="#000105"></path>
            </g>
        </g>
    </g>
</svg>