<?xml version="1.0" encoding="UTF-8" standalone="no"?>
<svg width="140px" height="60px" viewBox="0 0 140 60" version="1.1" xmlns="http://www.w3.org/2000/svg" xmlns:xlink="http://www.w3.org/1999/xlink">
    <!-- Generator: Sketch 43.2 (39069) - http://www.bohemiancoding.com/sketch -->
    <title>logo</title>
    <desc>Created with Sketch.</desc>
    <defs></defs>
    <g id="Symbols" stroke="none" stroke-width="1" fill="none" fill-rule="evenodd">
        <g id="logo">
            <g transform="translate(20.000000, 19.000000)">
                <g>
                    <path d="M7.28201216,3.96778523 C7.40146774,3.66400168 7.45785077,3.33971154 7.44924997,3.01399071 C7.41102418,2.5976594 7.11477434,2.41453085 6.56050045,2.46555885 C5.86526898,2.51324858 5.21543062,2.82561629 4.74477564,3.33828085 C4.26695332,3.86763681 3.92722165,4.50620225 3.75568343,5.19818018 C3.56694362,5.90637261 3.50530454,6.64270199 3.57411095,7.3728317 C3.62476012,7.82349961 3.7079012,8.26987545 3.82257856,8.70814404 C3.21861115,8.77872483 2.62324454,8.5221541 2.26009957,8.0357189 C1.85251713,7.55023748 1.60166042,6.953639 1.53858787,6.32365772 C1.48124919,5.47573438 1.71777124,4.63401071 2.20753912,3.9391714 C2.74652269,3.11461603 3.46086706,2.41929982 4.30040088,1.90282008 C5.0993198,1.37918689 6.01148261,1.05251226 6.9618712,0.949025555 C7.63130027,0.857938178 8.31124143,1.01388358 8.87316048,1.38777104 C9.51009763,1.91998838 9.96880706,2.63390359 10.1871719,3.4336603 C10.6196011,4.82047754 10.8890928,6.25307692 10.9899134,7.70189081 C11.1141472,9.03100348 11.2034999,11.0973993 11.2574939,13.9015552 C11.2985866,15.968428 11.3468466,17.2856182 11.4008406,17.8550336 C11.8934754,15.8306047 12.523723,13.84242 13.2882387,11.9033557 C14.1358955,9.69675207 14.9940644,7.64800142 15.863701,5.75614997 C16.7333376,3.86429853 17.4214018,2.45459022 17.9278934,1.52607124 C18.0994317,1.14932241 18.3197077,0.796895328 18.58251,0.476897264 C18.7879736,0.267539365 19.0636771,0.142115385 19.3565822,0.123993289 C19.792834,0.123993289 20.2266966,0.191235803 20.6419242,0.324290139 C20.166491,2.00296851 19.8281928,3.71789107 19.6289409,5.45093573 C19.2562395,8.016643 18.9776691,10.7015746 18.7927518,13.5057305 C18.6073568,15.7495321 18.5949334,18.0033486 18.7545261,20.2490578 C18.7851067,20.6882802 18.8553466,21.1241643 18.9647679,21.5509874 C19.0483868,21.8314029 19.155419,22.1041882 19.2849088,22.3664817 C19.4153543,22.6302059 19.515697,22.8271644 19.5859369,22.9578343 C18.9437437,23.0594134 18.2862602,22.9969399 17.6746476,22.7766133 C17.2264503,22.5663016 16.8824182,22.1847838 16.719003,21.7179014 C16.4767471,21.0125703 16.3305334,20.2781486 16.2841847,19.5337119 C16.1054791,17.504991 16.1198138,15.4648245 16.3271887,13.4389649 C16.5345636,11.2738513 16.8929303,8.61610287 17.4022889,5.46524264 C16.0954448,7.90838733 15.0064878,10.4616953 14.1483189,13.0955989 C13.024003,16.3609144 12.2131385,19.0310622 11.7162033,21.1074729 L11.5202961,21.1837765 C11.3994071,21.2514959 11.2660947,21.2939397 11.1284818,21.3077697 C10.4910669,21.3683357 10.0438252,21.0502452 9.78580111,20.3539752 C9.43842429,19.2437584 9.22818246,18.0958667 9.15985387,16.9346218 C9.06763417,15.9808273 8.95295681,14.3531769 8.8158218,12.0511939 C8.66626342,9.65096993 8.54011832,7.90218766 8.43834217,6.80532395 L8.25199147,5.12664559 L5.96322255,12.2801045 C4.85467477,15.754778 4.03138691,18.2794721 3.49288116,19.8532331 C3.08625436,21.1151033 2.53293612,22.3254685 1.84439415,23.4585764 C1.29967671,24.2850394 0.684719384,24.7318921 0,24.7986577 C0.162459589,24.0928498 1.0383079,21.566725 2.62802276,17.2207602 C4.94402754,10.6429162 6.49503879,6.22493998 7.28201216,3.96778523 Z" id="Fill-1" fill="#000000"></path>
                    <path d="M26.6577072,18.2460893 C27.6176523,16.9532208 28.5044905,15.6078936 29.3143993,14.2163074 L29.7922216,13.3912752 C29.8275805,13.3011416 29.9107216,13.238668 30.0072417,13.2291301 L30.1266973,13.2291301 C30.1950259,12.8771799 30.2093605,12.5171225 30.1697013,12.1608802 C30.0774816,11.1717953 29.6311955,10.7158815 28.8317988,10.7921851 C28.032402,10.8684886 27.1990799,11.3964139 26.3327881,12.375484 C25.4932542,13.3936597 24.829559,14.5444128 24.3689383,15.7805305 C23.9154849,16.8015675 23.6999871,17.9122612 23.7382129,19.0282008 C23.7420354,19.2728491 23.8203983,19.5108209 23.9627893,19.7101639 C24.0980131,19.8484641 24.2929646,19.9109377 24.4836157,19.877078 C25.136321,19.816512 25.8616552,19.2728491 26.6577072,18.2460893 Z M22.2712983,20.8928691 C21.7533389,20.4393398 21.4475327,19.7917133 21.4255528,19.1045044 C21.3701254,17.77873 21.6687644,16.4620166 22.2904112,15.2893263 C22.9555399,13.8638804 23.8958942,12.5838881 25.0570025,11.5218379 C26.0312822,10.5470599 27.3013339,9.92184757 28.6693392,9.7430111 C29.4185646,9.64524716 30.1792577,9.80119257 30.8290961,10.1865256 C31.3977046,10.5112926 31.7694504,11.0945379 31.8229665,11.7459796 C31.9056298,12.6201323 31.4072611,13.127551 30.3273826,13.2672819 C31.0312149,13.4132124 31.4010494,13.665968 31.4359304,14.0255485 C31.4311522,14.2382447 31.3824143,14.4476026 31.2925837,14.640746 C31.1841181,14.9202078 31.0584508,15.2101613 30.9151041,15.508699 C30.6910054,15.9512597 30.493187,16.4071735 30.3226044,16.8726252 C30.1935924,17.2116991 30.1395985,17.574618 30.1649231,17.9361061 C30.181169,18.1955382 30.2800782,18.442571 30.4468382,18.641914 C30.6145539,18.8302885 30.866844,18.9194682 31.1157895,18.8803627 C31.6476057,18.8298116 32.2931437,18.3953582 33.0509699,17.5784331 C33.9516649,16.5230595 34.6612311,15.3188939 35.1486099,14.0207796 L35.7411095,14.4976768 C35.2704545,15.9884577 34.4978159,17.3662139 33.4714535,18.5465346 C32.7193612,19.4903143 31.6337489,20.1112345 30.4372818,20.2819637 C29.7692862,20.3835428 29.0926898,20.1641701 28.6120005,19.691088 C28.1647588,19.2451891 27.8904888,18.6552672 27.8379284,18.0267166 C27.2592855,18.9099303 26.593679,19.7325781 25.8501875,20.4827375 C25.3465628,20.986341 24.6857345,21.3025239 23.977124,21.3793043 C23.3659893,21.4517927 22.7519876,21.2767714 22.2712983,20.8928691 L22.2712983,20.8928691 Z" id="Fill-3" fill="#000000"></path>
                    <path d="M37.9582051,5.51293237 C37.9438704,5.02697406 38.1780034,4.5672451 38.5793741,4.29207537 C39.0041582,3.92724897 39.5311962,3.70215346 40.0892926,3.64826407 C40.9078023,3.57196051 41.3507436,3.88957408 41.4176387,4.6020586 C41.4267173,5.06941791 41.2250763,5.51579375 40.868143,5.81814662 C40.5092985,6.20872548 40.0200084,6.45432757 39.4920147,6.50964765 C39.1245694,6.55209151 38.7533014,6.47721864 38.4312492,6.29504388 C38.152201,6.13671399 37.9715841,5.839607 37.9582051,5.51293237 Z M35.3970775,19.1140423 C34.9039648,18.656221 34.607715,18.0252859 34.5704448,17.3542914 C34.5283965,16.2917643 34.6459408,15.2297141 34.9192551,14.2020005 C35.1897026,12.9539604 35.62691,11.7478872 36.2189319,10.6157331 C36.7827622,9.56655911 37.3977195,9.01002001 38.063326,8.94659267 C38.2874247,8.91750194 38.5143903,8.97377581 38.6988297,9.10396877 C38.8823135,9.24608415 38.9931682,9.46307241 38.9998578,9.69532137 C39.0003356,9.94426174 38.9444304,10.1903407 38.8373982,10.4154362 C38.7131644,10.7335267 38.5062673,11.1784719 38.2162291,11.7507486 C37.7670762,12.6611455 37.3704836,13.5953872 37.0264516,14.5501355 C36.7607824,15.2607124 36.6513611,16.0204098 36.7063106,16.7772457 C36.6962763,17.2059764 36.8482238,17.6227846 37.1315725,17.945644 C37.4211328,18.1507099 37.7804552,18.2313055 38.1302211,18.1697858 C39.633928,18.0300549 40.9909434,16.4400794 42.2012673,13.4008131 L42.6790896,13.8157137 C42.280108,15.3427388 41.5361386,16.7586467 40.5049981,17.955182 C39.70369,18.9094534 38.5664729,19.5203588 37.3274796,19.6624742 C36.6346373,19.7712068 35.9284159,19.5709099 35.3970775,19.1140423 L35.3970775,19.1140423 Z" id="Fill-4" fill="#000000"></path>
                    <path d="M48.9959007,18.0219476 C48.650913,17.3857666 48.438282,16.6866353 48.3699534,15.9665204 L48.3317277,15.2797883 C48.2968466,14.9011319 48.2758224,14.4814623 48.2696108,14.0207796 C47.7597743,15.2526052 47.1190146,16.4262494 46.3583215,17.5212055 C45.6955819,18.4368482 44.9740702,18.9309138 44.1937864,19.004356 C43.5515932,19.0601529 42.9251681,18.7897522 42.5261865,18.2842411 C42.0311626,17.7172102 41.7358684,17.003295 41.6852192,16.2526588 C41.6312253,15.3680143 41.701943,14.4800316 41.895461,13.6154169 C42.0722553,12.6635299 42.3460475,11.7316727 42.7125372,10.8351058 C43.0503576,10.0372567 43.3685872,9.62378678 43.6681818,9.59517295 C43.9290728,9.59946502 44.1856634,9.66289236 44.4183629,9.78116288 C44.686899,9.86986577 44.9143424,10.0529943 45.0586448,10.2962119 C44.6266934,11.1283977 44.2946069,12.00875 44.0695526,12.9191469 C43.778081,13.8600652 43.6567141,14.844858 43.7111858,15.8282202 C43.7470225,16.2102149 43.8406757,16.5850561 43.9883228,16.9393908 C44.0939215,17.2617734 44.4159737,17.463024 44.7528385,17.4162881 C45.7084831,17.32377 46.9092506,15.4958228 48.3556188,11.9319695 C48.4019675,11.3368018 48.4803304,10.7444954 48.5897517,10.1579117 C48.6251106,9.89657202 48.7197194,9.64715475 48.8668887,9.42825891 C48.9944672,9.30283493 49.1655276,9.23082344 49.344711,9.22796205 C49.6380939,9.18265681 49.9391219,9.22891585 50.2047912,9.36149329 C50.4174221,9.48262519 50.5526458,9.70390552 50.5631579,9.94807692 C50.5483454,10.1254827 50.5168091,10.3014578 50.4675934,10.4726639 C50.3170794,11.2590675 50.2372831,12.0569166 50.2286823,12.8571502 C50.202402,13.8118986 50.2344161,14.7676007 50.3242467,15.7185338 C50.3452709,16.0928982 50.4145552,16.4634473 50.5297103,16.8201665 C50.5808373,17.0185558 50.7705328,17.1482718 50.9740851,17.1253807 C51.4676755,17.077691 52.0668647,16.4610629 52.770697,15.2745425 C53.5137107,14.0031344 54.1434805,12.6692527 54.653317,11.2881582 C54.5257384,9.93996967 54.5754319,8.98617514 54.8014419,8.42677465 C54.946222,7.93557047 55.3714839,7.57837442 55.8813203,7.52066985 C56.2411205,7.46201149 56.6076102,7.58314339 56.8608561,7.84495999 C57.0744426,8.05527168 57.2120555,8.32996451 57.2526704,8.6270715 C57.2689163,8.82832215 57.232124,9.03052659 57.1475495,9.21365514 C57.0615414,9.41395199 57.0027693,9.55368289 56.9707552,9.63332473 C56.6587372,10.4588339 56.5459712,11.3458628 56.6410578,12.2228769 C56.7748481,13.6278162 57.2526704,14.2911803 58.0745248,14.2115385 C58.4778068,14.153357 58.8433409,13.9435222 59.0970645,13.6249548 C59.5151591,13.0874916 59.8381669,12.4827859 60.0527092,11.8365901 L60.6356524,12.2133389 C60.4306666,13.0035577 60.0273846,13.7284415 59.4649877,14.3207479 C59.0492823,14.7442327 58.5016979,15.0136797 57.9120652,15.0842605 C57.3315111,15.146734 56.7504791,14.975051 56.2970257,14.6073632 C55.7675986,14.1681408 55.3456815,13.6130324 55.0642441,12.9859125 C54.4421195,14.3870367 53.6694808,15.71758 52.7611406,16.9536977 C51.9426309,18.0376852 51.1145649,18.6180692 50.2764645,18.6943727 C49.7522934,18.7516004 49.2458018,18.4854917 48.9959007,18.0219476" id="Fill-5" fill="#000105"></path>
                    <path d="M64.3196625,14.6884357 C65.2796075,13.3955672 66.1664458,12.0502401 66.9763546,10.6586538 L67.4541769,9.83362158 C67.4895358,9.743488 67.5726768,9.68101446 67.6691969,9.67147651 L67.7886525,9.67147651 C67.8569811,9.31952633 67.8713158,8.9594689 67.8316565,8.60322664 C67.7394368,7.61414171 67.2931508,7.15822793 66.493754,7.23453149 C65.6938795,7.31083505 64.8725029,7.84495999 64.0281909,8.8369063 C63.1767115,9.85269747 62.5015486,11.0034506 62.0308936,12.2419528 C61.5774402,13.2629898 61.3619423,14.3736835 61.4001681,15.4896231 C61.4039907,15.7342714 61.4823535,15.9722432 61.6247446,16.1715862 C61.7532788,16.3013023 61.9358069,16.3632989 62.1169016,16.3385003 C62.7887198,16.2779343 63.5231327,15.7280718 64.3196625,14.6884357 Z M59.9332536,17.3542914 C59.415772,16.9007621 59.1094879,16.2531356 59.0875081,15.5659267 C59.0320807,14.2401523 59.3302418,12.923439 59.9523665,11.7507486 C60.6174952,10.3257796 61.5573717,9.0453104 62.7189577,7.9832602 C63.6984935,7.00514391 64.9757125,6.3789778 66.3504073,6.2044334 C67.1001106,6.10666946 67.8608037,6.26309177 68.5101642,6.64794786 C69.0802063,6.9712842 69.4538633,7.55500645 69.5088129,8.20740191 C69.591954,9.08155459 69.091674,9.58897328 68.0084508,9.72870418 C68.7127609,9.87511164 69.0821175,10.1278672 69.1169986,10.4869708 C69.1126982,10.699667 69.0634825,10.9090249 68.9736519,11.1021683 C68.8651862,11.3816301 68.7395189,11.6711067 68.5961722,11.9701213 C68.3725514,12.4131589 68.174733,12.8681189 68.0036726,13.3340475 C67.8746605,13.6726446 67.8206666,14.0360403 67.8459912,14.3975284 C67.8622372,14.6569605 67.9606686,14.9039933 68.1279064,15.1033363 C68.295622,15.2912339 68.5479122,15.3808906 68.7968576,15.341785 C69.3291517,15.2912339 69.973734,14.8572574 70.732038,14.0398554 C71.6327331,12.9844818 72.3422992,11.7803162 72.829678,10.4822019 L73.4221777,10.9590991 C72.9520005,12.44988 72.1793618,13.8276362 71.1525217,15.0079569 C70.3999515,15.9517366 69.3143392,16.5726568 68.1183499,16.7438629 C67.4503543,16.845442 66.7737579,16.6255924 66.2930687,16.1525103 C65.845827,15.7066114 65.571557,15.1166895 65.5189965,14.4881389 C64.947521,15.3751678 64.2876484,16.2030614 63.5503686,16.9584667 C63.0467438,17.4620702 62.3859156,17.7782531 61.6773051,17.8550336 C61.0518356,17.9341985 60.4211102,17.7529775 59.9332536,17.3542914 L59.9332536,17.3542914 Z" id="Fill-6" fill="#000105"></path>
                    <path d="M80.3410449,14.7361255 C79.9516197,14.3822677 79.7213093,13.8872483 79.700763,13.3626613 C79.6802166,13.044094 79.6959847,12.723619 79.7485452,12.4088668 C79.8030169,12.0430866 79.8617891,11.6806447 79.9253395,11.321541 C79.9888898,10.9624374 80.0543515,10.5632744 80.1212466,10.1245289 C80.1699845,9.75445663 80.1814522,9.38056918 80.1546942,9.00858931 C80.0653414,8.00710506 79.6405574,7.54451471 78.8789086,7.62081828 C78.1172598,7.69712184 77.3976594,8.18355705 76.7191517,9.0801239 C75.9904726,9.99958183 75.3630919,10.9939126 74.8460882,12.0464249 C74.3137941,13.1113365 73.719861,14.3832215 73.0638109,15.861603 C72.7618272,15.8949858 72.4564988,15.8678027 72.165505,15.7805305 C71.9017471,15.7032731 71.6666585,15.5487584 71.4917755,15.337016 C71.5452916,14.9478678 71.6370335,14.5644424 71.7641342,14.1924626 C72.1239344,12.8347361 72.4091944,11.6029104 72.6194362,10.4965088 C72.8182103,9.53699148 72.8975288,8.5569676 72.8535691,7.57789752 C72.9969158,7.37855447 73.176577,7.20830214 73.3839519,7.07715539 C73.5989719,6.92597896 73.848873,6.83107641 74.1102418,6.80055498 C74.4805541,6.71519037 74.8499108,6.94553175 74.935441,7.31512713 C74.9507313,7.38236964 74.9564651,7.45199664 74.9512091,7.52066985 C74.9636325,8.06814791 74.9254067,8.61610287 74.8365317,9.15642747 C74.7314108,9.94140036 74.5832859,10.7778782 74.392157,11.6649071 C75.0883441,10.193679 75.9527247,8.80781557 76.9676193,7.53497677 C77.904151,6.38708505 78.8597957,5.76234964 79.8345532,5.66077052 C80.4767464,5.54965346 81.1270626,5.80574729 81.521266,6.32365772 C81.9384049,6.87638165 82.1811386,7.54022264 82.2188866,8.23124677 C82.2604571,8.65997741 82.2494672,9.09252323 82.185439,9.51886939 C82.0989532,10.0119812 81.9823645,10.4993702 81.8366287,10.978175 C81.7061832,11.4455343 81.607274,11.8475587 81.5403789,12.1847251 C81.4739616,12.5128304 81.4548487,12.8480892 81.4830402,13.1814404 C81.5499353,13.9606905 81.8686428,14.3197941 82.4386849,14.2592282 C83.075622,14.1924626 83.7125592,13.6650142 84.3499741,12.6759293 C85.0251371,11.5342372 85.5808444,10.3262565 86.0080176,9.07058596 L86.3568279,9.43779685 C85.2898506,13.0369405 83.7957002,14.9335609 81.8748545,15.1271812 C81.3310927,15.2196993 80.7734741,15.0775839 80.3410449,14.7361255" id="Fill-7" fill="#000105"></path>
                    <path d="M93.6531747,13.3912752 C93.2642273,13.0374174 93.0334392,12.5428749 93.0128928,12.017811 C92.9918686,11.6987668 93.0076368,11.3792456 93.060675,11.0640165 C93.1132355,10.6968056 93.1753524,10.3343637 93.2374693,9.97669076 C93.2995862,9.61901781 93.3855942,9.19934822 93.4333764,8.77967863 C93.4825921,8.40960635 93.4935821,8.0357189 93.466824,7.66373903 C93.377949,6.66225478 92.9522094,6.19966443 92.1910384,6.27596799 C91.4298675,6.35227155 90.7083557,6.84490643 90.0265033,7.75434951 C89.2992577,8.66760777 88.6713992,9.6557389 88.1534398,10.7015746 C87.6216236,11.7669631 87.0276904,13.0383712 86.3711626,14.5167527 C86.0691788,14.5506124 85.7638504,14.5229524 85.4728566,14.4356802 C85.2086208,14.3584228 84.9744879,14.2039081 84.7991271,13.9921657 C84.853121,13.6030176 84.9439073,13.2195922 85.0714858,12.8476123 C85.431286,11.4898858 85.716546,10.2580601 85.9267878,9.15165849 C86.1260397,8.19261809 86.2048804,7.21164042 86.1609207,6.23304724 C86.3037896,6.03370418 86.4839286,5.86392876 86.6913035,5.73230511 C86.9063235,5.58065178 87.1557468,5.48574923 87.4175934,5.4557047 C87.7879057,5.37034009 88.1572624,5.60068147 88.2427926,5.97027685 C88.2585607,6.03751936 88.2638168,6.10666946 88.2585607,6.17581957 C88.2709841,6.72329763 88.2322805,7.27077568 88.1438834,7.81157718 C88.0387624,8.59702697 87.8906375,9.43302788 87.6995086,10.3200568 C88.3956957,8.84882873 89.2600763,7.46344218 90.2749709,6.19012648 C91.2115027,5.04271167 92.1671473,4.41940694 93.1419048,4.32068921 C93.7711968,4.22054078 94.4047892,4.47138875 94.7951701,4.97403846 C95.2127868,5.52676239 95.4550427,6.19060338 95.4927906,6.88162752 C95.5334055,7.31703472 95.518593,7.7562571 95.4497866,8.18832602 C95.3633008,8.68143779 95.2467121,9.16882679 95.1009763,9.64763165 C94.9705308,10.114991 94.8716216,10.5174923 94.8047265,10.8541817 C94.7383092,11.1818101 94.7191963,11.5175458 94.7473878,11.850897 C94.8142829,12.6296702 95.1329904,12.9892508 95.7030325,12.9286848 C96.3399696,12.8619192 96.9773846,12.3339939 97.6143217,11.3453859 C98.2999968,10.203217 98.8647827,8.9933286 99.3010345,7.73527362 L99.6498448,8.10248451 C98.5890793,11.6854137 97.0982736,13.5772651 95.1774279,13.777562 C94.6379665,13.8686493 94.0841704,13.7284415 93.6531747,13.3912752" id="Fill-8" fill="#000105"></path>
                </g>
            </g>
        </g>
    </g>
</svg>