<?xml version="1.0" encoding="UTF-8" standalone="no"?>
<svg width="139px" height="42px" viewBox="0 0 139 42" version="1.1" xmlns="http://www.w3.org/2000/svg" xmlns:xlink="http://www.w3.org/1999/xlink">
    <!-- Generator: Sketch 43.2 (39069) - http://www.bohemiancoding.com/sketch -->
    <title>logo</title>
    <desc>Created with Sketch.</desc>
    <defs></defs>
    <g id="Symbols" stroke="none" stroke-width="1" fill="none" fill-rule="evenodd">
        <g id="logo">
            <g transform="translate(5.000000, 5.000000)">
                <g>
                    <path d="M9.39379568,5.0787651 C9.54789338,4.68992215 9.62062749,4.27483077 9.60953246,3.85790811 C9.56022119,3.32500403 9.1780589,3.09059948 8.46304558,3.15591533 C7.56619698,3.21695818 6.7279055,3.61678885 6.12076057,4.27299948 C5.50436978,4.95057512 5.06611593,5.76793887 4.84483163,6.65367062 C4.60135727,7.56015694 4.52184286,8.50265854 4.61060313,9.43722457 C4.67594055,10.0140795 4.78319255,10.5854406 4.93112634,11.1464244 C4.15200838,11.2367678 3.38398545,10.9083573 2.91552845,10.2857202 C2.3897471,9.66430398 2.06614194,8.90065792 1.98477835,8.09428188 C1.91081146,7.00894001 2.2159249,5.93153371 2.84772546,5.04213939 C3.54301428,3.98670852 4.46451851,3.09670377 5.54751713,2.43560971 C6.57812254,1.76535922 7.75481256,1.34721569 8.98081385,1.21475271 C9.84437735,1.09816087 10.7215014,1.29777099 11.446377,1.77634693 C12.2680259,2.45758513 12.8597611,3.37139659 13.1414517,4.39508518 C13.6992854,6.17021125 14.0469298,8.00393846 14.1769882,9.85842024 C14.3372498,11.5596845 14.4525149,14.2046711 14.5221671,17.7939907 C14.5751767,20.4395878 14.6374322,22.1255913 14.7070843,22.854443 C15.3425832,20.263174 16.1556027,17.7182976 17.1418279,15.2362953 C18.2353052,12.4118426 19.3423431,9.78944182 20.4641743,7.36787197 C21.5860056,4.94630212 22.4736083,3.14187548 23.1269825,1.95337119 C23.3482668,1.47113268 23.632423,1.02002602 23.9714379,0.610428498 C24.236486,0.342450387 24.5921435,0.181907692 24.969991,0.158711409 C25.5327558,0.158711409 26.0924386,0.244781828 26.6280822,0.415091378 C26.0147734,2.56379969 25.5783687,4.75890057 25.3213338,6.97719773 C24.8405489,10.261303 24.4811931,13.6980155 24.2426499,17.2873351 C24.0034902,20.1594011 23.9874641,23.0442862 24.1933386,25.918794 C24.2327876,26.4809987 24.3233971,27.0389303 24.4645506,27.5852638 C24.572419,27.9441958 24.7104905,28.2933609 24.8775324,28.6290965 C25.0458071,28.9666635 25.1752491,29.2187705 25.2658586,29.3860279 C24.4374294,29.5160491 23.5892756,29.436083 22.8002954,29.154065 C22.2221209,28.8848661 21.7783195,28.3965233 21.5675138,27.7989138 C21.2550037,26.89609 21.0663881,25.9560301 21.0065982,25.0031513 C20.7760681,22.4063884 20.7945598,19.7949753 21.0620734,17.2018751 C21.329587,14.4305297 21.7918801,11.0286117 22.4489527,6.99551058 C20.7631239,10.1227358 19.3583692,13.39097 18.2513314,16.7623665 C16.8009638,20.9419705 15.7549487,24.3597596 15.1139022,27.0175653 L14.861182,27.1152339 C14.7052351,27.2019147 14.5332621,27.2562428 14.3557416,27.2739453 C13.5334762,27.3514697 12.9565345,26.9443139 12.6236834,26.0530883 C12.1755673,24.6320107 11.9043554,23.1627093 11.8162115,21.676316 C11.6972481,20.455459 11.5493143,18.3720665 11.3724101,15.4255281 C11.1794798,12.3532415 11.0167526,10.1148002 10.8854614,8.71081466 L10.645069,6.56210635 L7.69255709,15.7185338 C6.26253045,20.1661158 5.20048912,23.3977243 4.50581669,25.4121384 C3.98126813,27.0273322 3.26748759,28.5765997 2.37926846,30.0269778 C1.67658296,31.0848504 0.883288006,31.6568219 0,31.7422819 C0.20957287,30.8388477 1.33941719,27.605408 3.39014936,22.0425731 C6.37779553,13.6229328 8.37860005,7.96792318 9.39379568,5.0787651 Z" id="Fill-1" fill="#000000"></path>
                    <path d="M34.3884423,23.3549943 C35.6267714,21.7001227 36.7707927,19.9781039 37.8155751,18.1968735 L38.4319659,17.1408322 C38.4775788,17.0254612 38.5848308,16.9454951 38.7093418,16.9332865 L38.8634395,16.9332865 C38.9515834,16.4827903 38.9700751,16.0219168 38.9189147,15.5659267 C38.7999512,14.299898 38.2242422,13.7163283 37.1930204,13.8139969 C36.1617986,13.9116655 35.0868131,14.5874098 33.9692966,15.8406195 C32.886298,17.1438844 32.0301312,18.6168483 31.4359304,20.199079 C30.8509756,21.5060064 30.5729833,22.9276944 30.6222946,24.3560971 C30.6272257,24.6692469 30.7283138,24.9738507 30.9119983,25.2290098 C31.0864368,25.4060341 31.3379243,25.4860002 31.5838642,25.4426598 C32.425854,25.3651354 33.3615353,24.6692469 34.3884423,23.3549943 Z M28.7299748,26.7428725 C28.0618072,26.162355 27.6673171,25.3333931 27.6389631,24.4537656 C27.5674618,22.7567744 27.9527061,21.0713813 28.7546305,19.5703376 C29.6126465,17.7457669 30.8257035,16.1073768 32.3235332,14.7479525 C33.580354,13.5002367 35.2187207,12.6999649 36.9834476,12.4710542 C37.9499483,12.3459164 38.9312425,12.5455265 39.7695339,13.0387527 C40.503039,13.4544545 40.982591,14.2010086 41.0516268,15.0348539 C41.1582624,16.1537693 40.5153668,16.8032653 39.1223236,16.9821208 C40.0302673,17.1689119 40.5073537,17.492439 40.5523503,17.9527021 C40.5461863,18.2249532 40.4833145,18.4929313 40.367433,18.7401549 C40.2275123,19.097866 40.0654015,19.4690065 39.8804843,19.8511347 C39.591397,20.4176124 39.3362112,21.001182 39.1161597,21.5969602 C38.9497342,22.0309749 38.880082,22.495511 38.9127507,22.9582158 C38.933708,23.2902889 39.0613009,23.6064909 39.2764213,23.86165 C39.4927745,24.1027692 39.8182288,24.2169194 40.1393684,24.1668642 C40.8254114,24.1021588 41.6581553,23.5460584 42.6357511,22.5003944 C43.7976478,21.1495162 44.7129881,19.6081842 45.3417067,17.9465978 L46.1060313,18.5570263 C45.4988864,20.4652258 44.5021825,22.2287537 43.178175,23.7395643 C42.2079759,24.9476023 40.807536,25.7423802 39.2640935,25.9609136 C38.4023792,26.0909348 37.5295698,25.8101377 36.9094807,25.2045927 C36.3325389,24.633842 35.9787306,23.878742 35.9109276,23.0741972 C35.1644783,24.2047108 34.305846,25.2576999 33.3467419,26.217904 C32.697066,26.8625165 31.8445975,27.2672306 30.93049,27.3655096 C30.1421262,27.4582947 29.350064,27.2342674 28.7299748,26.7428725 L28.7299748,26.7428725 Z" id="Fill-3" fill="#000000"></path>
                    <path d="M48.9660846,7.05655343 C48.9475928,6.43452679 49.2496243,5.84607372 49.7673926,5.49385648 C50.315364,5.02687868 50.9952431,4.73875643 51.7151875,4.66977801 C52.7710649,4.57210945 53.3424592,4.97865483 53.4287539,5.890635 C53.4404653,6.48885493 53.1803484,7.060216 52.7199045,7.44722767 C52.256995,7.94716861 51.6258108,8.26153929 50.944699,8.33234899 C50.4706945,8.38667713 49.9917589,8.29083986 49.5763115,8.05765617 C49.2163392,7.85499391 48.9833435,7.47469695 48.9660846,7.05655343 Z M45.6622299,24.4659742 C45.0261146,23.8799628 44.6439523,23.0723659 44.5958739,22.213493 C44.5416315,20.8534583 44.6932636,19.4940341 45.0458391,18.1785607 C45.3947163,16.5810693 45.9587139,15.0372956 46.7224221,13.5881384 C47.4497632,12.2451957 48.2430582,11.5328256 49.1016905,11.4516386 C49.3907778,11.4144025 49.6835635,11.486433 49.9214903,11.65308 C50.1581844,11.8349877 50.301187,12.1127327 50.3098165,12.4100114 C50.3104329,12.728655 50.2383152,13.0436361 50.1002436,13.3317584 C49.939982,13.7389142 49.6730848,14.308444 49.2989356,15.0409582 C48.7195283,16.2062662 48.2079239,17.4020956 47.7641225,18.6241735 C47.4214092,19.5337119 47.2802558,20.5061245 47.3511407,21.4748745 C47.3381965,22.0236498 47.5342088,22.5571643 47.8997285,22.9704244 C48.2732613,23.2329086 48.7367872,23.336071 49.1879853,23.2573258 C51.1277671,23.0784702 52.8783169,21.0433016 54.4396348,17.1530408 L55.0560256,17.6841136 C54.5413393,19.6387056 53.5816188,21.4510678 52.2514475,22.9826329 C51.2177601,24.2041004 49.7507501,24.9860593 48.1524487,25.167967 C47.2586821,25.3071447 46.3476565,25.0507647 45.6622299,24.4659742 L45.6622299,24.4659742 Z" id="Fill-4" fill="#000000"></path>
                    <path d="M63.2047119,23.0680929 C62.7596777,22.2537813 62.4853838,21.3588931 62.3972399,20.4371461 L62.3479287,19.5581291 C62.3029322,19.0734488 62.275811,18.5362718 62.2677979,17.9465978 C61.6101089,19.5233346 60.7835289,21.0255992 59.8022347,22.427143 C58.9473007,23.5991657 58.0165506,24.2315696 57.0099844,24.3255756 C56.1815552,24.3969958 55.3734669,24.0508828 54.8587806,23.4038286 C54.2201997,22.6780291 53.8392702,21.7642177 53.7739328,20.8034032 C53.7042806,19.6710583 53.7955064,18.5344405 54.0451447,17.4277336 C54.2732093,16.2093183 54.6264012,15.016541 55.099173,13.8689355 C55.5349613,12.8476886 55.9454775,12.3184471 56.3319545,12.2818214 C56.6685039,12.2873152 56.9995058,12.3685022 57.2996881,12.5198885 C57.6460997,12.6334282 57.9395017,12.8678327 58.1256518,13.1791513 C57.5684345,14.244349 57.1400429,15.3712 56.8497228,16.536508 C56.4737244,17.7408834 56.3171612,19.0014183 56.3874297,20.2601218 C56.433659,20.7490751 56.5544716,21.2288719 56.7449364,21.6824202 C56.8811587,22.0950699 57.2966061,22.3526707 57.7311616,22.2928487 C58.9639432,22.1744256 60.5129333,19.8346532 62.3787482,15.272921 C62.4385381,14.5111062 62.5396262,13.7529541 62.6807797,13.002127 C62.7263926,12.6676122 62.848438,12.3483581 63.0382864,12.0681714 C63.2028627,11.9076287 63.4235306,11.815454 63.6546772,11.8117914 C64.0331411,11.7538007 64.4214673,11.8130123 64.7641806,11.9827114 C65.0384745,12.1377602 65.2129131,12.4209991 65.2264737,12.7335385 C65.2073656,12.9606179 65.1666838,13.185866 65.1031955,13.4050098 C64.9090324,14.4116064 64.8060952,15.4328533 64.7950001,16.4571523 C64.7610986,17.6792301 64.8023968,18.9025289 64.9182783,20.1197233 C64.9453995,20.5989097 65.0347761,21.0732126 65.1833263,21.5298131 C65.2492801,21.7837514 65.4939873,21.9497879 65.7565698,21.9204874 C66.3933015,21.8594445 67.1662555,21.0701605 68.0741991,19.5514144 C69.0326868,17.924012 69.8450899,16.2166435 70.5027789,14.4488425 C70.3382025,12.7231612 70.4023072,11.5023042 70.69386,10.7862716 C70.8806264,10.1575302 71.4292142,9.70031926 72.0869032,9.62645741 C72.5510455,9.5513747 73.0238172,9.70642354 73.3505043,10.0415488 C73.626031,10.3107478 73.8035516,10.6623546 73.8559448,11.0426515 C73.8769021,11.3002523 73.82944,11.559074 73.7203388,11.7934786 C73.6093885,12.0498585 73.5335724,12.2287141 73.4922742,12.3306557 C73.089771,13.3873074 72.9443028,14.5227044 73.0669646,15.6452824 C73.239554,17.4436047 73.8559448,18.2927108 74.9161369,18.1907692 C75.4363708,18.116297 75.9079097,17.8477084 76.2352132,17.4399422 C76.7745552,16.7519893 77.1912354,15.9779659 77.4679948,15.1508353 L78.2199916,15.6330738 C77.9555599,16.6445538 77.4353261,17.5724052 76.7098342,18.3305574 C76.1735742,18.8726179 75.4671903,19.21751 74.7065641,19.3078534 C73.9576493,19.3878195 73.2081181,19.1680653 72.6231632,18.6974249 C71.9402022,18.1352202 71.3959291,17.4246815 71.032875,16.621968 C70.2303341,18.4154069 69.2336302,20.1185024 68.0618713,21.7007331 C67.0059939,23.0882371 65.9377887,23.8311285 64.8566392,23.9287971 C64.1804585,24.0020485 63.5270843,23.6614294 63.2047119,23.0680929" id="Fill-5" fill="#000105"></path>
                    <path d="M82.9723646,18.8011977 C84.2106937,17.1463261 85.354715,15.4243073 86.3994974,13.6430769 L87.0158882,12.5870356 C87.0615011,12.4716646 87.1687531,12.3916985 87.2932641,12.3794899 L87.4473618,12.3794899 C87.5355056,11.9289937 87.5539974,11.4681202 87.5028369,11.0121301 C87.3838735,9.74610139 86.8081645,9.16253175 85.7769427,9.26020031 C84.7451045,9.35786887 83.6855288,10.0415488 82.5963662,11.3112401 C81.4979578,12.6114528 80.6269976,14.0844167 80.0198527,15.6696995 C79.4348978,16.9766269 79.1569056,18.3983149 79.2062169,19.8267176 C79.211148,20.1398674 79.3122361,20.4444712 79.4959205,20.6996304 C79.6617297,20.8656669 79.8971909,20.9450226 80.1308031,20.9132803 C80.9974485,20.8357559 81.9448412,20.1319319 82.9723646,18.8011977 Z M77.3138971,22.213493 C76.6463459,21.6329755 76.2512394,20.8040136 76.2228854,19.9243862 C76.1513841,18.2273949 76.5360119,16.5420019 77.3385528,15.0409582 C78.1965687,13.2169978 79.4090094,11.5779973 80.9074555,10.2185731 C82.1710566,8.9665842 83.8186692,8.16509158 85.5920255,7.94167475 C86.5591426,7.81653691 87.5404368,8.01675746 88.3781119,8.50937326 C89.1134661,8.92324378 89.5954837,9.67040826 89.6663686,10.5054744 C89.7736206,11.6243899 89.1282595,12.2738858 87.7309015,12.4527414 C88.6394616,12.6401429 89.1159316,12.96367 89.1609282,13.4233227 C89.1553806,13.6955738 89.0918924,13.9635519 88.9760109,14.2107754 C88.8360902,14.5684865 88.6739794,14.9390166 88.4890622,15.3217553 C88.2005913,15.8888434 87.9454055,16.4711922 87.7247376,17.0675808 C87.5583121,17.500985 87.4886599,17.9661315 87.5213287,18.4288363 C87.5422859,18.7609094 87.6692624,19.0771114 87.8849992,19.3322705 C88.1013524,19.5727793 88.4268067,19.6875399 88.7479463,19.6374848 C89.4346057,19.5727793 90.2661169,19.0172894 91.244329,17.971015 C92.4062257,16.6201367 93.321566,15.0788047 93.9502846,13.4172184 L94.7146092,14.0276469 C94.1080807,15.9358464 93.1113768,17.6993743 91.7867529,19.2101848 C90.8159374,20.4182228 89.4154976,21.2130007 87.8726714,21.4321446 C87.0109571,21.5621658 86.1381477,21.2807583 85.5180586,20.6752132 C84.9411168,20.1044626 84.5873085,19.3493625 84.5195055,18.5448178 C83.7823021,19.6802148 82.9310664,20.7399186 81.9799754,21.7068374 C81.3302995,22.3514499 80.4778311,22.756164 79.5637235,22.854443 C78.756868,22.9557741 77.9432321,22.7238113 77.3138971,22.213493 L77.3138971,22.213493 Z" id="Fill-6" fill="#000105"></path>
                    <path d="M103.639948,18.8622406 C103.137589,18.4093026 102.840489,17.7756779 102.813984,17.1042065 C102.787479,16.6964403 102.80782,16.2862323 102.875623,15.8833495 C102.945892,15.4151509 103.021708,14.9512252 103.103688,14.4915725 C103.185668,14.0319199 103.270113,13.5209912 103.356408,12.959397 C103.41928,12.4857045 103.434073,12.0071285 103.399555,11.5309943 C103.28429,10.2490945 102.736319,9.65697883 101.753792,9.75464739 C100.771265,9.85231595 99.8429806,10.474953 98.9677057,11.6225586 C98.0277097,12.7994647 97.2183886,14.0722082 96.5514538,15.4194239 C95.8647944,16.7825107 95.0986207,18.4105235 94.2523161,20.3028518 C93.8627571,20.3455818 93.4688834,20.3107874 93.0935014,20.199079 C92.7532537,20.1001896 92.4499894,19.9024107 92.2243904,19.6313805 C92.2934262,19.1332708 92.4117732,18.6424863 92.5757332,18.1663521 C93.0398754,16.4284622 93.4078607,14.8517253 93.6790727,13.4355312 C93.9354912,12.2073491 94.0378121,10.9529185 93.9811042,9.69970883 C94.1660214,9.44454972 94.3977843,9.22662674 94.6652979,9.05875891 C94.9426738,8.86525307 95.2650462,8.7437778 95.6022119,8.70471038 C96.0799148,8.59544368 96.5563849,8.89028064 96.6667188,9.36336273 C96.6864434,9.44943314 96.69384,9.5385557 96.6870597,9.62645741 C96.7030859,10.3272293 96.6537746,11.0286117 96.539126,11.7202272 C96.40352,12.7249925 96.2124388,13.795684 95.9658825,14.9310811 C96.8639639,13.0479091 97.9790148,11.2740039 99.2882289,9.64477026 C100.496355,8.17546887 101.729136,7.37580754 102.986574,7.24578627 C103.815003,7.10355643 104.653911,7.43135653 105.162433,8.09428188 C105.700542,8.80176851 106.013669,9.65148498 106.062364,10.5359959 C106.11599,11.0847711 106.101813,11.6384297 106.019216,12.1841528 C105.90765,12.8153359 105.75725,13.4391938 105.569251,14.052064 C105.400976,14.6502839 105.273383,15.1648752 105.187089,15.5964481 C105.10141,16.0164229 105.076755,16.4455542 105.113122,16.8722437 C105.199417,17.8696838 105.610549,18.3293365 106.345903,18.2518121 C107.167552,18.1663521 107.989201,17.4912182 108.811467,16.2251895 C109.682427,14.7638236 110.399289,13.2176083 110.950343,11.61035 L111.400308,12.08038 C110.023907,16.6872838 108.096453,19.114958 105.618562,19.3627919 C104.91711,19.4812151 104.197782,19.2993074 103.639948,18.8622406" id="Fill-7" fill="#000105"></path>
                    <path d="M120.812595,17.1408322 C120.310853,16.6878943 120.013137,16.0548799 119.986632,15.3827981 C119.959511,14.9744215 119.979851,14.5654344 120.048271,14.1619411 C120.116074,13.6919112 120.196205,13.2279855 120.276335,12.7701642 C120.356466,12.3123428 120.467417,11.7751657 120.529056,11.2379886 C120.592544,10.7642961 120.606721,10.2857202 120.572203,9.80958596 C120.457554,8.52768611 119.90835,7.93557047 118.92644,8.03323903 C117.944529,8.13090759 117.013779,8.76148023 116.134189,9.92556737 C115.196042,11.0945379 114.386105,12.3593458 113.717937,13.6980155 C113.031894,15.0617128 112.265721,16.6891151 111.4188,18.5814435 C111.029241,18.6247839 110.635367,18.589379 110.259985,18.4776706 C109.919121,18.3787812 109.617089,18.1810024 109.390874,17.9099721 C109.460526,17.4118625 109.57764,16.921078 109.742217,16.4449437 C110.206359,14.7070538 110.574344,13.130317 110.845556,11.7141229 C111.102591,10.4865512 111.204296,9.23089974 111.147588,7.97830046 C111.331889,7.72314135 111.564268,7.50582881 111.831782,7.33735054 C112.109157,7.14323428 112.430913,7.02175901 112.768696,6.98330201 C113.246398,6.87403531 113.722868,7.16887228 113.833202,7.64195436 C113.853543,7.72802478 113.860324,7.81653691 113.853543,7.90504904 C113.869569,8.60582096 113.819642,9.30659288 113.70561,9.99881879 C113.570004,11.0041945 113.378922,12.0742757 113.132366,13.2096727 C114.030447,11.3265008 115.145498,9.55320599 116.454712,7.9233619 C117.662838,6.45467093 118.89562,5.65684089 120.153057,5.53048219 C120.964844,5.4022922 121.782178,5.72337759 122.285769,6.36676923 C122.824495,7.07425586 123.137005,7.92397233 123.1857,8.80848322 C123.238093,9.36580444 123.218985,9.92800909 123.130225,10.4810573 C123.018658,11.1122404 122.868259,11.7360983 122.680259,12.3489685 C122.511985,12.9471884 122.384392,13.4623901 122.298097,13.8933526 C122.212419,14.312717 122.187763,14.7424586 122.22413,15.1691482 C122.310425,16.1659779 122.721558,16.626241 123.456912,16.5487166 C124.278561,16.4632566 125.100826,15.7875122 125.922475,14.522094 C126.806996,13.0601177 127.53557,11.5114606 128.098335,9.90115023 L128.5483,10.3711802 C127.179912,14.9573295 125.256773,17.3788993 122.778882,17.6352793 C122.082977,17.7518711 121.36858,17.5724052 120.812595,17.1408322" id="Fill-8" fill="#000105"></path>
                </g>
            </g>
        </g>
    </g>
</svg>