<?xml version="1.0" encoding="UTF-8" standalone="no"?>
<svg width="148px" height="37px" viewBox="0 0 148 37" version="1.1" xmlns="http://www.w3.org/2000/svg" xmlns:xlink="http://www.w3.org/1999/xlink">
    <!-- Generator: Sketch 43.2 (39069) - http://www.bohemiancoding.com/sketch -->
    <title>logo</title>
    <desc>Created with Sketch.</desc>
    <defs></defs>
    <g id="Symbols" stroke="none" stroke-width="1" fill="none" fill-rule="evenodd">
        <g id="footer/intro" transform="translate(-60.000000, -70.000000)" fill="#FFFFFF">
            <g id="logo" transform="translate(60.000000, 70.000000)">
                <g>
                    <path d="M10.777378,5.87232215 C10.9541722,5.42272248 11.0376191,4.94277308 11.02489,4.46070625 C10.9683158,3.84453591 10.529866,3.57350565 9.70954067,3.6490271 C8.68059809,3.7196079 7.71883732,4.18191211 7.02226794,4.94065565 C6.31509091,5.72410248 5.81228804,6.66917932 5.55841148,7.69330666 C5.27907656,8.74143147 5.18785072,9.83119894 5.28968421,10.9117909 C5.36464498,11.5787794 5.48769378,12.2394157 5.65741627,12.8880532 C4.7635445,12.9925128 3.88240191,12.6127881 3.34494737,11.892864 C2.74172536,11.1743515 2.37045742,10.2913857 2.27711005,9.35901342 C2.1922488,8.10408689 2.54230144,6.85833585 3.26715789,5.82997367 C4.06485359,4.60963172 5.12208325,3.58056373 6.3645933,2.81617372 C7.5469933,2.04119659 8.89699426,1.55771815 10.3035694,1.40455782 C11.2943244,1.2697485 12.3006373,1.5005477 13.1322775,2.05390114 C14.0749445,2.84158281 14.7538344,3.89817731 15.0770144,5.08181724 C15.7170096,7.13430676 16.1158574,9.25455385 16.2650718,11.3987984 C16.4489378,13.3658852 16.5811799,16.424151 16.6610909,20.5743018 C16.7219081,23.6332734 16.793333,25.582715 16.873244,26.4254497 C17.6023435,23.4292949 18.53511,20.4867816 19.6665933,17.6169664 C20.9211254,14.3511931 22.1912153,11.3190421 23.4782775,8.51910196 C24.7653397,5.71916182 25.7836746,3.63279352 26.5332823,2.25858544 C26.7871589,1.70099716 27.1131675,1.17940509 27.5021148,0.70580795 C27.806201,0.39595826 28.2142421,0.210330769 28.6477416,0.183510067 C29.2933943,0.183510067 29.935511,0.283028988 30.5500478,0.479949406 C29.8464067,2.96439339 29.3457254,5.50247878 29.0508325,8.06738487 C28.4992344,11.8646316 28.0869502,15.8383304 27.8132727,19.9884812 C27.538888,23.3093076 27.5205014,26.6449559 27.7566986,29.9686056 C27.8019579,30.6186547 27.9059129,31.2637632 28.0678565,31.8954613 C28.1916124,32.3104764 28.3500201,32.7141985 28.5416651,33.1023929 C28.7347244,33.4927047 28.8832316,33.7842034 28.9871866,33.9775947 C28.0367407,34.1279318 27.0636651,34.035471 26.1584785,33.7093877 C25.4951464,33.3981264 24.9859789,32.83348 24.7441244,32.1424941 C24.3855856,31.0986041 24.1691895,30.0116599 24.1005933,28.9098936 C23.8361091,25.9073866 23.8573244,22.8879402 24.1642392,19.889668 C24.4711541,16.6852999 25.0015368,12.7518322 25.7553876,8.08855911 C23.8212584,11.7044132 22.2096019,15.483309 20.939512,19.3814863 C19.2755244,24.2141534 18.075445,28.1659721 17.3399809,31.2390599 L17.0500383,31.3519892 C16.8711225,31.4522139 16.6738201,31.5150308 16.4701531,31.5354992 C15.5267789,31.6251368 14.8648612,31.1543629 14.4829856,30.1238833 C13.9688679,28.4807624 13.65771,26.7818827 13.5565837,25.0632403 C13.4200986,23.6516244 13.2503761,21.2427019 13.0474163,17.8357669 C12.8260699,14.2834355 12.6393751,11.6952377 12.4887464,10.0718795 L12.2129474,7.58743547 L8.82556938,18.1745547 C7.18491866,23.3170715 5.96645263,27.0536187 5.16946411,29.382785 C4.56765646,31.2503528 3.74874545,33.0416934 2.72970335,34.7186931 C1.92352153,35.9418583 1.01338469,36.6032003 0,36.7020134 C0.240440191,35.6574177 1.53669569,31.9187529 3.88947368,25.4867251 C7.31716077,15.751516 9.61265742,9.21291118 10.777378,5.87232215 Z" id="Fill-1"></path>
                    <path d="M39.4534067,27.0042122 C40.8741254,25.0907668 42.1866459,23.0996826 43.385311,21.040135 L44.092488,19.8190872 C44.1448191,19.6856895 44.2678679,19.5932287 44.4107177,19.5791125 L44.587512,19.5791125 C44.6886383,19.0582263 44.7098536,18.5253413 44.6511579,17.9981027 C44.5146727,16.534257 43.8541694,15.8595046 42.6710622,15.9724339 C41.487955,16.0853632 40.2546383,16.8666926 38.9725263,18.3157163 C37.7300163,19.8226163 36.7477474,21.5257309 36.0660287,23.3551851 C35.3949177,24.8663199 35.0759809,26.5101466 35.132555,28.1617372 C35.1382124,28.5238167 35.2541895,28.8760149 35.4649282,29.1710426 C35.6650593,29.3757269 35.9535876,29.4681877 36.2357512,29.4180754 C37.201755,29.3284378 38.2752498,28.5238167 39.4534067,27.0042122 Z M32.9615215,30.9214463 C32.1949416,30.2502229 31.7423483,29.2917358 31.7098182,28.2746665 C31.6277856,26.3125204 32.0697713,24.3637846 32.9898086,22.6282029 C33.974199,20.5185429 35.3659234,18.6241544 37.0843636,17.0523201 C38.5262976,15.6096486 40.4059742,14.6843344 42.430622,14.4196564 C43.5394756,14.2749658 44.6653014,14.505765 45.6270622,15.0760578 C46.4686029,15.556713 47.0187866,16.4199162 47.0979904,17.3840498 C47.2203321,18.6777958 46.4827464,19.4287755 44.8845263,19.6355772 C45.9261981,19.8515544 46.4735531,20.2256326 46.525177,20.7578118 C46.5181053,21.0726022 46.4459732,21.3824519 46.3130239,21.6683041 C46.1524947,22.0819075 45.9665072,22.5110388 45.7543541,22.9528745 C45.422688,23.6078643 45.1299167,24.2826167 44.8774545,24.9714853 C44.6865167,25.4733147 44.6066057,26.0104346 44.6440861,26.545437 C44.6681301,26.9293965 44.8145158,27.2950051 45.0613206,27.5900328 C45.3095397,27.8688269 45.6829292,28.000813 46.0513684,27.9429368 C46.8384565,27.8681211 47.7938526,27.2251301 48.9154354,26.0160811 C50.2484641,24.4541281 51.298622,22.671963 52.0199426,20.7507537 L52.8968421,21.4565617 C52.2002727,23.6629173 51.0567675,25.7019965 49.5377512,27.4488712 C48.4246545,28.8456651 46.8179483,29.7646271 45.047177,30.0173063 C44.0585435,30.1676434 43.0571809,29.8429718 42.3457608,29.1428103 C41.6838431,28.4828798 41.2779234,27.6097954 41.200134,26.6795405 C40.3437426,27.9866969 39.358645,29.2042156 38.2582775,30.3144515 C37.5129129,31.0597847 36.5348871,31.5277353 35.4861435,31.6413704 C34.5816641,31.7486532 33.6729416,31.4896217 32.9615215,30.9214463 L32.9615215,30.9214463 Z" id="Fill-3"></path>
                    <path d="M56.1781435,8.15913991 C56.1569282,7.43992161 56.503445,6.75952274 57.0974737,6.35227155 C57.7261541,5.81232847 58.5061703,5.47918712 59.3321531,5.39943082 C60.5435474,5.28650155 61.1991005,5.75656964 61.2981053,6.81104672 C61.3115416,7.50273851 61.0131129,8.16337475 60.4848517,8.610857 C59.9537617,9.18891371 59.2296124,9.5524048 58.4481818,9.63427852 C57.9043627,9.69709543 57.3548861,9.58628358 56.8782488,9.31666495 C56.4652574,9.08233671 56.1979445,8.64261835 56.1781435,8.15913991 Z M52.3876746,28.2887827 C51.6578679,27.611207 51.2194182,26.6774231 51.1642584,25.6843513 C51.1020268,24.1118112 51.2759923,22.5399769 51.6804976,21.0189608 C52.0807598,19.1718614 52.7278268,17.3868731 53.6040191,15.711285 C54.438488,14.1585075 55.3486249,13.3348296 56.3337225,13.2409572 C56.6653885,13.1979029 57.0012976,13.2811882 57.2742679,13.4738738 C57.5458239,13.6842045 57.709889,14.0053472 57.7197895,14.3490756 C57.7204967,14.7175074 57.6377569,15.0817043 57.4793493,15.4148456 C57.2954833,15.8856195 56.9892756,16.5441384 56.5600191,17.3911079 C55.8952727,18.7384953 55.3083158,20.1211731 54.7991483,21.5342006 C54.4059579,22.5858544 54.2440144,23.7102065 54.3253397,24.8303237 C54.310489,25.464845 54.5353713,26.0817212 54.9547273,26.5595532 C55.3832766,26.8630506 55.9150737,26.9823321 56.4327273,26.8912829 C58.6582134,26.6844812 60.6665962,24.3313175 62.4578756,19.8332034 L63.1650526,20.4472563 C62.5745598,22.7072534 61.4734852,24.8027972 59.9473971,26.5736693 C58.7614612,27.985991 57.0783799,28.890131 55.2446699,29.1004618 C54.2192632,29.261386 53.1740555,28.9649467 52.3876746,28.2887827 L52.3876746,28.2887827 Z" id="Fill-4"></path>
                    <path d="M72.513933,26.6724824 C72.0033512,25.7309346 71.6886574,24.6962202 71.5875311,23.6304502 L71.5309569,22.6140867 C71.479333,22.0536752 71.4482172,21.4325642 71.4390239,20.7507537 C70.684466,22.5738557 69.7361416,24.310849 68.6103158,25.9313841 C67.6294612,27.2865354 66.5616239,28.0177524 65.4068038,28.1264468 C64.4563579,28.2090264 63.5292488,27.8088332 62.938756,27.0606768 C62.2061206,26.2214712 61.7690852,25.1648767 61.6941244,24.053935 C61.6142134,22.7446612 61.7188756,21.4304468 62.0052823,20.150817 C62.2669378,18.7420243 62.6721502,17.3628756 63.214555,16.0359566 C63.7145292,14.8551399 64.1855091,14.2432044 64.6289091,14.200856 C65.0150278,14.2072082 65.3947818,14.3010807 65.739177,14.4761211 C66.1366105,14.6074013 66.4732268,14.8784316 66.6867943,15.2383936 C66.0475062,16.4700285 65.5560182,17.77295 65.2229378,19.1203374 C64.7915598,20.5128965 64.6119368,21.9703899 64.692555,23.4257659 C64.7455933,23.991118 64.8842,24.5458831 65.1027177,25.0702984 C65.2590038,25.5474246 65.7356411,25.8452755 66.234201,25.7761064 C67.648555,25.6391796 69.4256909,22.9338177 71.5663158,17.6593149 C71.634912,16.7784666 71.750889,15.9018531 71.9128325,15.0337093 C71.9651636,14.6469266 72.1051847,14.277789 72.3229952,13.9538232 C72.5118115,13.7681957 72.7649809,13.6616187 73.0301722,13.6573838 C73.4643789,13.5903321 73.9099005,13.6587955 74.3030909,13.8550101 C74.6177847,14.0342853 74.8179158,14.3617802 74.8334737,14.7231538 C74.8115512,14.9857144 74.7648775,15.2461575 74.6920383,15.4995426 C74.4692775,16.6634199 74.3511789,17.8442366 74.3384498,19.0285823 C74.299555,20.4416099 74.3469359,21.856049 74.4798852,23.26343 C74.511001,23.8174893 74.6135416,24.3659021 74.7839713,24.8938464 C74.8596392,25.1874625 75.1403885,25.3794423 75.4416459,25.3455635 C76.1721598,25.2749827 77.0589598,24.362373 78.1006316,22.6063228 C79.2002919,20.7246388 80.1323512,18.750494 80.8869091,16.7064742 C80.6980928,14.7111551 80.7716392,13.2995392 81.106134,12.4716265 C81.3204086,11.7446443 81.9497962,11.2159941 82.7043541,11.1305914 C83.2368584,11.043777 83.7792632,11.2230522 84.154067,11.6105408 C84.4701751,11.9218021 84.6738421,12.3283475 84.7339522,12.7680658 C84.7579962,13.0659168 84.7035435,13.3651793 84.5783732,13.6362096 C84.4510813,13.9326489 84.3640986,14.1394507 84.3167177,14.2573206 C83.8549311,15.4790742 83.6880373,16.7918769 83.8287656,18.0898578 C84.0267751,20.169168 84.7339522,21.1509469 85.9502967,21.0330769 C86.5471541,20.9469684 87.0881445,20.6364129 87.4636555,20.1649331 C88.0824354,19.3694876 88.5604871,18.4745231 88.8780096,17.5181533 L89.7407656,18.0757416 C89.4373866,19.2452654 88.8405292,20.3180935 88.0081818,21.1947069 C87.3929378,21.8214644 86.5825129,22.2202459 85.7098565,22.3247055 C84.8506364,22.4171663 83.9907091,22.1630755 83.3195981,21.6188975 C82.5360459,20.9688484 81.9116086,20.1472879 81.4950813,19.2191505 C80.5743368,21.2928142 79.4308316,23.2620184 78.086488,25.0914726 C76.8750938,26.6957741 75.649556,27.5547424 74.4091675,27.6676717 C73.6333943,27.7523686 72.8837866,27.3585278 72.513933,26.6724824" id="Fill-5"></path>
                    <path d="M95.1931005,21.7388849 C96.6138191,19.8254395 97.9263397,17.8343553 99.1250048,15.7748077 L99.8321818,14.5537599 C99.8845129,14.4203622 100.007562,14.3279014 100.150411,14.3137852 L100.327206,14.3137852 C100.428332,13.792899 100.449547,13.260014 100.390852,12.7327754 C100.254367,11.2689297 99.5938632,10.5941773 98.410756,10.7071066 C97.2269416,10.8200359 96.0113043,11.6105408 94.7617225,13.0786213 C93.501533,14.5819923 92.5022919,16.2851068 91.8057225,18.1180901 C91.1346115,19.6292249 90.8156746,21.2730516 90.8722488,22.9246422 C90.8779062,23.2867217 90.9938833,23.6389199 91.204622,23.9339476 C91.3948526,24.1259274 91.6649943,24.2176824 91.9330144,24.1809804 C92.9273053,24.0913428 94.0142364,23.2775462 95.1931005,21.7388849 Z M88.7012153,25.6843513 C87.9353426,25.013128 87.4820421,24.0546408 87.449512,23.0375715 C87.3674794,21.0754254 87.8087579,19.1266896 88.7295024,17.3911079 C89.7138928,15.2821537 91.10491,13.3870594 92.8240574,11.8152251 C94.2737703,10.367613 96.1640545,9.44088715 98.1986029,9.18256144 C99.3081636,9.03787081 100.433989,9.26937581 101.395043,9.83896283 C102.238705,10.3175006 102.791718,11.1814096 102.873043,12.1469548 C102.996092,13.4407008 102.255678,14.1916805 100.652507,14.3984822 C101.694886,14.6151652 102.241534,14.9892434 102.293158,15.5207168 C102.286793,15.8355072 102.213954,16.1453569 102.081005,16.4312091 C101.920476,16.8448125 101.734488,17.273238 101.522335,17.7157796 C101.191376,18.3714751 100.898605,19.0448159 100.645435,19.7343903 C100.454498,20.2355139 100.374587,20.7733396 100.412067,21.308342 C100.436111,21.6923015 100.581789,22.0579101 100.829301,22.3529378 C101.077521,22.6310261 101.45091,22.763718 101.819349,22.7058418 C102.607144,22.6310261 103.561126,21.9887409 104.683416,20.7789861 C106.016445,19.2170331 107.066603,17.434868 107.787923,15.5136588 L108.664823,16.2194667 C107.968961,18.4258224 106.825456,20.4649015 105.305732,22.2117762 C104.191928,23.6085701 102.585222,24.5275321 100.815158,24.7809171 C99.8265244,24.9312542 98.8251617,24.6058768 98.1137416,23.9057153 C97.4518239,23.2457848 97.0459043,22.3727004 96.9681148,21.4424455 C96.1223311,22.7552483 95.1457196,23.9805309 94.0545455,25.0985307 C93.3091809,25.8438639 92.331155,26.3118146 91.2824115,26.4254497 C90.3567167,26.5426138 89.4232431,26.2744068 88.7012153,25.6843513 L88.7012153,25.6843513 Z" id="Fill-6"></path>
                    <path d="M118.904746,21.8094657 C118.328397,21.2857562 117.987538,20.5531275 117.957129,19.7767388 C117.926721,19.3052591 117.950057,18.8309561 118.027847,18.3651229 C118.108465,17.8237682 118.195448,17.2873541 118.289502,16.7558807 C118.383557,16.2244074 118.48044,15.6336461 118.579445,14.9843028 C118.651577,14.4365958 118.668549,13.8832424 118.628947,13.3327122 C118.496705,11.8505155 117.868025,11.1658818 116.740785,11.278811 C115.613544,11.3917403 114.548536,12.1116644 113.544344,13.4385834 C112.4659,14.7993811 111.537376,16.2709907 110.772211,17.8287088 C109.984415,19.404778 109.105394,21.2871678 108.13444,23.4751724 C107.687504,23.524579 107.235618,23.4843479 106.804947,23.3551851 C106.414586,23.2408442 106.066655,23.0121624 105.807828,22.6987837 C105.887032,22.1228444 106.02281,21.5553748 106.210919,21.0048446 C106.743423,18.9954094 107.165608,17.1723074 107.476766,15.534833 C107.770951,14.1147474 107.888343,12.6643121 107.823282,11.2152883 C108.035435,10.9202606 108.301334,10.6682872 108.608249,10.47419 C108.926478,10.2504489 109.296332,10.1099931 109.683158,10.0648214 C110.23122,9.93848175 110.777868,10.279387 110.904453,10.8263882 C110.927082,10.9259071 110.935568,11.028955 110.927789,11.1305914 C110.946176,11.9408589 110.889602,12.7518322 110.758067,13.5515126 C110.602488,14.7132725 110.383263,15.9512597 110.100392,17.2640625 C111.130749,15.0866449 112.410033,13.035567 113.912077,11.1517656 C115.298144,9.45288588 116.712498,8.52827747 118.155139,8.37794037 C119.105585,8.21348712 120.068053,8.59250599 120.651474,9.35901342 C121.268839,10.1770448 121.628085,11.1595295 121.683952,12.1822452 C121.745477,12.8167666 121.729211,13.4569344 121.63445,14.0879267 C121.506451,14.8177321 121.3339,15.5390678 121.118211,16.247699 C120.925151,16.9393908 120.778766,17.5343869 120.679761,18.0333931 C120.581463,18.518989 120.553176,19.015172 120.5949,19.5085318 C120.693904,20.6618219 121.165591,21.1932953 122.009254,21.1036577 C122.951921,21.0048446 123.894588,20.224221 124.837962,18.7603753 C125.837203,17.0706711 126.65965,15.2828596 127.291866,13.4244672 L127.808105,13.9679393 C126.228979,19.2946719 124.017636,22.1016702 121.174785,22.3882282 C120.370017,22.5251549 119.544742,22.3148242 118.904746,21.8094657" id="Fill-7"></path>
                    <path d="M138.606699,19.8190872 C138.031056,19.2953777 137.68949,18.5634549 137.659081,17.7863604 C137.627966,17.3141748 137.651302,16.8412835 137.729799,16.3747445 C137.807589,15.8312723 137.899522,15.2948583 137.991455,14.7655023 C138.083388,14.2361464 138.210679,13.6150354 138.281397,12.9939244 C138.354236,12.4462174 138.370501,11.892864 138.3309,11.3423338 C138.199365,9.86013707 137.56927,9.17550336 136.442737,9.28843263 C135.316204,9.4013619 134.248367,10.1304615 133.239225,11.4764373 C132.162901,12.8280595 131.233671,14.2904936 130.467091,15.8383304 C129.680003,17.4151054 128.800982,19.2967894 127.829321,21.484794 C127.382385,21.5349064 126.930499,21.4939695 126.499828,21.3648067 C126.108759,21.2504658 125.762242,21.021784 125.502708,20.7084053 C125.582619,20.132466 125.716983,19.5649964 125.905799,19.0144662 C126.438303,17.0050309 126.860488,15.181929 127.171646,13.5444546 C127.466539,12.1250748 127.583223,10.6732278 127.518163,9.22490991 C127.729609,8.92988219 127.996214,8.67861456 128.303129,8.48381156 C128.621359,8.25936464 128.990505,8.11890885 129.378038,8.07444295 C129.9261,7.94810333 130.472748,8.28900857 130.599333,8.83600973 C130.62267,8.93552865 130.630449,9.03787081 130.62267,9.14021296 C130.641056,9.95048049 130.583775,10.760748 130.452947,11.5611342 C130.297368,12.7235999 130.078144,13.9608813 129.795273,15.273684 C130.82563,13.0962665 132.104913,11.0458944 133.606957,9.1613872 C134.993024,7.46321327 136.407378,6.54072228 137.850019,6.39462003 C138.781371,6.24640036 139.719088,6.61765534 140.296852,7.36157692 C140.914924,8.17960834 141.273463,9.162093 141.32933,10.1848087 C141.38944,10.8292114 141.367518,11.4792605 141.265684,12.1187225 C141.137685,12.8485279 140.965134,13.5698637 140.749445,14.2784948 C140.556386,14.9701866 140.41,15.5658885 140.310995,16.064189 C140.212698,16.549079 140.184411,17.0459678 140.226134,17.5393276 C140.325139,18.691912 140.796826,19.2240911 141.640488,19.1344535 C142.583155,19.0356404 143.526529,18.254311 144.469196,16.7911711 C145.483995,15.1007611 146.319878,13.3101263 146.965531,11.448205 L147.48177,11.9916771 C145.911837,17.2944122 143.705445,20.0943523 140.862593,20.3907917 C140.06419,20.525601 139.244572,20.3180935 138.606699,19.8190872" id="Fill-8"></path>
                </g>
            </g>
        </g>
    </g>
</svg>