<?xml version="1.0" encoding="UTF-8" standalone="no"?>
<svg width="401px" height="101px" viewBox="0 0 401 101" version="1.1" xmlns="http://www.w3.org/2000/svg" xmlns:xlink="http://www.w3.org/1999/xlink">
    <!-- Generator: Sketch 43.2 (39069) - http://www.bohemiancoding.com/sketch -->
    <title>logo_entete</title>
    <desc>Created with Sketch.</desc>
    <defs></defs>
    <g id="Maquettes" stroke="none" stroke-width="1" fill="none" fill-rule="evenodd">
        <g id="Maiwann---UXWebdesign-Copy" transform="translate(1.000000, 0.000000)" stroke="#000000">
            <g id="logo_entete" transform="translate(0.000000, 0.036849)">
                <g id="logo">
                    <path d="M29.1676657,15.9851152 C29.646138,14.7612548 29.8719768,13.454779 29.8375268,12.1425394 C29.6844157,10.4652551 28.4978047,9.72748055 26.2776936,9.93305836 C23.4929854,10.1251871 20.8900966,11.3836307 19.0049161,13.4490152 C17.0910272,15.5816447 15.7302523,18.1542492 15.0431662,20.9420379 C14.2871801,23.7951504 14.0402884,26.7616189 14.3158884,29.7031107 C14.5187607,31.5187277 14.8517773,33.3170532 15.3111106,35.0827168 C12.8919551,35.3670674 10.5072497,34.3334145 9.05269416,32.3737008 C7.42014699,30.4178298 6.41535535,28.0142986 6.16272203,25.4762773 C5.93305537,22.0602275 6.88043034,18.6691544 8.84216639,15.8698379 C11.001033,12.5479312 13.8622968,9.74669343 17.2249995,7.66593865 C20.4250216,5.55636456 24.0786354,4.24028236 27.8853602,3.82336289 C30.5667185,3.4563969 33.2901823,4.08465804 35.5409155,5.59094774 C38.0921294,7.73510502 39.9294626,10.611273 40.8041098,13.8332728 C42.5361792,19.4203779 43.6156125,25.1919267 44.0194431,31.0287993 C44.5170542,36.3834286 44.8749514,44.708369 45.0912208,56.0055418 C45.2558152,64.3324035 45.449118,69.6390006 45.6653875,71.9330184 C47.6386068,63.7771513 50.1630262,55.7673021 53.2252483,47.9553456 C56.6204871,39.0655465 60.0578314,30.8116938 63.5411091,23.1899448 C67.0243868,15.5681957 69.7803867,9.88886874 71.8091089,6.14812123 C72.4961949,4.6303038 73.3784977,3.21047205 74.4311365,1.92128788 C75.2541087,1.0778425 76.3584226,0.572543789 77.5316364,0.49953485 C79.2790169,0.49953485 81.016828,0.770436441 82.6799974,1.30647576 C80.775678,8.06940911 79.4206447,14.9783603 78.6225531,21.9603205 C77.1297198,32.2968493 76.0139226,43.1137001 75.2732476,54.4108729 C74.5306588,63.4505323 74.4808977,72.5305389 75.1201365,81.5778835 C75.2426254,83.3473897 75.5239671,85.1034468 75.9622476,86.8229995 C76.2971782,87.9527167 76.7258893,89.0516934 77.2445531,90.1084017 C77.7670448,91.1708739 78.1689614,91.9643658 78.4503031,92.4907987 C75.8780365,92.900033 73.2445255,92.6483443 70.7947478,91.7607093 C68.9995201,90.9134214 67.6215201,89.376391 66.9669701,87.4954502 C65.9966285,84.6538654 65.4109785,81.6950821 65.2253313,78.6959517 C64.5095369,70.522793 64.5669535,62.3035235 65.3975813,54.1418926 C66.228209,45.4192456 67.6636256,34.7119082 69.7038311,22.0179591 C64.4693452,31.860717 60.1075926,42.1472923 56.6702482,52.7585653 C52.1668678,65.9136234 48.9189985,76.6709143 46.9285541,85.0362017 L46.1438597,85.3436078 C45.6596458,85.6164307 45.1256708,85.7874253 44.5744708,85.8431426 C42.0213431,86.0871462 40.2299432,84.8056472 39.1964432,82.0005669 C37.805046,77.5278087 36.9629349,72.9032687 36.6892488,68.2249327 C36.3198683,64.382357 35.860535,57.8250014 35.3112489,48.5509448 C34.7122017,38.8811029 34.206935,31.8357402 33.7992767,27.4167781 L33.0528601,20.6538447 L23.8853326,49.473163 C19.4451105,63.4716665 16.14748,73.6429646 13.9905273,79.9832146 C12.3618079,85.0669423 10.1455247,89.943171 7.38761088,94.508151 C5.20577761,97.8377429 2.74260269,99.6379896 0,99.9069699 C0.650722202,97.0634639 4.15888042,86.886402 10.5263886,69.3777055 C19.8030077,42.8773817 26.0154908,25.0785707 29.1676657,15.9851152 Z" id="Fill-1" fill="#000000"></path>
                    <path d="M106.775858,73.5084744 C110.62086,68.299863 114.173038,62.8799098 117.41708,57.2735918 L119.330968,53.9497638 C119.472596,53.5866404 119.805613,53.3349516 120.192218,53.2965259 L120.670691,53.2965259 C120.944377,51.8786154 121.001793,50.4280431 120.842941,48.992841 C120.47356,45.00809 118.685988,43.1713387 115.484052,43.4787448 C112.282116,43.7861509 108.944294,45.9130165 105.474413,49.8574206 C102.111711,53.9593702 99.4533191,58.5954379 97.6083303,63.5754161 C95.7920498,67.6888934 94.9288859,72.1635729 95.081997,76.6593865 C95.0973081,77.6450072 95.4111859,78.6037299 95.9815248,79.4068282 C96.5231553,79.9640017 97.3040219,80.2156904 98.0676636,80.079279 C100.682036,79.8352754 103.587319,77.6450072 106.775858,73.5084744 Z M89.2063583,84.1716222 C87.1317028,82.3444774 85.906814,79.7353684 85.8187751,76.9667926 C85.596764,71.6256123 86.7929445,66.3209364 89.2829139,61.5964895 C91.9470471,55.8537601 95.7135803,50.6970234 100.36433,46.4183153 C104.266749,42.4912028 109.353866,39.9723944 114.83333,39.2519115 C117.834307,38.8580474 120.881218,39.4863086 123.484107,41.0387092 C125.761635,42.3471062 127.25064,44.6968413 127.464996,47.3213206 C127.796099,50.8430413 125.799913,52.8872916 121.474524,53.4502289 C124.293682,54.038143 125.775032,55.0564256 125.914746,56.5050767 C125.895607,57.361971 125.70039,58.2054164 125.340579,58.983538 C124.906127,60.1094127 124.402774,61.2775558 123.828607,62.480282 C122.930993,64.2632371 122.138643,66.0999883 121.455385,67.9751653 C120.938635,69.341201 120.722366,70.8033011 120.823802,72.2596373 C120.888874,73.3048179 121.285049,74.300045 121.952996,75.1031434 C122.624771,75.8620521 123.635304,76.2213329 124.632441,76.0637873 C126.762599,75.8601308 129.348263,74.1098375 132.38369,70.8186714 C135.991371,66.5668613 138.833496,61.7156094 140.785662,56.4858638 L143.158884,58.4071517 C141.273704,64.4130976 138.178946,69.9636983 134.067912,74.7188858 C131.055451,78.5211145 126.707096,81.0226313 121.914718,81.7104524 C119.239102,82.1196867 116.529035,81.2358943 114.603663,79.3299767 C112.812263,77.5335725 111.713691,75.1569394 111.503163,72.624682 C109.185444,76.1829072 106.519397,79.4971288 103.541386,82.5193146 C101.524147,84.5481946 98.8772386,85.8220085 96.0389414,86.1313358 C93.5910776,86.4233716 91.1317305,85.7182589 89.2063583,84.1716222 L89.2063583,84.1716222 Z" id="Fill-3" fill="#000000"></path>
                    <path d="M152.039329,22.2100879 C151.981912,20.2522956 152.919717,18.4001741 154.527384,17.291591 C156.228831,15.8218057 158.339851,14.9149578 160.575273,14.6978523 C163.853764,14.3904462 165.627939,15.670024 165.895884,18.5404281 C165.932248,20.4232902 165.124586,22.2216157 163.694912,23.4397122 C162.257581,25.013247 160.297759,26.0027102 158.182912,26.2255796 C156.711131,26.3965742 155.22404,26.094932 153.934078,25.3610001 C152.816367,24.7231325 152.092917,23.5261701 152.039329,22.2100879 Z M141.780884,77.0052184 C139.805751,75.160782 138.61914,72.6189181 138.469857,69.9156661 C138.301435,65.6350367 138.772251,61.3563286 139.866996,57.2159532 C140.950257,52.1879428 142.701465,47.3290057 145.072773,42.7678683 C147.331162,38.5410349 149.794337,36.298892 152.460384,36.0433607 C153.357998,35.9261621 154.267095,36.1528741 155.005856,36.6773857 C155.74079,37.2499295 156.184812,38.1241155 156.211606,39.0597827 C156.21352,40.0626949 155.989595,41.0540795 155.560884,41.9609274 C155.063273,43.2424264 154.234559,45.034988 153.072829,47.3405334 C151.273773,51.008272 149.685245,54.772075 148.307245,58.6184933 C147.243123,61.4812123 146.804843,64.5418239 147.02494,67.5909077 C146.984748,69.3181455 147.593365,70.9973512 148.728301,72.2980631 C149.888118,73.1242168 151.327362,73.4489145 152.728329,73.2010684 C158.751337,72.638131 164.186781,66.2325572 169.034661,53.9881895 L170.94855,55.65971 C169.350453,61.8116738 166.370528,67.5159775 162.240356,72.3364888 C159.030764,76.1809859 154.475709,78.6421556 149.512995,79.2146994 C146.737856,79.6527531 143.909129,78.8458122 141.780884,77.0052184 L141.780884,77.0052184 Z" id="Fill-4" fill="#000000"></path>
                    <path d="M196.25016,72.6054691 C194.868333,70.0424711 194.016652,67.225863 193.742966,64.3247183 L193.589855,61.5580638 C193.450141,60.0325612 193.36593,58.3418279 193.341049,56.4858638 C191.29893,61.4485504 188.732405,66.1768399 185.685494,70.5881168 C183.03093,74.2769896 180.140958,76.2674438 177.015578,76.5633222 C174.443311,76.7881128 171.934203,75.6987426 170.336106,73.6621775 C168.353317,71.3777662 167.170534,68.5015982 166.967661,65.4774911 C166.751392,61.913502 167.034648,58.336064 167.809772,54.8527691 C168.517911,51.0178785 169.61457,47.2636819 171.082522,43.6516607 C172.435642,40.4373461 173.710292,38.7715895 174.9103,38.6563122 C175.955283,38.6736038 176.983042,38.9291351 177.915106,39.4056145 C178.990711,39.762974 179.901722,40.5007486 180.479717,41.4806054 C178.749561,44.8332528 177.419408,48.3799502 176.517967,52.0476888 C175.350494,55.8383898 174.864367,59.8058492 175.08255,63.7675449 C175.226092,65.3064964 175.601214,66.8166287 176.192606,68.2441456 C176.615575,69.5429362 177.905536,70.3537197 179.254828,70.1654335 C183.082605,69.7927037 187.892208,62.4284072 193.685549,48.0706228 C193.871197,45.6728556 194.185074,43.286616 194.623355,40.9234319 C194.764983,39.8705662 195.143933,38.8657326 195.733411,37.9838615 C196.244419,37.4785627 196.929591,37.1884483 197.647299,37.1769205 C198.822427,36.9943982 200.028177,37.1807631 201.092299,37.7148812 C201.94398,38.2028883 202.48561,39.0943659 202.527716,40.0780652 C202.468385,40.7927843 202.342069,41.5017396 202.144938,42.1914819 C201.542063,45.3596856 201.222444,48.5740003 201.187994,51.7979213 C201.08273,55.6443397 201.21096,59.4946006 201.570771,63.3256486 C201.654983,64.8338596 201.932496,66.3267003 202.393744,67.7638236 C202.59853,68.5630794 203.358344,69.0856697 204.17366,68.9934479 C206.150707,68.8013191 208.550724,66.3170939 211.369882,61.5369296 C214.345979,56.4147761 216.868485,51.0409339 218.910604,45.4768842 C218.399596,40.0454034 218.59864,36.2028276 219.50391,33.9491569 C220.083818,31.9702304 221.787179,30.5311858 223.829299,30.2987099 C225.270457,30.0623915 226.73841,30.5503986 227.752771,31.6051857 C228.608279,32.4524736 229.159479,33.5591355 229.322159,34.7560978 C229.387232,35.5668813 229.239862,36.3815074 228.901104,37.1192819 C228.556604,37.9262228 228.321196,38.4891602 228.192965,38.8100152 C226.943196,42.1357646 226.491518,45.70936 226.872382,49.2426085 C227.408271,54.9027226 229.322159,57.575234 232.614048,57.2543789 C234.22937,57.0199818 235.693495,56.1746151 236.70977,54.8911948 C238.384423,52.7259034 239.678212,50.2897103 240.537548,47.6863653 L242.872492,49.2041827 C242.051434,52.3877567 240.436112,55.3081143 238.183465,57.6943539 C236.518381,59.4004575 234.325065,60.4859851 231.963326,60.7703358 C229.637951,61.0220245 227.310662,60.3303608 225.494382,58.8490479 C223.373793,57.0795417 221.683829,54.8431626 220.556549,52.3166691 C218.064665,57.9614129 214.969907,63.3218061 211.331604,68.3017843 C208.053113,72.6688716 204.736344,75.007079 201.379383,75.314485 C199.279847,75.5450396 197.251124,74.4729609 196.25016,72.6054691" id="Fill-5" fill="#000105"></path>
                    <path d="M257.628575,59.1756668 C261.473578,53.9670554 265.025756,48.5471022 268.269797,42.9407842 L270.183686,39.6169562 C270.325314,39.2538327 270.65833,39.002144 271.044936,38.9637183 L271.523408,38.9637183 C271.797094,37.5458078 271.854511,36.0952355 271.695658,34.6600334 C271.326278,30.6752823 269.538705,28.8385311 266.336769,29.1459372 C263.132919,29.4533433 259.842945,31.6051857 256.461103,35.6014645 C253.050553,39.6938077 250.346228,44.3298753 248.461048,49.31946 C246.644767,53.4329373 245.781603,57.9076168 245.934714,62.4034305 C245.950026,63.3890511 246.263903,64.3477738 246.834242,65.1508721 C247.349078,65.6734624 248.080184,65.9232299 248.805548,65.8233229 C251.496475,65.5793193 254.438123,63.3640744 257.628575,59.1756668 Z M240.059076,69.9156661 C237.986334,68.0885213 236.759531,65.4794124 236.671493,62.7108365 C236.449481,57.3696562 237.643748,52.0649804 240.135631,47.3405334 C242.799765,41.5997253 246.564384,36.4410673 251.217048,32.1623592 C255.14052,28.2217977 260.256345,25.6991467 265.762603,24.9959554 C268.765494,24.6020913 271.812405,25.2322738 274.41338,26.7827531 C276.69665,28.0853863 278.193311,30.4370426 278.413408,33.0653645 C278.746425,36.5870852 276.742583,38.6313355 272.403797,39.1942728 C275.224869,39.7841082 276.704305,40.8023908 276.844019,42.2491206 C276.826794,43.106015 276.629664,43.9494603 276.269852,44.7275819 C275.8354,45.8534566 275.332047,47.0196784 274.75788,48.2243259 C273.86218,50.0092023 273.06983,51.842111 272.384658,53.7192092 C271.867908,55.0833236 271.651639,56.547345 271.753075,58.0036812 C271.818147,59.0488618 272.212408,60.0440889 272.882269,60.8471873 C273.554044,61.6041747 274.564577,61.9653768 275.561714,61.8078312 C277.693786,61.6041747 280.275622,59.8558027 283.312963,56.5627153 C286.920644,52.3109052 289.762769,47.4596533 291.714935,42.2299077 L294.088157,44.1511956 C292.204891,50.1571415 289.110133,55.7077422 284.997185,60.4629297 C281.982811,64.2651584 277.634455,66.7666752 272.843991,67.4564176 C270.168375,67.8656519 267.458308,66.9799382 265.532936,65.0740206 C263.741536,63.2776164 262.642964,60.9009833 262.432436,58.3687259 C260.143425,61.9423214 257.500345,65.2776771 254.547214,68.3209971 C252.529975,70.3498771 249.883067,71.623691 247.04477,71.9330184 C244.53949,72.2519521 242.013156,71.5218627 240.059076,69.9156661 L240.059076,69.9156661 Z" id="Fill-6" fill="#000105"></path>
                    <path d="M321.801268,59.3677956 C320.241448,57.9422 319.318954,55.9479032 319.236657,53.8344865 C319.154359,52.5510662 319.217518,51.2599607 319.428046,49.9919107 C319.646229,48.5182829 319.881637,47.0581041 320.136184,45.6113744 C320.390732,44.1646446 320.652934,42.5565266 320.920879,40.7889418 C321.116095,39.2980224 321.162029,37.7917327 321.054851,36.2931281 C320.696954,32.2584236 318.995507,30.3947743 315.944768,30.7021804 C312.894029,31.0095864 310.011712,32.9693001 307.29399,36.5813213 C304.37531,40.2855643 301.862374,44.2914496 299.791546,48.5317319 C297.659474,52.8219678 295.28051,57.9460426 292.652741,63.902035 C291.443163,64.0365252 290.220188,63.9270117 289.05463,63.5754161 C287.998163,63.2641674 287.05653,62.6416702 286.356047,61.7886183 C286.570402,60.2208474 286.937869,58.676132 287.446963,57.1775274 C288.888121,51.7076208 290.030713,46.7449342 290.872824,42.2875463 C291.669002,38.4219151 291.986707,34.4736685 291.81063,30.5292645 C292.384796,29.7261661 293.104419,29.0402664 293.935046,28.5119122 C294.796296,27.9028639 295.79726,27.5205276 296.844157,27.3975652 C298.327421,27.0536547 299.806857,27.9816367 300.149443,29.4706348 C300.210688,29.7415364 300.233654,30.0220445 300.212602,30.2987099 C300.262363,32.5043484 300.109252,34.7119082 299.753268,36.8887274 C299.332213,40.0511672 298.738907,43.4211062 297.973352,46.9947016 C300.761888,41.0675285 304.224113,35.4842659 308.289213,30.3563486 C312.040435,25.7318086 315.868212,23.2149215 319.772545,22.8056872 C322.344812,22.3580271 324.949615,23.3897587 326.528573,25.4762773 C328.199398,27.70305 329.171654,30.3774827 329.322851,33.1614289 C329.489359,34.8886667 329.44534,36.6312748 329.188879,38.3489062 C328.842465,40.3355178 328.375476,42.299074 327.79174,44.2280471 C327.269248,46.1109092 326.873073,47.7305549 326.605129,49.0889054 C326.339098,50.4107515 326.262543,51.7614169 326.375462,53.1043971 C326.643406,56.2437815 327.91997,57.6905113 330.20324,57.4465077 C332.754453,57.1775274 335.305667,55.052583 337.858795,51.0678319 C340.56312,46.4682687 342.788973,41.6016465 344.499989,36.5428955 L345.897128,38.0222872 C341.623414,52.5222469 335.638684,60.1632088 327.944851,60.9432517 C325.766845,61.3159815 323.533337,60.7434377 321.801268,59.3677956" id="Fill-7" fill="#000105"></path>
                    <path d="M375.12221,53.9497638 C373.564305,52.5241682 372.639897,50.5317926 372.557599,48.4164547 C372.473388,47.1311131 372.536547,45.8438502 372.748988,44.5738789 C372.959516,43.0944872 373.208322,41.6343084 373.457127,40.1933425 C373.705933,38.7523766 374.050433,37.0616433 374.241822,35.3709099 C374.438952,33.8799905 374.482972,32.3737008 374.375794,30.8750963 C374.01981,26.8403917 372.314536,24.9767425 369.265711,25.2841485 C366.216886,25.5915546 363.326914,27.576245 360.595794,31.240141 C357.682855,34.9194073 355.168005,38.9003158 353.09335,43.1137001 C350.963192,47.4058572 348.584228,52.5280107 345.954545,58.4840032 C344.744967,58.6204146 343.521992,58.5089799 342.356434,58.1573842 C341.298053,57.8461356 340.360248,57.2236383 339.65785,56.3705865 C339.87412,54.8028156 340.237759,53.2581001 340.748767,51.7594956 C342.189925,46.289589 343.332517,41.3269024 344.174628,36.8695145 C344.97272,33.0058045 345.288511,29.0537154 345.112434,25.1112326 C345.684686,24.3081343 346.406222,23.6241558 347.23685,23.0938804 C348.0981,22.4829108 349.09715,22.1005745 350.145961,21.9795334 C351.629225,21.6356229 353.108661,22.5636049 353.451247,24.052603 C353.514406,24.3235046 353.535458,24.6020913 353.514406,24.8806781 C353.564167,27.0863166 353.409142,29.2919551 353.055072,31.4706955 C352.634017,34.6350567 352.040711,38.0030743 351.275156,41.5766698 C354.063692,35.6494967 357.525917,30.0681554 361.591016,24.9383167 C365.342239,20.3156981 369.170016,17.8045748 373.074349,17.4068682 C375.594941,17.0033978 378.132758,18.0139952 379.696405,20.0390326 C381.369144,22.2658053 382.339485,24.940238 382.490682,27.7241842 C382.653363,29.47832 382.594032,31.2478261 382.318432,32.988513 C381.972019,34.9751246 381.50503,36.9386808 380.921294,38.8676539 C380.398802,40.750516 380.002627,42.372083 379.734682,43.7285122 C379.468652,45.048437 379.392096,46.4010237 379.505016,47.7440039 C379.77296,50.881467 381.049524,52.3301181 383.332793,52.0861145 C385.884007,51.8171342 388.437135,49.6902685 390.988349,45.7074387 C393.734779,41.1059543 395.996996,36.2316469 397.744376,31.1632895 L399.141515,32.6426811 C394.892682,47.077317 388.921349,54.699066 381.227516,55.506007 C379.066735,55.8729729 376.848538,55.3081143 375.12221,53.9497638" id="Fill-8" fill="#000105"></path>
                </g>
            </g>
        </g>
    </g>
</svg>