<?xml version="1.0" standalone="no"?>
<!DOCTYPE svg PUBLIC "-//W3C//DTD SVG 20010904//EN"
 "http://www.w3.org/TR/2001/REC-SVG-20010904/DTD/svg10.dtd">
<svg version="1.0" xmlns="http://www.w3.org/2000/svg"
 width="700.000000pt" height="700.000000pt" viewBox="0 0 700.000000 700.000000"
 preserveAspectRatio="xMidYMid meet">
<metadata>
Created by potrace 1.11, written by Peter Selinger 2001-2013
</metadata>
<g transform="translate(0.000000,700.000000) scale(0.100000,-0.100000)"
fill="#000000" stroke="none">
<path d="M5927 6926 c-159 -66 -201 -126 -491 -701 -50 -99 -113 -227 -140
-285 -27 -58 -74 -157 -104 -220 -30 -63 -69 -146 -87 -185 -18 -38 -50 -108
-72 -155 -33 -69 -119 -263 -248 -555 -12 -29 -61 -143 -92 -215 -8 -19 -19
-44 -24 -55 -63 -144 -286 -708 -424 -1070 -59 -154 -205 -581 -245 -715 -12
-41 -28 -93 -35 -115 -7 -22 -30 -100 -50 -173 -21 -73 -39 -131 -40 -130 -3
3 -9 216 -20 688 -17 679 -27 979 -40 1215 -3 50 -7 139 -11 199 -3 60 -7 127
-9 150 -2 22 -6 77 -10 121 -10 148 -39 417 -50 475 -2 13 -7 42 -10 65 -31
218 -116 577 -192 805 -55 167 -163 334 -297 464 -132 128 -327 197 -534 191
-139 -5 -166 -8 -314 -44 -346 -82 -708 -306 -957 -592 -156 -180 -248 -329
-305 -497 -13 -37 -23 -70 -24 -75 0 -4 -3 -20 -6 -35 -14 -70 -17 -93 -21
-183 -10 -234 78 -466 250 -658 43 -49 136 -106 213 -132 51 -18 92 -23 170
-24 l104 -1 -5 30 c-3 17 -16 85 -30 151 -39 192 -45 241 -45 400 1 242 47
463 133 640 59 118 79 151 147 234 135 165 316 258 518 265 79 3 127 -11 152
-46 18 -27 20 -39 15 -116 -6 -93 -9 -106 -110 -392 -36 -102 -97 -277 -137
-390 -128 -365 -142 -405 -150 -425 -4 -11 -29 -81 -55 -155 -26 -74 -59 -171
-75 -215 -15 -44 -46 -132 -68 -195 -87 -250 -115 -328 -142 -405 -16 -44 -77
-217 -135 -385 -59 -168 -136 -386 -171 -485 -35 -99 -88 -252 -119 -340 -134
-384 -295 -832 -392 -1095 -33 -90 -62 -170 -205 -575 -103 -293 -187 -543
-244 -730 -30 -99 -57 -188 -60 -198 -5 -17 -1 -18 43 -12 270 38 439 169 627
490 81 139 196 374 272 555 68 162 387 1109 599 1775 47 149 94 295 105 325
10 30 51 156 90 280 39 124 82 257 95 295 13 39 49 151 80 250 31 99 63 200
72 225 8 25 46 144 84 265 39 121 106 330 149 465 43 135 83 261 88 280 l9 35
8 -55 c4 -30 9 -62 10 -70 1 -8 6 -51 9 -95 4 -44 9 -102 11 -130 3 -27 7 -81
10 -120 7 -98 15 -191 20 -255 3 -30 7 -91 10 -135 3 -44 8 -111 10 -150 3
-38 7 -106 10 -150 3 -44 7 -109 10 -145 2 -36 7 -103 10 -150 3 -47 7 -112
10 -145 2 -33 7 -105 10 -160 3 -55 8 -127 10 -160 3 -33 7 -100 10 -150 3
-49 7 -123 10 -162 3 -40 7 -108 10 -150 3 -43 7 -103 10 -133 2 -30 7 -91 10
-135 3 -44 8 -102 10 -130 2 -27 7 -81 10 -120 3 -38 8 -92 10 -120 3 -27 7
-81 10 -120 3 -38 8 -83 10 -100 2 -16 7 -52 10 -80 29 -239 122 -618 177
-729 42 -84 115 -158 191 -192 52 -24 75 -28 147 -29 71 0 98 5 163 30 44 17
82 37 87 45 4 8 34 114 65 235 64 249 71 276 150 545 52 180 90 305 182 595
52 167 349 1053 400 1194 96 267 256 671 334 839 16 35 29 65 29 67 0 4 29 68
115 250 62 132 148 305 151 302 1 -1 -7 -54 -17 -117 -10 -63 -21 -135 -25
-160 -3 -25 -8 -54 -10 -65 -2 -11 -7 -45 -10 -75 -3 -30 -7 -57 -9 -60 -2 -3
-6 -30 -10 -60 -3 -30 -10 -82 -15 -115 -5 -33 -12 -80 -15 -105 -3 -25 -8
-58 -11 -75 -3 -16 -7 -48 -9 -69 -3 -22 -9 -74 -15 -115 -5 -42 -12 -98 -15
-126 -3 -27 -7 -61 -10 -75 -2 -14 -7 -49 -10 -79 -4 -30 -8 -61 -10 -70 -1
-9 -6 -48 -10 -88 -4 -40 -8 -85 -10 -100 -2 -15 -6 -57 -10 -93 -3 -36 -8
-76 -10 -90 -2 -14 -7 -59 -10 -100 -4 -41 -8 -86 -10 -100 -2 -14 -7 -72 -11
-130 -3 -58 -8 -121 -10 -140 -16 -188 -23 -809 -10 -1000 3 -47 8 -121 11
-165 5 -85 13 -195 21 -284 6 -69 30 -218 43 -268 6 -21 13 -52 16 -70 14 -84
77 -249 119 -312 72 -107 169 -184 267 -212 24 -7 49 -14 54 -15 59 -19 212
-38 295 -38 49 1 224 15 229 20 2 2 -31 72 -72 156 -42 84 -87 187 -101 228
-42 123 -72 302 -81 470 -2 41 -7 140 -12 220 -16 283 -9 1056 12 1350 1 19 5
89 9 155 4 66 9 136 11 155 2 19 7 71 10 115 3 44 8 103 10 130 2 28 6 93 10
145 3 52 8 111 10 130 3 19 7 64 10 100 14 161 25 276 30 320 2 19 7 64 10
100 4 36 8 76 10 90 2 14 6 52 10 85 6 69 23 215 30 260 2 17 7 59 10 95 3 36
8 72 10 80 2 8 7 40 10 70 3 30 8 66 10 80 4 23 22 162 30 223 2 15 9 63 15
107 15 112 19 138 25 200 4 30 8 62 10 70 2 8 7 35 10 60 3 25 13 83 22 130 8
47 17 96 19 110 34 202 151 710 199 861 5 14 -5 21 -52 34 -113 33 -189 46
-298 50 -99 4 -116 2 -168 -19z"/>
</g>
</svg>
